<svg width="1798" height="1013" viewBox="0 0 1798 1013" fill="none" xmlns="http://www.w3.org/2000/svg">
<path fill-rule="evenodd" clip-rule="evenodd" d="M0 181.963C57.8852 188.268 153.842 185.332 310.5 128.862C435.946 73.4022 464.004 66.894 489.845 60.9002C493.358 60.0854 496.83 59.28 500.5 58.3625C550 43.1958 697.5 29.4625 891.5 95.8625C1098.7 166.782 1268.68 107.746 1418.57 55.6833C1444.1 46.8151 1469.05 38.1492 1493.5 30.3625C1627.41 -12.2823 1751.93 -0.887829 1798 10.241V596.863H0V181.963Z" fill="#8bc53f"/>
<path d="M1477.25 141.814C1321.41 377.567 1210.33 383.209 992.739 379.069C877.463 376.873 717.683 559.942 746.39 644.904C821.819 868.164 981.884 889.746 1174.42 876.066C1346.9 863.814 1406.45 864.686 1533.17 962.23C1704.71 1094.27 1797.99 922.3 1797.99 922.3V102.726C1799.62 102.768 1593.6 -34.1946 1477.25 141.814Z" fill="#8bc53f" fill-opacity="0.33"/>
</svg>
