<svg width="67" height="73" viewBox="0 0 67 73" fill="none" xmlns="http://www.w3.org/2000/svg">
<path opacity="0.651" d="M46.5089 72.526C54.6411 72.526 61.2336 65.9336 61.2336 57.8013C61.2336 49.6691 54.6411 43.0767 46.5089 43.0767C38.3767 43.0767 31.7842 49.6691 31.7842 57.8013C31.7842 65.9336 38.3767 72.526 46.5089 72.526Z" fill="#86C63A"/>
<path fill-rule="evenodd" clip-rule="evenodd" d="M25.0862 31.0733C25.4107 31.0733 25.7375 30.9337 25.9702 30.7011C26.2028 30.4685 26.3412 30.1428 26.3412 29.8172C26.3412 29.4915 26.2028 29.1658 25.9702 28.9332C25.7375 28.689 25.4119 28.561 25.0862 28.561C24.7606 28.561 24.4337 28.689 24.2011 28.9332C23.9569 29.1658 23.8301 29.4799 23.8301 29.8172C23.8301 30.1428 23.9569 30.4685 24.2011 30.7011C24.4337 30.9337 24.7594 31.0733 25.0862 31.0733Z" fill="white"/>
<path fill-rule="evenodd" clip-rule="evenodd" d="M53.5224 30.7133C53.5224 31.6321 52.7676 32.3881 51.8371 32.3881H44.6015L36.8088 29.0384L37.2392 27.7939C37.7509 26.3517 38.1243 24.9095 38.4488 23.5719C38.8326 22.0483 40.1934 20.9899 41.7647 20.9899H42.8348C45.0098 20.9899 46.9638 22.2692 47.8361 24.2581L49.1038 27.1775C49.2213 27.4566 49.4411 27.6892 49.7203 27.8172L52.5698 29.2013C53.1514 29.4804 53.5224 30.0736 53.5224 30.7133ZM39.8561 13.5228C40.9389 14.9302 41.6135 16.6399 41.7752 18.4194H41.7636C40.2969 18.4194 38.9489 18.9312 37.9021 19.8151V19.2452C37.9021 17.1749 38.6 15.1512 39.8561 13.5228ZM47.6604 16.07L47.6488 20.0245C46.9509 19.5011 46.1717 19.0824 45.3343 18.8149C45.9158 17.7448 46.7067 16.8027 47.6604 16.07ZM34.6222 56.1151C34.4489 56.6152 33.9825 56.9525 33.4591 56.9525C33.0753 56.9525 32.7264 56.7781 32.4938 56.4873C32.2623 56.1965 32.1693 55.8127 32.2623 55.4522L34.007 47.9735C35.0886 48.0433 36.1121 48.3689 37.0077 48.8807L34.6222 56.1151ZM21.9341 55.4522C22.026 55.8127 21.9341 56.1965 21.7015 56.4873C21.4689 56.7781 21.1199 56.9525 20.7361 56.9525C20.2127 56.9525 19.7463 56.6152 19.573 56.1151L16.9677 48.2294C17.3515 48.0549 17.7819 47.9619 18.2238 47.9619H18.2343H20.1895L21.9341 55.4522ZM65.7942 0.984738C65.1882 0.600918 64.3984 0.787002 64.0146 1.39181L50.2309 23.316L50.2192 23.2811C50.2192 23.2114 50.2309 23.1532 50.2309 23.0834L50.2437 13.802C50.2437 13.36 50.0227 12.9529 49.6493 12.7203C49.2888 12.476 48.8235 12.4412 48.4281 12.6272C46.6497 13.4181 45.1249 14.6394 43.9863 16.163C43.428 14.0927 42.3114 12.1736 40.7528 10.6616C40.2527 10.1731 39.4618 10.1731 38.9617 10.6616C36.6472 12.9064 35.3212 16.0351 35.3212 19.2452V25.1188C35.3212 25.1653 35.3329 25.2235 35.3329 25.2817C35.17 25.8283 35.0072 26.3866 34.8095 26.9449L34.2745 28.4685H29.7396C29.0301 28.4685 28.4485 29.0384 28.4485 29.7479C28.4485 30.4574 29.0301 31.0389 29.7396 31.0389H34.927L43.5792 34.7492V35.2958C43.5559 40.6344 44.1026 45.7636 45.2191 50.5439L46.3589 55.4405C46.4392 55.8011 46.3589 56.1849 46.1135 56.4873C45.8821 56.7781 45.532 56.9525 45.1493 56.9525C44.6259 56.9525 44.1491 56.6152 43.9863 56.1151L42.4859 51.7303C41.1948 47.927 37.6009 45.3798 33.5417 45.3798C33.5301 45.3798 33.5068 45.3798 33.4952 45.3798H18.2343C18.2227 45.3798 18.2227 45.3798 18.211 45.3798C15.7918 45.3798 13.6634 46.9035 12.919 49.1715L10.6265 56.1151C10.4532 56.6152 9.98685 56.9525 9.45183 56.9525C9.07964 56.9525 8.73071 56.7781 8.49809 56.4873C8.26664 56.1965 8.1736 55.8127 8.25385 55.4522L8.39342 54.9171C9.68444 49.5204 10.2427 43.6468 10.0566 37.4359C10.0566 37.3545 10.045 37.2615 10.045 37.18V36.3193C10.045 33.4116 12.4177 31.0389 15.3371 31.0389H19.3974C20.1185 31.0389 20.6884 30.4574 20.6884 29.7479C20.6884 29.0384 20.1185 28.4685 19.3974 28.4685H15.3382C13.2795 28.4685 11.3953 29.2594 9.99964 30.5621C8.81329 30.6667 4.80063 30.69 2.83501 26.5145C2.53261 25.8748 1.76497 25.5957 1.12527 25.8981C0.473939 26.2005 0.20643 26.9681 0.508833 27.6195C2.13716 31.1087 4.8588 32.3997 6.84768 32.8766C7.31291 32.9813 7.75488 33.0627 8.16196 33.0976C7.71998 34.0862 7.47574 35.1795 7.47574 36.3193V37.18C7.47574 37.2963 7.47574 37.4127 7.47574 37.5173C7.66183 43.4956 7.12682 49.1482 5.88231 54.3123L5.75553 54.859C5.48802 55.9988 5.75554 57.1735 6.47665 58.0924C7.2094 58.9996 8.29107 59.523 9.45416 59.523C11.1057 59.523 12.5596 58.4762 13.0714 56.9176L15.1068 50.7882L17.1294 56.9176C17.6411 58.4762 19.095 59.523 20.7361 59.523C21.9108 59.523 22.9913 58.9996 23.7241 58.0924C24.4452 57.1735 24.7139 55.9988 24.4452 54.859L22.8401 47.9619H31.3539L29.7489 54.859C29.4814 55.9988 29.7489 57.1735 30.47 58.0924C31.2027 58.9996 32.2844 59.523 33.458 59.523C35.0979 59.523 36.5518 58.4762 37.0647 56.9176L39.1001 50.7533C39.5072 51.2999 39.8212 51.9047 40.0527 52.5677L41.5414 56.9409C42.0648 58.4878 43.5187 59.523 45.1482 59.523C46.3229 59.523 47.4034 58.9996 48.1361 58.0807C48.8689 57.1735 49.1259 55.9872 48.8689 54.8474L47.7302 49.9624C46.6602 45.3798 46.1368 40.4483 46.1484 35.3191V34.9702H51.8371C54.1865 34.9702 56.1056 33.0627 56.1056 30.7133C56.1056 29.0849 55.1519 27.5846 53.698 26.8751L51.6626 25.8981L66.2012 2.76426C66.5839 2.15946 66.3978 1.35693 65.7942 0.984738Z" fill="white"/>
</svg>
