<svg width="52" height="45" viewBox="0 0 52 45" fill="none" xmlns="http://www.w3.org/2000/svg">
<path opacity="0.651" fill-rule="evenodd" clip-rule="evenodd" d="M0.456543 9.99331C0.456543 4.81935 4.64429 0.630859 9.81825 0.630859C14.9922 0.630859 19.18 4.81861 19.18 9.99331C19.18 15.1665 14.9922 19.355 9.81825 19.355C4.64429 19.355 0.456543 15.1673 0.456543 9.99331Z" fill="#009247"/>
<path fill-rule="evenodd" clip-rule="evenodd" d="M45.6163 12.2674C46.0726 12.2674 46.4406 11.9141 46.4406 11.4725C46.4406 11.0383 46.0726 10.6851 45.6163 10.6851C45.1527 10.6851 44.7847 11.0383 44.7847 11.4725C44.7847 11.9141 45.1527 12.2674 45.6163 12.2674Z" fill="#92B466"/>
<path fill-rule="evenodd" clip-rule="evenodd" d="M22.3893 12.2674C22.8456 12.2674 23.2136 11.9141 23.2136 11.4725C23.2136 11.0383 22.8456 10.6851 22.3893 10.6851C21.9256 10.6851 21.5576 11.0383 21.5576 11.4725C21.5576 11.9141 21.9256 12.2674 22.3893 12.2674Z" fill="#92B466"/>
<path fill-rule="evenodd" clip-rule="evenodd" d="M19.1212 12.2674C19.5775 12.2674 19.9455 11.9141 19.9455 11.4725C19.9455 11.0383 19.5775 10.6851 19.1212 10.6851C18.6575 10.6851 18.2896 11.0383 18.2896 11.4725C18.2896 11.9141 18.6575 12.2674 19.1212 12.2674Z" fill="#92B466"/>
<path fill-rule="evenodd" clip-rule="evenodd" d="M15.8536 12.2674C16.3099 12.2674 16.6779 11.9141 16.6779 11.4725C16.6779 11.0383 16.3099 10.6851 15.8536 10.6851C15.39 10.6851 15.022 11.0383 15.022 11.4725C15.022 11.9141 15.39 12.2674 15.8536 12.2674Z" fill="#92B466"/>
<path fill-rule="evenodd" clip-rule="evenodd" d="M12.1514 9.04376H48.8255C49.2744 9.04376 49.6424 9.40366 49.6424 9.85335V13.916H11.3418V9.85335C11.3418 9.4044 11.7025 9.04376 12.1514 9.04376ZM48.8255 43.1419H12.1514C11.7025 43.1419 11.3418 42.7739 11.3418 42.3323V15.5351H49.6424V42.3323C49.6424 42.7739 49.2744 43.1419 48.8255 43.1419ZM12.1514 44.7684H48.8255C50.1723 44.7684 51.2616 43.6718 51.2616 42.3316V9.85261C51.2616 8.51312 50.1723 7.4165 48.8255 7.4165H12.1514C10.8119 7.4165 9.71533 8.51238 9.71533 9.85261V42.3316C9.71533 43.6718 10.8119 44.7684 12.1514 44.7684Z" fill="#92B466"/>
<path fill-rule="evenodd" clip-rule="evenodd" d="M37.0205 12.2674H42.349C42.798 12.2674 43.1586 11.9141 43.1586 11.4725C43.1586 11.0383 42.798 10.6851 42.349 10.6851H37.0205C36.5716 10.6851 36.2109 11.0383 36.2109 11.4725C36.2109 11.9141 36.5716 12.2674 37.0205 12.2674Z" fill="#92B466"/>
<path fill-rule="evenodd" clip-rule="evenodd" d="M45.5945 38.2476H15.3897C14.9408 38.2476 14.5728 38.6156 14.5728 39.0792C14.5728 39.5355 14.9408 39.9035 15.3897 39.9035H45.5945C46.0434 39.9035 46.404 39.5355 46.404 39.0792C46.404 38.6156 46.0434 38.2476 45.5945 38.2476Z" fill="#92B466"/>
<path fill-rule="evenodd" clip-rule="evenodd" d="M45.6168 30.1226H37.0205C36.5789 30.1226 36.2109 30.4906 36.2109 30.9542C36.2109 31.4105 36.5789 31.7785 37.0205 31.7785H45.6168C46.0658 31.7785 46.4264 31.4105 46.4264 30.9542C46.4264 30.4906 46.0658 30.1226 45.6168 30.1226Z" fill="#92B466"/>
<path fill-rule="evenodd" clip-rule="evenodd" d="M45.6168 20.4072H37.0205C36.5789 20.4072 36.2109 20.7752 36.2109 21.2389C36.2109 21.6952 36.5789 22.0632 37.0205 22.0632H45.6168C46.0658 22.0632 46.4264 21.6952 46.4264 21.2389C46.4264 20.7752 46.0658 20.4072 45.6168 20.4072Z" fill="#92B466"/>
<path fill-rule="evenodd" clip-rule="evenodd" d="M45.6168 25.2651H37.0205C36.5789 25.2651 36.2109 25.6331 36.2109 26.0968C36.2109 26.5531 36.5789 26.9211 37.0205 26.9211H45.6168C46.0658 26.9211 46.4264 26.5531 46.4264 26.0968C46.4264 25.6331 46.0658 25.2651 45.6168 25.2651Z" fill="#92B466"/>
<path fill-rule="evenodd" clip-rule="evenodd" d="M22.3814 31.7633C22.8303 31.7633 23.1909 32.1313 23.1909 32.5803C23.1909 33.0366 22.8303 33.4046 22.3814 33.4046C21.9398 33.4046 21.5791 33.0366 21.5791 32.5803C21.5791 32.1313 21.9398 31.7633 22.3814 31.7633ZM19.96 32.5803C19.96 33.9419 21.0492 35.0532 22.3814 35.0532C23.7208 35.0532 24.8101 33.9411 24.8101 32.5803C24.8101 31.2261 23.7208 30.1147 22.3814 30.1147C21.0492 30.1147 19.96 31.2261 19.96 32.5803Z" fill="#92B466"/>
<path fill-rule="evenodd" clip-rule="evenodd" d="M28.8286 31.7633C29.2776 31.7633 29.6382 32.1313 29.6382 32.5803C29.6382 33.0366 29.2776 33.4046 28.8286 33.4046C28.387 33.4046 28.0264 33.0366 28.0264 32.5803C28.0264 32.1313 28.387 31.7633 28.8286 31.7633ZM26.4072 32.5803C26.4072 33.9419 27.4965 35.0532 28.8286 35.0532C30.1681 35.0532 31.2574 33.9411 31.2574 32.5803C31.2574 31.2261 30.1681 30.1147 28.8286 30.1147C27.4965 30.1147 26.4072 31.2261 26.4072 32.5803Z" fill="#92B466"/>
<path fill-rule="evenodd" clip-rule="evenodd" d="M31.0738 23.6896L29.8521 28.5692H21.3515L20.1297 23.6896H31.0738ZM15.8316 20.4366H17.6421L18.2971 23.0714L19.931 29.5775C20.0193 29.9381 20.3432 30.1957 20.7185 30.1957H30.4924C30.8604 30.1957 31.1916 29.9381 31.2799 29.5775L32.9064 23.0714C32.9653 22.8285 32.9138 22.5709 32.7592 22.3796C32.6047 22.1809 32.3691 22.0631 32.1189 22.0631H19.7249L19.0626 19.4283C18.9742 19.0677 18.6504 18.8101 18.275 18.8101H15.8316C15.3827 18.8101 15.0146 19.1781 15.0146 19.627C15.0146 20.076 15.3827 20.4366 15.8316 20.4366Z" fill="#92B466"/>
<path fill-rule="evenodd" clip-rule="evenodd" d="M23.9639 26.9211H27.2538C27.7101 26.9211 28.0781 26.5531 28.0781 26.0968C28.0781 25.6331 27.7101 25.2651 27.2538 25.2651H23.9639C23.5076 25.2651 23.1396 25.6331 23.1396 26.0968C23.1396 26.5531 23.5076 26.9211 23.9639 26.9211Z" fill="#92B466"/>
</svg>
