<svg width="45" height="43" viewBox="0 0 45 43" fill="none" xmlns="http://www.w3.org/2000/svg">
<path fill-rule="evenodd" clip-rule="evenodd" d="M37.4716 29.8986C37.0993 30.3344 36.7581 30.8025 36.348 31.1993C35.5358 31.9849 34.5737 32.4946 33.4172 32.5319C31.6844 32.5879 30.2996 31.3414 30.0189 29.4718C29.7886 27.938 30.1696 26.5277 30.9549 25.2164C31.5789 24.1746 32.4007 23.329 33.5243 22.8264C35.8187 21.8002 38.0511 23.0269 38.4382 25.5133C38.5914 26.4968 38.4682 27.4518 38.1525 28.3887C38.1206 28.4838 38.1034 28.5837 38.0794 28.6814C37.8769 29.0871 37.6742 29.4928 37.4716 29.8986Z" fill="#8BC53F"/>
<path fill-rule="evenodd" clip-rule="evenodd" d="M6.92036 13.12C7.29832 12.6724 7.64044 12.1874 8.06154 11.785C8.97732 10.9099 10.055 10.3664 11.3636 10.4608C12.8787 10.5701 14.0225 11.6823 14.3639 13.343C14.8798 15.853 13.2963 19.0223 10.9795 20.1165C8.5171 21.2796 6.13595 19.8431 5.92301 17.0659C5.85719 16.2066 5.98665 15.3747 6.26968 14.5635C6.29475 14.4918 6.29875 14.4129 6.31249 14.3372C6.51511 13.9315 6.71774 13.5257 6.92036 13.12Z" fill="#8BC53F"/>
<path fill-rule="evenodd" clip-rule="evenodd" d="M21.9419 20.3117C25.1389 21.9771 27.2096 24.0633 28.0813 27.161C28.2755 27.851 28.3361 28.5853 28.3975 29.3043C28.4715 30.1702 28.5625 31.0471 28.5016 31.909C28.359 33.9261 27.6766 35.7309 26.1229 37.1164C25.3814 37.7776 24.5111 38.1651 23.5155 38.2311C22.1752 38.3198 21.2137 37.6531 20.4994 36.6036C19.9138 35.7433 19.3643 34.8544 18.8584 33.945C18.2764 32.8992 17.4291 32.2171 16.358 31.7047C15.5193 31.3034 14.6781 31.3061 13.8078 31.3538C12.7226 31.4132 11.6389 31.523 10.5532 31.5438C9.2195 31.5694 8.07047 31.1521 7.3647 29.9211C6.74029 28.832 6.63285 27.6612 6.95797 26.469C7.58828 24.1575 9.10381 22.5579 11.1428 21.3983C11.5356 21.1749 11.9257 20.9458 12.31 20.7081C14.5901 19.2978 17.0496 18.9704 19.6302 19.5672C20.5621 19.7828 21.4584 20.153 21.9419 20.3117Z" fill="#8BC53F"/>
<path fill-rule="evenodd" clip-rule="evenodd" d="M26.1172 13.9103C26.9693 12.2639 28.1094 10.9421 29.7886 10.1804C32.7139 8.85378 35.3983 10.2901 35.9665 13.4585C36.5746 16.8493 34.4876 20.7957 31.3368 22.1658C29.9766 22.7572 28.6093 22.8099 27.2998 22.0036C26.2789 21.375 25.7055 20.4157 25.4206 19.2793C24.9464 17.3878 25.3044 15.5987 26.1172 13.9103Z" fill="#8BC53F"/>
<path fill-rule="evenodd" clip-rule="evenodd" d="M25.553 13.6043C24.6735 15.2879 23.4684 16.6467 21.6826 17.3968C20.338 17.9617 18.9936 18.0048 17.7077 17.2139C16.6632 16.5715 16.0967 15.5857 15.8067 14.4263C15.4587 13.034 15.5819 11.6556 16.0324 10.3117C16.6548 8.45533 17.7251 6.91294 19.3842 5.83004C20.5419 5.07446 21.8067 4.66495 23.1915 4.98938C24.8903 5.38738 25.8379 6.57071 26.2588 8.19824C26.7469 10.086 26.3783 11.8779 25.553 13.6043Z" fill="#8BC53F"/>
</svg>
