<svg width="118" height="113" viewBox="0 0 118 113" fill="none" xmlns="http://www.w3.org/2000/svg">
<path fill-rule="evenodd" clip-rule="evenodd" d="M98.7499 78.7933C97.7687 79.9418 96.8695 81.1755 95.7888 82.2211C93.6484 84.2916 91.1128 85.6347 88.0652 85.7331C83.4986 85.8807 79.849 82.5956 79.1093 77.6686C78.5023 73.6264 79.5064 69.9098 81.576 66.4542C83.2204 63.7086 85.3862 61.4801 88.3473 60.1557C94.3939 57.4513 100.277 60.684 101.297 67.2365C101.701 69.8285 101.376 72.3453 100.544 74.8143C100.46 75.0648 100.415 75.3282 100.352 75.5855C99.8179 76.6548 99.2839 77.724 98.7499 78.7933Z" fill="#8BC53F" fill-opacity="0.33"/>
<path fill-rule="evenodd" clip-rule="evenodd" d="M18.237 34.576C19.2331 33.3964 20.1346 32.1183 21.2444 31.0579C23.6578 28.7516 26.4979 27.3194 29.9464 27.5681C33.9394 27.8562 36.9536 30.7872 37.8532 35.1636C39.213 41.7785 35.0399 50.1306 28.9343 53.0143C22.445 56.0794 16.1698 52.2937 15.6086 44.9747C15.4352 42.7104 15.7763 40.518 16.5222 38.3801C16.5883 38.1912 16.5988 37.9832 16.635 37.7837C17.169 36.7145 17.703 35.6452 18.237 34.576Z" fill="#8BC53F" fill-opacity="0.33"/>
<path fill-rule="evenodd" clip-rule="evenodd" d="M57.8239 53.5286C66.2494 57.9175 71.7064 63.4152 74.0034 71.5787C74.5152 73.3973 74.675 75.3324 74.8367 77.2273C75.0318 79.509 75.2717 81.82 75.1112 84.0915C74.7353 89.4074 72.9369 94.1637 68.8424 97.8147C66.8884 99.5573 64.5947 100.579 61.9709 100.752C58.4388 100.986 55.905 99.2291 54.0225 96.4633C52.4793 94.1963 51.0311 91.8535 49.6979 89.457C48.1642 86.7011 45.9313 84.9035 43.1086 83.553C40.8983 82.4954 38.6815 82.5027 36.3878 82.6283C33.5281 82.7848 30.672 83.0743 27.8107 83.1291C24.296 83.1965 21.2679 82.0968 19.408 78.8528C17.7624 75.9824 17.4793 72.8971 18.3361 69.7552C19.9972 63.6634 23.9912 59.4481 29.3646 56.3921C30.3999 55.8033 31.4278 55.1997 32.4406 54.5731C38.4496 50.8566 44.931 49.9938 51.7319 51.5666C54.1877 52.1347 56.5498 53.1102 57.8239 53.5286Z" fill="#8BC53F" fill-opacity="0.33"/>
<path fill-rule="evenodd" clip-rule="evenodd" d="M68.8275 36.6586C71.0729 32.3198 74.0775 28.8364 78.5028 26.8292C86.212 23.3329 93.2863 27.1181 94.7838 35.468C96.3864 44.404 90.8864 54.804 82.5829 58.4147C78.9983 59.9734 75.395 60.1122 71.9439 57.9873C69.2534 56.3307 67.7423 53.8027 66.9915 50.8079C65.7419 45.8231 66.6855 41.1083 68.8275 36.6586Z" fill="#8BC53F" fill-opacity="0.33"/>
<path fill-rule="evenodd" clip-rule="evenodd" d="M67.3408 35.8523C65.0231 40.2891 61.8472 43.87 57.1409 45.8468C53.5975 47.3353 50.0545 47.449 46.6657 45.3648C43.913 43.6719 42.4201 41.074 41.656 38.0183C40.7387 34.3493 41.0635 30.7166 42.2508 27.175C43.891 22.2828 46.7115 18.2181 51.084 15.3643C54.1349 13.373 57.4679 12.2938 61.1176 13.1488C65.5944 14.1977 68.0916 17.3162 69.2009 21.6053C70.4873 26.5802 69.5158 31.3024 67.3408 35.8523Z" fill="#8BC53F" fill-opacity="0.33"/>
</svg>
