<svg width="36" height="36" viewBox="0 0 36 36" fill="none" xmlns="http://www.w3.org/2000/svg">
<path fill-rule="evenodd" clip-rule="evenodd" d="M17.6552 35.3103C27.4059 35.3103 35.3103 27.4059 35.3103 17.6552C35.3103 7.90449 27.4059 0 17.6552 0C7.90449 0 0 7.90449 0 17.6552C0 27.4059 7.90449 35.3103 17.6552 35.3103Z" fill="#8BC53F" fill-opacity="0.33"/>
<path d="M23 8H20C18.6739 8 17.4021 8.52678 16.4645 9.46447C15.5268 10.4021 15 11.6739 15 13V16H12V20H15V28H19V20H22L23 16H19V13C19 12.7348 19.1054 12.4804 19.2929 12.2929C19.4804 12.1054 19.7348 12 20 12H23V8Z" stroke="#009247" stroke-linecap="round" stroke-linejoin="round"/>
</svg>
