<svg width="93" height="92" viewBox="0 0 93 92" fill="none" xmlns="http://www.w3.org/2000/svg">
<rect x="8.5" y="7.5" width="84" height="84" rx="22.5" stroke="#009247" stroke-dasharray="2 2"/>
<rect width="85" height="85" rx="23" fill="#8BC53F" fill-opacity="0.33"/>
<path fill-rule="evenodd" clip-rule="evenodd" d="M47.0318 64.543C47.0318 65.0169 47.0318 65.4669 47.0318 65.9441C41.6886 65.9441 36.3799 65.9441 31.0147 65.9441C31.0147 61.9005 31.0147 57.8424 31.0147 53.718C28.7671 54.5889 26.6225 54.5346 24.5529 53.4001C23.0634 52.5835 21.992 51.3752 21.3386 49.8071C20.0295 46.6651 21.0805 43.0388 23.8625 41.0695C26.668 39.0836 30.386 39.3061 32.9753 41.6139C35.2961 43.6822 36.4771 47.687 33.9554 51.3776C38.3189 51.3776 42.6471 51.3776 47.01 51.3776C47.01 51.8785 47.01 52.3282 47.01 52.8486C47.9113 52.7727 48.7811 53.0548 49.6249 52.5168C50.7105 51.8249 51.8602 51.2345 52.9732 50.5845C55.3073 49.2211 56.469 47.1717 56.5098 44.4775C56.5155 44.098 56.504 43.718 56.5125 43.3387C56.5302 42.5465 57.1451 41.9371 57.9352 41.9194C59.9087 41.875 61.5666 43.5036 61.6142 45.4858C61.6728 47.9186 61.0208 50.1248 59.6258 52.1184C59.5275 52.2588 59.4412 52.5138 59.5046 52.6325C59.5716 52.7579 59.8239 52.8419 59.9965 52.8443C61.1959 52.862 62.3961 52.8716 63.5953 52.8481C64.551 52.8293 65.289 53.1831 65.7355 54.0309C66.1845 54.8835 66.0434 55.7017 65.4529 56.484C66.1519 57.4405 66.202 58.4212 65.4635 59.3884C66.172 60.6209 66.172 61.2638 65.4488 62.33C65.9317 62.9493 66.1324 63.6533 65.8888 64.4405C65.6107 65.3401 64.787 65.9679 63.8466 65.9693C60.2171 65.9752 56.5878 65.9737 52.9583 65.9669C52.768 65.9664 52.5686 65.9153 52.3893 65.8466C51.6963 65.5811 50.9835 65.3499 50.3267 65.0114C49.2929 64.4785 48.2097 64.4548 47.0318 64.543ZM60.1735 61.6015C61.3606 61.6015 62.4981 61.6053 63.6357 61.5998C64.1684 61.5973 64.5123 61.3115 64.523 60.8854C64.534 60.4434 64.1791 60.1462 63.6199 60.1414C63.0126 60.1362 62.4053 60.1402 61.7978 60.1402C61.2576 60.1402 60.7173 60.1402 60.1789 60.1402C60.1789 59.6257 60.1789 59.1762 60.1789 58.6856C60.3043 58.6856 60.4068 58.6856 60.5091 58.6856C61.5721 58.6854 62.635 58.6922 63.6978 58.682C64.1898 58.6774 64.5242 58.3656 64.523 57.9528C64.5216 57.5387 64.1886 57.2447 63.6945 57.2254C63.5581 57.2201 63.4211 57.2243 63.2844 57.2243C62.2562 57.2241 61.2278 57.2241 60.1849 57.2241C60.1849 56.7195 60.1849 56.2595 60.1849 55.7695C61.3354 55.7695 62.4566 55.7717 63.5779 55.7686C64.1726 55.7669 64.5371 55.4738 64.523 55.0202C64.5094 54.5817 64.159 54.3106 63.5868 54.3092C62.3112 54.3061 61.0357 54.3135 59.7603 54.3057C59.0435 54.3014 58.5047 53.9608 58.1761 53.3362C57.7984 52.6178 57.9296 51.9338 58.3955 51.2889C59.6186 49.5958 60.1818 47.6935 60.1526 45.6138C60.1347 44.3426 59.156 43.3589 57.9965 43.4204C57.988 43.4489 57.9722 43.4775 57.9719 43.5063C57.9683 43.8099 57.9652 44.1136 57.9654 44.4172C57.9685 47.7268 56.5171 50.2053 53.6782 51.8763C52.3718 52.6454 51.0501 53.3888 49.7267 54.1285C49.5393 54.2332 49.3044 54.2934 49.0895 54.3002C48.4129 54.3219 47.7352 54.3082 47.0651 54.3082C47.0651 57.2589 47.0651 60.1491 47.0651 63.1127C48.5878 62.8662 49.9847 63.1669 51.3223 63.8213C51.7566 64.0338 52.2135 64.2039 52.6701 64.3646C52.9069 64.4481 53.1659 64.5103 53.4151 64.5111C56.771 64.5204 60.1268 64.5175 63.4828 64.5174C63.5283 64.5174 63.5738 64.5181 63.6193 64.5172C64.1791 64.5068 64.5336 64.2144 64.5232 63.7724C64.5129 63.3462 64.1688 63.0611 63.6367 63.0577C62.756 63.0519 61.8752 63.056 60.9945 63.0559C60.7261 63.0559 60.4577 63.0559 60.1736 63.0559C60.1735 62.5536 60.1735 62.1045 60.1735 61.6015ZM32.4828 52.8708C32.4828 56.7691 32.4828 60.6308 32.4828 64.481C35.8914 64.481 39.2672 64.481 42.6354 64.481C42.6354 60.5935 42.6354 56.7423 42.6354 52.8708C39.2459 52.8708 35.8807 52.8708 32.4828 52.8708ZM25.5642 48.9435C23.852 47.1915 24.2823 44.9696 25.4366 43.7765C26.7524 42.4164 28.8361 42.2526 30.3176 43.4118C31.0801 44.0082 31.5518 44.7945 31.6879 45.7494C31.8682 47.0136 31.4433 48.0929 30.5856 48.9364C31.2953 49.4883 31.9715 50.0144 32.6508 50.5425C34.2556 48.77 34.5469 45.2653 32.1891 42.9023C29.8945 40.6024 26.1304 40.6406 23.8962 42.9707C21.5647 45.4026 21.9694 48.883 23.5071 50.5398C24.1883 50.0113 24.8654 49.4857 25.5642 48.9435ZM45.5438 64.4965C45.5438 60.5988 45.5438 56.7373 45.5438 52.8869C45.0504 52.8869 44.5895 52.8869 44.1382 52.8869C44.1382 56.7744 44.1382 60.625 44.1382 64.4965C44.6112 64.4965 45.0611 64.4965 45.5438 64.4965ZM30.264 46.2807C30.2567 45.1018 29.2568 44.1059 28.0793 44.1049C26.9026 44.104 25.9011 45.0989 25.8919 46.2777C25.8828 47.4701 26.9085 48.4925 28.0989 48.4773C29.2776 48.4621 30.2712 47.4542 30.264 46.2807ZM31.5222 51.649C29.5925 49.1719 26.0472 49.5977 24.6551 51.6706C26.3581 53.2116 29.823 53.2102 31.5222 51.649Z" fill="#009247"/>
<path fill-rule="evenodd" clip-rule="evenodd" d="M39.7734 20.7783C45.411 20.7833 49.9544 25.3595 49.9462 31.0242C49.9379 36.6564 45.3555 41.1956 39.6875 41.1864C34.0601 41.1772 29.5266 36.5894 29.5381 30.9159C29.5494 25.3103 34.13 20.7735 39.7734 20.7783ZM36.9468 31.4669C34.7287 29.4014 35.1205 26.667 36.456 25.1764C37.974 23.482 40.4819 23.1889 42.3046 24.5182C43.1833 25.1591 43.7717 26.0132 44.0051 27.0761C44.3856 28.808 43.8267 30.2582 42.5329 31.4685C44.6312 32.2948 46.1116 33.6983 47.0628 35.6811C49.2896 32.3949 48.9727 27.4822 45.514 24.4268C42.0903 21.4022 36.9058 21.5422 33.6529 24.7185C30.3526 27.9412 30.373 32.772 32.4295 35.6674C33.3757 33.6848 34.8663 32.2893 36.9468 31.4669ZM36.3843 38.7905C35.997 37.2588 35.6237 35.7818 35.2432 34.2766C34.5629 34.8582 33.9924 35.7364 33.6267 36.6305C33.4873 36.9712 33.5583 37.1767 33.8223 37.4105C35.2972 38.7172 36.9938 39.5114 38.9663 39.678C41.5943 39.8999 43.8568 39.067 45.7779 37.2808C45.8706 37.1947 45.9627 37.0045 45.9299 36.9034C45.6033 35.8967 45.0684 35.0174 44.2446 34.2527C43.8579 35.7881 43.4866 37.2614 43.1011 38.792C42.0574 38.0118 41.0561 37.279 40.0753 36.5198C39.8248 36.3257 39.6714 36.3183 39.4157 36.5168C38.4356 37.2772 37.4328 38.0081 36.3843 38.7905ZM39.7256 30.9818C41.2961 30.9929 42.6302 29.6833 42.6568 28.1046C42.6836 26.5187 41.3516 25.1618 39.7577 25.151C38.1669 25.1402 36.8234 26.4796 36.8268 28.0725C36.8302 29.6457 38.1505 30.9705 39.7256 30.9818ZM37.2764 36.2838C37.773 35.9109 38.2162 35.5777 38.6758 35.2326C38.1187 34.5611 37.5913 33.9172 37.0504 33.285C36.9904 33.2148 36.8384 33.1624 36.7567 33.1884C36.6723 33.2153 36.5506 33.3645 36.5664 33.4319C36.7866 34.3683 37.0277 35.3 37.2764 36.2838ZM40.8075 35.2344C41.2701 35.58 41.7141 35.9119 42.2071 36.28C42.4549 35.3071 42.6939 34.3897 42.9135 33.4677C42.9318 33.3904 42.8348 33.2211 42.7636 33.2027C42.664 33.1771 42.4953 33.2163 42.4304 33.2918C41.8873 33.9221 41.3612 34.5667 40.8075 35.2344ZM39.7443 34.2043C40.2012 33.6527 40.6133 33.1551 41.0664 32.608C40.155 32.3967 39.3215 32.3802 38.4228 32.6193C38.8785 33.166 39.2926 33.6628 39.7443 34.2043Z" fill="#009247"/>
<path fill-rule="evenodd" clip-rule="evenodd" d="M58.6785 40.4575C54.6476 40.4549 51.4054 37.1973 51.4077 33.1517C51.41 29.1198 54.6659 25.8792 58.7124 25.8813C62.7437 25.8835 65.9861 29.1406 65.9839 33.1854C65.9816 37.2157 62.7223 40.4599 58.6785 40.4575ZM56.1849 35.0911C54.469 33.3539 54.8753 31.0539 56.1563 29.8213C57.5451 28.4846 59.7383 28.4527 61.1532 29.7414C62.454 30.9263 62.9991 33.2578 61.2139 35.0945C61.8965 35.6245 62.584 36.1583 63.2737 36.6936C64.9388 34.8043 65.1204 31.275 62.7328 28.9831C60.3506 26.6967 56.6118 26.8257 54.414 29.2273C52.1664 31.6831 52.6435 35.1354 54.1287 36.6862C54.8122 36.1558 55.4903 35.6298 56.1849 35.0911ZM60.8816 32.4561C60.8926 31.2812 59.9048 30.2733 58.7231 30.2541C57.5514 30.2352 56.5366 31.2193 56.5096 32.4008C56.4826 33.587 57.4975 34.6227 58.6904 34.6266C59.8657 34.6303 60.8705 33.6349 60.8816 32.4561ZM62.1423 37.8075C60.3139 35.4102 56.787 35.6509 55.271 37.8079C56.8888 39.3563 60.35 39.3669 62.1423 37.8075Z" fill="#009247"/>
<path fill-rule="evenodd" clip-rule="evenodd" d="M51.383 45.5952C51.383 46.0748 51.383 46.5238 51.383 46.9954C46.5316 46.9954 41.7014 46.9954 36.8496 46.9954C36.8496 46.5245 36.8496 46.0756 36.8496 45.5952C41.6846 45.5952 46.5147 45.5952 51.383 45.5952Z" fill="#009247"/>
<path fill-rule="evenodd" clip-rule="evenodd" d="M36.8398 49.9049C36.8398 49.4315 36.8398 48.9934 36.8398 48.5176C41.186 48.5176 45.53 48.5176 49.9102 48.5176C49.9102 48.9549 49.9102 49.4148 49.9102 49.9049C45.5725 49.9049 41.2283 49.9049 36.8398 49.9049Z" fill="#009247"/>
<path fill-rule="evenodd" clip-rule="evenodd" d="M51.3928 42.6768C51.3928 43.152 51.3928 43.5901 51.3928 44.0653C47.5315 44.0653 43.6732 44.0653 39.7793 44.0653C39.7793 43.6263 39.7793 43.1666 39.7793 42.6768C43.6326 42.6768 47.4909 42.6768 51.3928 42.6768Z" fill="#009247"/>
<path fill-rule="evenodd" clip-rule="evenodd" d="M38.2632 42.6709C38.2632 43.146 38.2632 43.5932 38.2632 44.0715C37.7979 44.0715 37.3401 44.0715 36.8545 44.0715C36.8545 43.61 36.8545 43.1522 36.8545 42.6709C37.3171 42.6709 37.7644 42.6709 38.2632 42.6709Z" fill="#009247"/>
<path fill-rule="evenodd" clip-rule="evenodd" d="M35.3467 61.6348C35.3467 62.1126 35.3467 62.5597 35.3467 63.0315C34.8809 63.0315 34.4333 63.0315 33.9487 63.0315C33.9487 62.585 33.9487 62.1268 33.9487 61.6348C34.392 61.6348 34.85 61.6348 35.3467 61.6348Z" fill="#009247"/>
<path fill-rule="evenodd" clip-rule="evenodd" d="M38.2595 63.037C37.7845 63.037 37.3372 63.037 36.8589 63.037C36.8589 62.5719 36.8589 62.1137 36.8589 61.6284C37.3205 61.6284 37.7784 61.6284 38.2595 61.6284C38.2595 62.091 38.2595 62.5382 38.2595 63.037Z" fill="#009247"/>
<path fill-rule="evenodd" clip-rule="evenodd" d="M39.7656 61.6196C40.2446 61.6196 40.6918 61.6196 41.1689 61.6196C41.1689 62.0888 41.1689 62.5467 41.1689 63.0308C40.7032 63.0308 40.2454 63.0308 39.7656 63.0308C39.7656 62.5642 39.7656 62.117 39.7656 61.6196Z" fill="#009247"/>
</svg>
