<svg width="79" height="108" viewBox="0 0 79 108" fill="none" xmlns="http://www.w3.org/2000/svg">
<path opacity="0.651" fill-rule="evenodd" clip-rule="evenodd" d="M0 86.7012C0 75.2663 9.2634 66.011 20.6902 66.011C32.1169 66.011 41.3804 75.2663 41.3804 86.7012C41.3804 98.1361 32.1169 107.391 20.6902 107.391C9.2634 107.391 0 98.1361 0 86.7012Z" fill="#86C63A"/>
<path fill-rule="evenodd" clip-rule="evenodd" d="M42.8833 42.7186C42.6459 42.5397 42.4376 42.3282 42.2652 42.1005C43.1371 41.58 43.8967 40.8805 44.5034 40.0672C45.1101 40.8805 45.8714 41.58 46.7416 42.1005C45.847 43.3367 44.1195 43.6132 42.8833 42.7186ZM56.9956 33.87C56.1335 33.87 55.4341 34.5694 55.4341 35.4315C55.4341 38.0178 53.3374 40.116 50.7495 40.116C48.1616 40.116 46.0649 38.0178 46.0649 35.4315V35.4152C46.7237 35.1875 47.3239 34.8134 47.82 34.3254C48.43 33.7073 48.43 32.7313 47.82 32.1132C47.2084 31.5114 46.2211 31.5114 45.6111 32.1132C44.993 32.7151 44.0203 32.7151 43.4022 32.1132C42.7923 31.5114 41.8033 31.5114 41.1933 32.1132C40.5833 32.7313 40.5833 33.7073 41.1933 34.3254H41.1901C41.6862 34.8134 42.2864 35.1875 42.9452 35.4152L42.9419 35.4315C42.9419 38.0178 40.8452 40.116 38.2573 40.116C35.6694 40.116 33.5728 38.0178 33.5728 35.4315C33.5728 34.5694 32.8733 33.87 32.0112 33.87C31.1492 33.87 30.4497 34.5694 30.4497 35.4315C30.4546 39.7419 33.9469 43.2391 38.2573 43.2391C38.5908 43.2228 38.9242 43.1903 39.2528 43.1415C40.7232 46.0368 44.2643 47.1917 47.1629 45.7278C48.2803 45.1585 49.188 44.2476 49.754 43.1415C50.0826 43.1903 50.4161 43.2228 50.7495 43.2391C55.06 43.2391 58.5522 39.7419 58.5571 35.4315C58.5571 34.5694 57.8577 33.87 56.9956 33.87Z" fill="#392413"/>
<path fill-rule="evenodd" clip-rule="evenodd" d="M35.1343 19.751C31.6843 19.751 28.8882 22.5487 28.8882 25.9971C28.8882 26.8592 29.5876 27.5586 30.4497 27.5586C31.3118 27.5586 32.0112 26.8592 32.0112 25.9971C32.0112 24.2729 33.4101 22.874 35.1343 22.874C36.8585 22.874 38.2573 24.2729 38.2573 25.9971C38.2573 26.8592 38.9568 27.5586 39.8188 27.5586C40.6809 27.5586 41.3804 26.8592 41.3804 25.9971C41.3804 22.5487 38.5843 19.751 35.1343 19.751Z" fill="#392413"/>
<path fill-rule="evenodd" clip-rule="evenodd" d="M53.8726 19.751C50.4226 19.751 47.6265 22.5487 47.6265 25.9971C47.6265 26.8592 48.3259 27.5586 49.188 27.5586C50.0501 27.5586 50.7495 26.8592 50.7495 25.9971C50.7495 24.2729 52.1484 22.874 53.8726 22.874C55.5967 22.874 56.9956 24.2729 56.9956 25.9971C56.9956 26.8592 57.695 27.5586 58.5571 27.5586C59.4192 27.5586 60.1186 26.8592 60.1186 25.9971C60.1186 22.5487 57.3225 19.751 53.8726 19.751Z" fill="#392413"/>
<path fill-rule="evenodd" clip-rule="evenodd" d="M72.6108 90.0844H68.6257C69.1787 89.141 69.4878 88.0675 69.4878 86.9614C69.4878 84.1149 67.5521 81.6425 64.8032 80.9268V61.0661L66.934 63.197C69.5854 65.832 71.0656 69.4105 71.0493 73.1354V82.2768C71.0493 83.1389 71.7487 83.8383 72.6108 83.8383C74.335 83.8383 75.7339 85.2372 75.7339 86.9614C75.7339 88.6856 74.335 90.0844 72.6108 90.0844ZM63.2417 90.0844H58.5571C55.9692 90.0844 53.8725 88.0024 53.8725 85.3999V66.6616H50.7495V85.3999C50.7544 87.1078 51.3188 88.7506 52.3517 90.0844H36.6551C37.688 88.7506 38.2524 87.1078 38.2573 85.3999V66.6616H35.1343V85.3999C35.1343 88.0024 33.0376 90.0844 30.4497 90.0844H25.7651C24.0409 90.0844 22.6421 88.6856 22.6421 86.9614C22.6421 85.2372 24.0409 83.8383 25.7651 83.8383C26.6272 83.8383 27.3266 83.1389 27.3266 82.2768V47.7118C37.1594 56.3328 51.8474 56.3328 61.6801 47.7118V82.2768C61.6801 83.1389 62.3796 83.8383 63.2417 83.8383C64.9659 83.8383 66.3647 85.2372 66.3647 86.9614C66.3647 88.6856 64.9659 90.0844 63.2417 90.0844ZM20.3876 90.0844H16.396C14.6718 90.0844 13.2729 88.6856 13.2729 86.9614C13.2729 85.2372 14.6718 83.8383 16.396 83.8383C17.2581 83.8383 17.9575 83.1389 17.9575 82.2768V73.1354C17.9477 69.4105 19.4296 65.832 22.0744 63.197L24.2036 61.0661V80.9268C21.4482 81.6425 19.5223 84.1149 19.519 86.9614C19.5255 88.0675 19.8248 89.141 20.3876 90.0844ZM13.2729 48.8667V46.3618C13.2729 45.4997 13.9724 44.8003 14.8345 44.8003C15.6966 44.8003 16.396 45.4997 16.396 46.3618C16.409 51.3066 17.8762 56.1213 20.6121 60.2366L19.8574 60.9848C19.0506 61.7981 18.3235 62.6765 17.6891 63.6361C14.815 59.2444 13.2811 54.1206 13.2729 48.8667ZM22.6421 30.7466C22.6421 21.5726 29.2395 13.8138 38.2573 11.3089V15.1313C38.2573 15.9934 38.9567 16.6929 39.8188 16.6929C40.6809 16.6929 41.3804 15.9934 41.3804 15.1313V10.6908C43.451 10.3817 45.5558 10.3817 47.6264 10.6908V15.1313C47.6264 15.9934 48.3259 16.6929 49.188 16.6929C50.0501 16.6929 50.7495 15.9934 50.7495 15.1313V11.3089C59.7608 13.8138 66.3647 21.5726 66.3647 30.7466C66.3484 35.3335 64.6893 39.7741 61.6964 43.2387H61.6801V43.2713C53.3634 52.7543 38.9307 53.6977 29.4445 45.3858C28.693 44.7352 27.9854 44.0195 27.3266 43.2713V43.2387H27.3071C24.3175 39.7741 22.6632 35.3335 22.6421 30.7466ZM22.6421 5.50194C22.6421 4.63985 23.3415 3.94043 24.2036 3.94043C24.6184 3.94043 25.0153 4.10309 25.3081 4.39587L31.629 10.7233C27.9236 12.7891 24.825 15.7982 22.6421 19.4418V5.50194ZM63.6971 4.39587C64.3152 3.79404 65.2912 3.79404 65.9093 4.39587C66.2021 4.68866 66.3647 5.07903 66.3647 5.50194V19.4418C64.1851 15.7982 61.0783 12.7891 57.3778 10.7233L63.6971 4.39587ZM74.1723 80.9268V73.1354C74.1886 68.581 72.3668 64.2054 69.1462 60.9848L64.8032 56.6581V44.3611C67.8286 40.4573 69.4715 35.6751 69.4878 30.7466V5.50194C69.4878 2.91567 67.3895 0.817389 64.8032 0.817389C63.567 0.817389 62.3633 1.30536 61.485 2.18372L54.4158 9.25935C48.0575 6.68934 40.9428 6.68934 34.5845 9.25935L27.5153 2.18372C25.6854 0.361939 22.7202 0.361939 20.8902 2.18372C20.0119 3.06207 19.519 4.26573 19.519 5.50194V30.7466C19.5353 35.6751 21.183 40.4573 24.2036 44.3611V56.6581L22.8666 57.9919C20.6886 54.511 19.5288 50.4771 19.519 46.3618C19.519 43.7755 17.4224 41.6772 14.8345 41.6772C12.2466 41.6772 10.1499 43.7755 10.1499 46.3618V48.8667C10.1662 55.308 12.2417 61.5704 16.0707 66.7429C15.2525 68.7762 14.8328 70.9558 14.8345 73.1354V80.9268C11.4967 81.7889 9.49438 85.2047 10.363 88.5392C11.0787 91.2881 13.556 93.2075 16.396 93.2075H72.6108C76.0592 93.2075 78.8569 90.426 78.8569 86.9614C78.8569 84.1149 76.9375 81.6262 74.1723 80.9268Z" fill="#392413"/>
</svg>
