<svg width="97" height="80" viewBox="0 0 97 80" fill="none" xmlns="http://www.w3.org/2000/svg">
<path opacity="0.651" fill-rule="evenodd" clip-rule="evenodd" d="M0.267578 60.128C0.267578 50.9087 7.7285 43.4478 16.9465 43.4478C26.1644 43.4478 33.6267 50.9074 33.6267 60.128C33.6267 69.3446 26.1657 76.8055 16.9465 76.8055C7.72981 76.8055 0.267578 69.3459 0.267578 60.128Z" fill="#86C63A"/>
<path fill-rule="evenodd" clip-rule="evenodd" d="M92.9078 67.7188L75.7044 75.8497C72.387 77.4219 68.5188 77.8166 64.9391 76.9249L43.0022 71.4414L36.7083 71.4033V61.8169H42.8973L51.2368 59.0384C54.7509 57.8701 58.619 57.9501 62.0675 59.2862L72.4001 63.258C73.3048 63.6015 73.9211 64.48 73.9211 65.4503C73.9211 65.8961 73.79 66.3 73.5671 66.6567L73.5146 66.6829L73.5277 66.734C73.1081 67.3765 72.387 67.8093 71.5609 67.8093H70.9971C70.6955 67.8093 70.407 67.745 70.1172 67.6401L58.7632 63.0888L57.8585 65.3166L69.24 69.8679C69.8051 70.0908 70.3952 70.2088 70.9984 70.2088H71.5622C72.9259 70.2088 74.1571 69.6069 75.0238 68.6878L90.5226 63.1557C90.798 63.0639 91.0733 63.0101 91.3618 63.0101H91.847C93.2107 63.0101 94.3265 64.1247 94.3265 65.4897C94.3239 66.4364 93.7719 67.3149 92.9078 67.7188ZM34.2943 76.2037H31.8948V66.6055H29.4952V76.2037H24.6961V57.0191H29.4952V59.4186H31.8948V57.0191H34.2943V76.2037ZM91.8443 60.6132H91.3592C90.7954 60.6132 90.2446 60.705 89.7201 60.903L76.2944 65.689C76.2944 65.609 76.3207 65.5303 76.3207 65.453C76.3207 63.4992 75.0881 61.7133 73.2655 61.0197L62.933 57.048C58.9599 55.5269 54.5148 55.422 50.4762 56.7713L42.5039 59.42H36.7083V54.6208H22.2979V78.6046H36.7083V73.8055H42.5564L64.3622 79.2471C65.8308 79.613 67.34 79.7978 68.8335 79.7978C71.5478 79.7978 74.2751 79.1803 76.7402 78.0277L93.9292 69.8836C95.6207 69.0851 96.7221 67.3529 96.7221 65.491C96.7221 62.8016 94.5324 60.6132 91.8443 60.6132Z" fill="#392413"/>
<path fill-rule="evenodd" clip-rule="evenodd" d="M92.1192 29.7599L80.1345 25.7462V22.2715L92.1192 26.2721V29.7599ZM89.7197 44.6424H87.3201V35.0311H80.1358V28.2782L89.721 31.4921V44.6424H89.7197ZM80.1345 37.4307H84.9192V44.6424H80.1345V37.4307ZM70.5363 44.6424V32.6315H58.5516V44.6424H51.353V15.3364L64.544 8.71334L77.7363 15.3364V44.6424H70.5363ZM68.1368 44.6424H60.9525V35.0311H68.1368V44.6424ZM44.1687 44.6424V37.4307H48.9534V44.6424H44.1687ZM39.3696 31.4921L48.9547 28.2782V35.0311H41.7705V44.6424H39.3709V31.4921H39.3696ZM36.9688 26.2721L48.9534 22.2715V25.7462L36.9688 29.7599V26.2721ZM46.5539 11.7305L64.544 2.70787L82.5354 11.7305V15.0466L64.544 6.02661L46.5539 15.0466V11.7305ZM80.1345 19.729V16.5309L84.9192 18.9436V10.2357L64.5427 0.0224609L44.1674 10.2357V18.9436L48.9521 16.5309V19.729L34.5679 24.5412V33.0905L36.9674 32.2919V47.0564H92.1179V32.2919L94.5175 33.0905V24.5412L80.1345 19.729Z" fill="#392413"/>
<path d="M31.8959 61.8599H29.5356V64.2188H31.8959V61.8599Z" fill="#392413"/>
<path d="M68.9499 18.3511H59.8237V27.4786H68.9499V18.3511Z" stroke="#392413" stroke-width="1.8" stroke-miterlimit="10"/>
</svg>
