<svg width="93" height="101" viewBox="0 0 93 101" fill="none" xmlns="http://www.w3.org/2000/svg">
<path opacity="0.651" d="M64.7723 100.721C76.1452 100.721 85.3649 91.5009 85.3649 80.128C85.3649 68.755 76.1452 59.5354 64.7723 59.5354C53.3993 59.5354 44.1797 68.755 44.1797 80.128C44.1797 91.5009 53.3993 100.721 64.7723 100.721Z" fill="#86C63A"/>
<path fill-rule="evenodd" clip-rule="evenodd" d="M34.8129 42.7492C35.2667 42.7492 35.7237 42.554 36.0491 42.2287C36.3744 41.9033 36.5679 41.4479 36.5679 40.9924C36.5679 40.537 36.3744 40.0816 36.0491 39.7562C35.7237 39.4147 35.2683 39.2357 34.8129 39.2357C34.3574 39.2357 33.9004 39.4147 33.575 39.7562C33.2335 40.0816 33.0562 40.5207 33.0562 40.9924C33.0562 41.4479 33.2335 41.9033 33.575 42.2287C33.9004 42.554 34.3558 42.7492 34.8129 42.7492Z" fill="#392413"/>
<path fill-rule="evenodd" clip-rule="evenodd" d="M74.5809 42.2452C74.5809 43.5302 73.5253 44.5875 72.224 44.5875H62.105L51.2069 39.9029L51.8087 38.1625C52.5244 36.1455 53.0465 34.1286 53.5003 32.258C54.0371 30.1272 55.9402 28.647 58.1377 28.647H59.6342C62.6759 28.647 65.4086 30.4362 66.6285 33.2177L68.4015 37.3004C68.5658 37.6908 68.8732 38.0161 69.2636 38.195L73.2487 40.1307C74.062 40.521 74.5809 41.3506 74.5809 42.2452ZM55.4685 18.2043C56.9829 20.1725 57.9263 22.5635 58.1524 25.0522H58.1361C56.085 25.0522 54.1998 25.7679 52.7358 27.0041V26.2071C52.7358 23.3118 53.7118 20.4815 55.4685 18.2043ZM66.3829 21.7665L66.3666 27.2969C65.3907 26.5649 64.3009 25.9794 63.1297 25.6053C63.943 24.1088 65.0491 22.7913 66.3829 21.7665ZM48.1489 77.7699C47.9065 78.4693 47.2542 78.941 46.5223 78.941C45.9855 78.941 45.4975 78.697 45.1722 78.2904C44.8485 77.8837 44.7184 77.347 44.8485 76.8427L47.2884 66.3838C48.8011 66.4814 50.2325 66.9368 51.485 67.6525L48.1489 77.7699ZM30.4044 76.8427C30.5329 77.347 30.4044 77.8837 30.0791 78.2904C29.7538 78.697 29.2658 78.941 28.7291 78.941C27.9971 78.941 27.3448 78.4693 27.1025 77.7699L23.4589 66.7416C23.9957 66.4976 24.5975 66.3675 25.2156 66.3675H25.2303H27.9646L30.4044 76.8427ZM91.743 0.669691C90.8956 0.132918 89.7911 0.393157 89.2543 1.23898L69.9776 31.9001L69.9614 31.8513C69.9614 31.7538 69.9776 31.6724 69.9776 31.5748L69.9955 18.5947C69.9955 17.9766 69.6865 17.4073 69.1644 17.0819C68.6601 16.7404 68.0095 16.6916 67.4565 16.9518C64.9694 18.0579 62.837 19.7658 61.2445 21.8966C60.4638 19.0013 58.9022 16.3174 56.7226 14.2029C56.0232 13.5197 54.9171 13.5197 54.2177 14.2029C50.9808 17.3422 49.1264 21.7177 49.1264 26.2071V34.4214C49.1264 34.4864 49.1427 34.5677 49.1427 34.6491C48.915 35.4136 48.6873 36.1943 48.4108 36.9751L47.6625 39.1059H41.3205C40.3282 39.1059 39.5149 39.9029 39.5149 40.8952C39.5149 41.8874 40.3282 42.7007 41.3205 42.7007H48.575L60.6752 47.8895V48.654C60.6427 56.12 61.4072 63.2933 62.9687 69.9785L64.5628 76.8264C64.675 77.3307 64.5628 77.8675 64.2195 78.2904C63.8959 78.697 63.4063 78.941 62.8711 78.941C62.1391 78.941 61.4722 78.4693 61.2445 77.7699L59.1462 71.6376C57.3407 66.3187 52.3145 62.7565 46.6378 62.7565C46.6215 62.7565 46.589 62.7565 46.5727 62.7565H25.2303C25.214 62.7565 25.214 62.7565 25.1977 62.7565C21.8144 62.7565 18.8378 64.8873 17.7968 68.0592L14.5908 77.7699C14.3484 78.4693 13.6962 78.941 12.9479 78.941C12.4274 78.941 11.9394 78.697 11.6141 78.2904C11.2904 77.8837 11.1603 77.347 11.2725 76.8427L11.4677 76.0945C13.2732 68.5471 14.054 60.3329 13.7937 51.6469C13.7937 51.533 13.7775 51.4029 13.7775 51.2891V50.0854C13.7775 46.0189 17.0957 42.7007 21.1784 42.7007H26.8569C27.8653 42.7007 28.6624 41.8874 28.6624 40.8952C28.6624 39.9029 27.8653 39.1059 26.8569 39.1059H21.1801C18.301 39.1059 15.6659 40.212 13.714 42.0338C12.0549 42.1802 6.44319 42.2127 3.69426 36.3733C3.27135 35.4786 2.1978 35.0883 1.30318 35.5112C0.392287 35.9341 0.0181742 37.0076 0.441087 37.9185C2.71831 42.7983 6.52454 44.6038 9.306 45.2707C9.95664 45.4171 10.5747 45.5309 11.144 45.5797C10.5259 46.9623 10.1843 48.4913 10.1843 50.0854V51.2891C10.1843 51.4517 10.1843 51.6144 10.1843 51.7608C10.4446 60.1214 9.69638 68.0266 7.95593 75.2487L7.77862 76.0132C7.4045 77.6072 7.77864 79.2501 8.78712 80.5351C9.81187 81.8038 11.3246 82.5358 12.9512 82.5358C15.2609 82.5358 17.2942 81.0718 18.0099 78.8922L20.8564 70.3201L23.685 78.8922C24.4007 81.0718 26.4339 82.5358 28.7291 82.5358C30.3719 82.5358 31.883 81.8038 32.9078 80.5351C33.9162 79.2501 34.292 77.6072 33.9162 76.0132L31.6716 66.3675H43.5782L41.3335 76.0132C40.9593 77.6072 41.3335 79.2501 42.342 80.5351C43.3667 81.8038 44.8794 82.5358 46.5207 82.5358C48.8142 82.5358 50.8474 81.0718 51.5647 78.8922L54.4112 70.2713C54.9805 71.0358 55.4197 71.8816 55.7434 72.8088L57.8254 78.9248C58.5574 81.0881 60.5906 82.5358 62.8695 82.5358C64.5123 82.5358 66.0234 81.8038 67.0482 80.5188C68.0729 79.2501 68.4324 77.591 68.0729 75.9969L66.4805 69.1652C64.984 62.7565 64.2521 55.8598 64.2683 48.6865V48.1985H72.224C75.5097 48.1985 78.1936 45.5309 78.1936 42.2452C78.1936 39.968 76.8597 37.8697 74.8265 36.8775L71.98 35.5112L92.3123 3.15837C92.8475 2.31254 92.5872 1.1902 91.743 0.669691Z" fill="#392413"/>
</svg>
