<svg width="93" height="92" viewBox="0 0 93 92" fill="none" xmlns="http://www.w3.org/2000/svg">
<rect x="8.5" y="7.5" width="84" height="84" rx="22.5" stroke="#009247" stroke-dasharray="2 2"/>
<rect width="85" height="85" rx="23" fill="#8BC53F" fill-opacity="0.33"/>
<path fill-rule="evenodd" clip-rule="evenodd" d="M35.3144 60.4116C35.4308 60.4908 35.5252 60.5615 35.6254 60.6224C36.3762 61.0776 36.4406 61.3334 35.9928 62.1101C34.9834 63.8605 33.9731 65.6104 32.9632 67.3601C32.8435 67.5675 32.7315 67.7802 32.6012 67.9807C32.3377 68.3857 31.9735 68.4983 31.5592 68.2609C29.2874 66.9574 27.0196 65.6464 24.7565 64.3279C24.3625 64.0983 24.2571 63.7185 24.4829 63.3237C25.664 61.2581 26.8541 59.1977 28.0523 57.142C28.2951 56.7253 28.6621 56.6432 29.0931 56.8592C29.2774 56.9517 29.4548 57.0582 29.6771 57.1816C29.9828 56.6561 30.2742 56.155 30.5599 55.6641C29.9577 54.9839 29.3259 54.3424 28.7766 53.6367C26.219 50.3509 25.0558 46.6208 25.2703 42.458C25.6235 35.598 30.4016 29.5026 37.1914 27.5201C46.2846 24.8651 55.9466 30.5788 57.9265 39.8393C59.8672 48.9158 54.2342 57.6738 45.1825 59.6139C42.2829 60.2353 39.4075 60.0727 36.5925 59.1166C36.2432 58.9981 36.0535 59.0314 35.8958 59.3809C35.737 59.7323 35.5176 60.0567 35.3144 60.4116ZM56.8921 43.4453C56.9466 35.1771 50.2305 28.3895 41.9342 28.3279C33.6094 28.266 26.8046 34.9398 26.6919 43.1698C26.5762 51.6319 33.422 58.5221 41.8364 58.5252C50.0753 58.5283 56.8371 51.8102 56.8921 43.4453ZM31.6895 66.656C32.6565 64.9807 33.6014 63.3442 34.5576 61.6875C32.6768 60.6019 30.8325 59.5375 28.9634 58.4587C27.9948 60.1381 27.0513 61.7738 26.0957 63.4305C27.9822 64.5182 29.8159 65.5757 31.6895 66.656ZM31.6877 56.6182C31.4438 57.0405 31.1987 57.4652 30.9378 57.917C31.973 58.5142 32.9903 59.1012 34.0376 59.7052C34.2921 59.26 34.5249 58.853 34.7435 58.4707C33.7102 57.8444 32.7177 57.2426 31.6877 56.6182Z" fill="#009247"/>
<path fill-rule="evenodd" clip-rule="evenodd" d="M61.7665 55.6722C61.3113 55.6722 60.8662 55.6722 60.4226 55.6722C60.0834 54.0475 61.7495 51.9149 63.69 51.4793C66.0252 50.9551 68.3655 52.4046 68.8851 54.6971C69.4344 57.1203 67.9728 59.363 65.4061 59.9634C65.4061 61.1523 65.4061 62.3559 65.4061 63.5818C64.9082 63.5818 64.4647 63.5818 63.9886 63.5818C63.9781 63.4714 63.9581 63.3577 63.9578 63.244C63.9555 61.9703 63.9543 60.6966 63.9573 59.423C63.9588 58.8401 64.1767 58.6117 64.7538 58.5696C66.3172 58.4553 67.4706 57.317 67.5494 55.8108C67.6255 54.3571 66.5632 53.103 65.0354 52.8426C63.6555 52.6076 62.1807 53.637 61.8812 55.0467C61.8383 55.2489 61.8063 55.4535 61.7665 55.6722Z" fill="#009247"/>
<path fill-rule="evenodd" clip-rule="evenodd" d="M53.7772 27.8554C52.9226 27.0009 52.0977 26.1761 51.2573 25.3358C51.5776 25.0452 51.9159 24.7381 52.2309 24.4521C53.0133 25.2457 53.8474 26.0913 54.6918 26.9477C54.4214 27.2161 54.0931 27.5417 53.7772 27.8554Z" fill="#009247"/>
<path fill-rule="evenodd" clip-rule="evenodd" d="M62.4692 25.4561C62.7304 25.7187 63.0529 26.0433 63.3498 26.3415C62.5247 27.163 61.692 27.9922 60.8817 28.7992C60.6119 28.5185 60.2961 28.1901 60.0244 27.9074C60.7942 27.1356 61.6308 26.2968 62.4692 25.4561Z" fill="#009247"/>
<path fill-rule="evenodd" clip-rule="evenodd" d="M64.3471 36.6123C64.0793 36.878 63.7553 37.1992 63.4608 37.4913C62.6252 36.6574 61.7929 35.8269 60.9409 34.9769C61.2333 34.711 61.5725 34.4022 61.8761 34.126C62.6672 34.9219 63.5022 35.762 64.3471 36.6123Z" fill="#009247"/>
<path fill-rule="evenodd" clip-rule="evenodd" d="M62.4443 30.7383C63.4463 30.7383 64.4245 30.7383 65.4386 30.7383C65.4386 31.207 65.4386 31.6604 65.4386 32.1535C64.4594 32.1535 63.47 32.1535 62.4443 32.1535C62.4443 31.7016 62.4443 31.2483 62.4443 30.7383Z" fill="#009247"/>
<path fill-rule="evenodd" clip-rule="evenodd" d="M58.0034 26.3478C57.5236 26.3478 57.081 26.3478 56.6128 26.3478C56.6128 25.3473 56.6128 24.3672 56.6128 23.3511C57.0602 23.3511 57.5138 23.3511 58.0034 23.3511C58.0034 24.332 58.0034 25.3224 58.0034 26.3478Z" fill="#009247"/>
<path fill-rule="evenodd" clip-rule="evenodd" d="M64.6904 66.4827C64.2872 66.4911 63.9713 66.1941 63.9575 65.7937C63.9432 65.3714 64.2588 65.0462 64.6795 65.0493C65.0818 65.0522 65.3876 65.3583 65.3906 65.7603C65.3933 66.1622 65.0908 66.4744 64.6904 66.4827Z" fill="#009247"/>
<path fill-rule="evenodd" clip-rule="evenodd" d="M54.7835 43.518C54.787 50.6681 48.9865 56.4892 41.8598 56.4874C34.684 56.4855 28.8797 50.6639 28.8813 43.4703C28.8831 36.3675 34.6976 30.5642 41.8156 30.561C48.9952 30.558 54.78 36.3379 54.7835 43.518ZM52.0653 48.6479C54.2071 44.7424 53.8036 38.838 49.5761 34.9819C45.383 31.1572 38.9007 31.0011 34.5803 34.5579C30.0979 38.2481 29.534 44.0928 31.1928 47.7109C31.5721 47.1305 31.9566 46.5789 32.298 46.0014C32.4268 45.7834 32.5153 45.507 32.5199 45.2552C32.5424 43.9967 32.5179 42.7375 32.5361 41.4788C32.5468 40.7168 33.1156 40.4281 33.7647 40.828C33.7901 40.8436 33.8193 40.8549 33.8413 40.8743C34.5909 41.5371 35.4613 41.7895 36.4492 41.6446C36.464 41.6425 36.4795 41.6427 36.4942 41.6446C37.5488 41.7745 38.4896 41.5538 39.3292 40.8535C39.5196 40.6948 39.9583 40.6578 40.1824 40.7683C40.3821 40.8665 40.5393 41.2431 40.5486 41.5028C40.5878 42.6104 40.5534 43.7203 40.5692 44.8292C40.5809 45.6545 40.4772 46.4542 40.0069 47.1458C39.6471 47.6744 39.6663 48.1399 40.0195 48.6511C40.4969 49.3419 40.6118 50.1173 40.5775 50.953C40.5296 52.1199 40.5652 53.2904 40.5652 54.4594C40.5652 54.6178 40.5653 54.7764 40.5653 54.9541C40.9487 54.9541 41.267 54.9541 41.6205 54.9541C41.6205 54.7559 41.6205 54.5931 41.6205 54.4305C41.6205 52.9619 41.6393 51.4928 41.6123 50.0246C41.6002 49.3659 41.7218 48.7628 41.9774 48.1554C42.3156 47.3522 42.7343 46.5726 42.6602 45.6334C42.6285 45.2301 42.5168 45.012 42.1696 44.8508C41.8585 44.7063 41.5649 44.5225 41.2699 44.3454C40.9406 44.1476 40.8053 43.8611 40.8742 43.4713C41.0199 42.6467 41.1628 41.8214 41.2869 40.9936C41.3741 40.4142 41.6872 40.0658 42.2326 39.8591C43.4898 39.3825 44.7645 39.06 46.1268 39.1889C46.5576 39.2298 47.0001 39.2359 47.4292 39.1877C48.7417 39.0407 49.941 39.4497 51.1381 39.886C51.6294 40.0652 51.9138 40.4141 51.9957 40.9406C52.1269 41.7827 52.276 42.6219 52.4198 43.4619C52.4887 43.8645 52.3491 44.164 51.9923 44.3647C51.6401 44.5628 51.2882 44.7615 50.9406 44.9676C50.8421 45.026 50.6847 45.109 50.682 45.185C50.667 45.6306 50.5538 46.142 50.7287 46.5103C51.0824 47.2555 51.5992 47.9227 52.0653 48.6479ZM51.2677 50.0963C50.9302 49.5733 50.653 49.0336 50.274 48.5787C49.3683 47.4917 49.0196 46.269 49.2094 44.8788C49.2135 44.8495 49.2115 44.8189 49.21 44.7891C49.1941 44.438 49.3546 44.1883 49.6536 44.019C49.9919 43.8275 50.344 43.6562 50.6625 43.436C50.771 43.361 50.8596 43.1586 50.8469 43.0246C50.8012 42.5344 50.7334 42.0428 50.6211 41.564C50.5827 41.4001 50.4185 41.2033 50.2632 41.1392C49.3861 40.777 48.4789 40.5821 47.5138 40.6496C46.8131 40.6986 46.1056 40.6815 45.4026 40.6525C44.7636 40.6263 44.1686 40.7663 43.5576 40.934C42.9397 41.1036 42.6481 41.3856 42.5616 42.0601C42.4033 43.299 42.3481 43.292 43.423 43.8975C43.527 43.9562 43.6645 43.9936 43.7258 44.0825C43.8626 44.2812 44.0465 44.5007 44.061 44.7216C44.1441 45.9811 44.133 47.2344 43.4646 48.3764C43.3975 48.491 43.347 48.6217 43.3186 48.7514C43.2308 49.1536 43.0963 49.5582 43.0888 49.9637C43.0615 51.461 43.078 52.9591 43.078 54.457C43.078 54.6134 43.078 54.7698 43.078 54.958C46.548 54.4906 49.2458 52.8788 51.2677 50.0963ZM33.9921 42.9023C33.9921 43.7416 34.0169 44.655 33.9789 45.566C33.9655 45.89 33.859 46.2434 33.692 46.5219C33.2002 47.3423 32.6713 48.1421 32.126 48.9284C31.9301 49.2107 31.9531 49.4086 32.132 49.6809C33.7333 52.1173 35.9237 53.7539 38.7211 54.5759C38.8399 54.6108 38.9679 54.6144 39.1212 54.6371C39.1212 53.7198 39.0658 52.8482 39.1341 51.9863C39.2358 50.7049 39.0082 49.5281 38.2965 48.4519C38.0467 48.0741 38.0798 47.7078 38.296 47.3145C38.5686 46.8182 38.9493 46.3156 39.0122 45.7838C39.1277 44.8036 39.0451 43.8001 39.0451 42.9082C37.3969 43.2088 35.7241 43.1981 33.9921 42.9023Z" fill="#009247"/>
<path fill-rule="evenodd" clip-rule="evenodd" d="M46.6292 44.7212C47.1041 44.7216 47.342 44.9046 47.3375 45.2657C47.3329 45.6217 47.0921 45.7986 46.6147 45.797C46.1539 45.7956 45.8899 45.5953 45.8951 45.2514C45.9005 44.9094 46.1616 44.7207 46.6292 44.7212Z" fill="#009247"/>
<path fill-rule="evenodd" clip-rule="evenodd" d="M45.6099 43.2848C45.5713 43.6117 45.4038 43.8172 45.0634 43.8129C44.7274 43.8085 44.5328 43.6142 44.5352 43.2773C44.5373 42.9407 44.7333 42.7485 45.07 42.7485C45.4107 42.7485 45.5753 42.9561 45.6099 43.2848Z" fill="#009247"/>
<path fill-rule="evenodd" clip-rule="evenodd" d="M48.3107 42.7373C48.6373 42.777 48.8418 42.9452 48.8367 43.2855C48.8315 43.6223 48.6354 43.8154 48.2993 43.8122C47.9635 43.8089 47.7713 43.6123 47.7725 43.2752C47.7738 42.9344 47.9816 42.7708 48.3107 42.7373Z" fill="#009247"/>
<path fill-rule="evenodd" clip-rule="evenodd" d="M35.3988 44.3574C35.7132 44.4149 35.9085 44.5959 35.8847 44.9341C35.8613 45.2695 35.6522 45.4521 35.3179 45.4304C34.983 45.4085 34.8011 45.1989 34.8214 44.8638C34.8419 44.5251 35.0585 44.3705 35.3988 44.3574Z" fill="#009247"/>
<path fill-rule="evenodd" clip-rule="evenodd" d="M37.7375 45.441C37.4168 45.4078 37.2182 45.2299 37.2232 44.8945C37.2282 44.5622 37.4194 44.3648 37.7597 44.3672C38.1024 44.3696 38.2938 44.5862 38.292 44.905C38.2898 45.226 38.0864 45.4186 37.7375 45.441Z" fill="#009247"/>
</svg>
