<svg width="93" height="92" viewBox="0 0 93 92" fill="none" xmlns="http://www.w3.org/2000/svg">
<rect x="8.5" y="7.5" width="84" height="84" rx="22.5" stroke="#009247" stroke-dasharray="2 2"/>
<rect width="85" height="85" rx="23" fill="#8BC53F" fill-opacity="0.33"/>
<path fill-rule="evenodd" clip-rule="evenodd" d="M21.8896 51.1983C21.9458 51.0657 22.0042 50.9338 22.0577 50.8001C22.4261 49.8805 23.285 49.268 24.2713 49.2666C28.7055 49.2603 33.1399 49.2576 37.5743 49.2681C38.8832 49.2711 39.9287 50.3505 39.9467 51.6684C39.9527 52.1071 39.9476 52.5461 39.9476 53.1197C41.1855 51.7963 42.3464 50.5553 43.5289 49.2911C42.6847 48.3848 41.8668 47.5049 41.047 46.6266C39.8547 45.3495 38.661 44.0736 37.4682 42.7968C36.8768 42.1636 36.4064 42.1695 35.8087 42.8106C34.4672 44.2498 33.1242 45.6876 31.7799 47.1241C31.3905 47.5403 31.039 47.5941 30.7141 47.2984C30.4 47.0123 30.4279 46.6154 30.7967 46.2205C32.1695 44.7502 33.5406 43.2786 34.9184 41.8129C35.9678 40.6964 37.3174 40.6945 38.3753 41.8188C40.287 43.8504 42.1878 45.8924 44.0944 47.9289C44.2027 48.0447 44.3215 48.151 44.4614 48.2871C44.9678 47.7472 45.4678 47.2154 45.9665 46.6824C47.4809 45.0633 48.9906 43.4396 50.5102 41.8253C51.5811 40.6874 52.9262 40.6941 53.9979 41.8381C56.2163 44.2061 58.4324 46.5763 60.6412 48.9532C60.8466 49.1742 61.0503 49.2765 61.3593 49.2703C62.372 49.25 63.3855 49.2614 64.3986 49.263C65.7006 49.2654 66.5053 49.8497 66.9263 51.0923C66.9396 51.1315 66.975 51.1631 67.0001 51.1981C67.0001 52.0498 67.0001 52.9014 67.0001 53.7531C66.7948 54.0775 66.5247 54.2977 66.1235 54.159C65.7225 54.0204 65.6608 53.6796 65.6762 53.2976C65.6933 52.8724 65.6805 52.4462 65.68 52.0204C65.6785 50.9864 65.279 50.5853 64.2427 50.585C60.0581 50.5842 55.8736 50.5841 51.689 50.5851C50.6738 50.5854 50.2649 50.9889 50.2647 51.9901C50.2636 55.7489 50.2636 59.5076 50.2647 63.2664C50.2649 64.2772 50.6677 64.6794 51.6774 64.6796C55.8767 64.6803 60.0758 64.6803 64.2751 64.6796C65.2763 64.6794 65.6795 64.2711 65.6798 63.259C65.6807 61.2181 65.6785 59.1772 65.6814 57.1364C65.682 56.6867 65.8932 56.3705 66.2525 56.4045C66.5103 56.4287 66.7515 56.6277 67.0001 56.7489C67.0001 59.1864 67.0001 61.6241 67.0001 64.0616C66.6953 65.049 66.0488 65.6946 65.0617 65.9999C60.3334 65.9999 55.605 65.9999 50.8767 65.9999C50.8416 65.9749 50.8098 65.9395 50.7707 65.9263C49.5287 65.5053 48.943 64.6998 48.9418 63.4027C48.9405 62.0827 48.9415 60.7627 48.9415 59.4426C48.9415 59.2582 48.9415 59.0736 48.9415 58.8913C45.9137 58.8913 42.9449 58.8913 39.9481 58.8913C39.9481 60.4733 39.9578 62.0259 39.9444 63.5784C39.9361 64.5586 39.47 65.2789 38.6092 65.7402C38.4188 65.8421 38.2123 65.9141 38.0133 65.9999C33.2849 65.9999 28.5566 65.9999 23.8282 65.9999C22.8424 65.6936 22.1929 65.0509 21.8899 64.0616C21.8897 59.774 21.8896 55.4861 21.8896 51.1983ZM30.9118 64.6801C33.0246 64.6801 35.1376 64.6812 37.2505 64.6796C38.2009 64.6789 38.6241 64.2612 38.6244 63.3171C38.6263 59.5313 38.6262 55.7458 38.6244 51.9602C38.6241 51.0081 38.2065 50.5864 37.2591 50.586C33.0334 50.5837 28.8074 50.5838 24.5817 50.5858C23.6286 50.5863 23.2105 51.0046 23.2101 51.9513C23.2088 55.7369 23.2089 59.5225 23.2101 63.3083C23.2103 64.2591 23.6277 64.6788 24.5731 64.6796C26.6859 64.6812 28.7988 64.6801 30.9118 64.6801ZM59.0509 49.2629C58.9972 49.1661 58.9878 49.1372 58.969 49.1171C56.967 46.9707 54.9669 44.8226 52.9598 42.6811C52.5007 42.1912 51.9819 42.2026 51.5136 42.7031C47.7244 46.7549 43.938 50.8091 40.1537 54.8654C40.068 54.9573 39.9612 55.0804 39.9589 55.1909C39.9419 55.9633 39.95 56.7363 39.95 57.5157C42.97 57.5157 45.94 57.5157 48.9412 57.5157C48.9412 57.3291 48.9412 57.1703 48.9412 57.0113C48.9412 55.2795 48.9392 53.5477 48.9419 51.8158C48.9441 50.3007 49.9678 49.2668 51.4738 49.2641C53.7633 49.2601 56.0528 49.2629 58.3423 49.2629C58.5591 49.2628 58.7758 49.2629 59.0509 49.2629Z" fill="#009247"/>
<path fill-rule="evenodd" clip-rule="evenodd" d="M45.4141 20.8898C45.824 21.1542 46.0639 21.5361 46.1982 21.9983C46.2593 22.2085 46.3871 22.4044 46.42 22.6169C46.5503 23.4578 47.1333 23.8283 47.8663 24.0378C48.0018 24.0765 48.1809 24.0451 48.3159 23.9885C48.8561 23.7625 49.3905 23.5216 49.9201 23.2715C50.4355 23.0281 50.8792 23.1068 51.2825 23.507C52.5936 24.808 52.6398 24.7313 51.8528 26.3876C51.8339 26.4272 51.825 26.4738 51.7986 26.5073C51.261 27.1918 51.4818 27.8671 51.8364 28.5304C51.896 28.6421 52.0295 28.7395 52.151 28.7888C52.7068 29.0143 53.2683 29.2269 53.8325 29.4313C54.3513 29.6192 54.6087 29.9812 54.6106 30.5292C54.6119 30.8814 54.6116 31.2336 54.6104 31.586C54.6085 32.1382 54.3331 32.4913 53.822 32.6803C53.2869 32.8782 52.7454 33.0636 52.2261 33.2976C52.0413 33.3809 51.8866 33.5719 51.7647 33.7462C51.3161 34.3876 51.4277 35.0149 51.8198 35.6485C52.0032 35.9448 52.1165 36.2847 52.2587 36.6061C52.4672 37.077 52.3754 37.4923 52.0181 37.8541C51.7603 38.1153 51.501 38.375 51.2402 38.6331C50.8739 38.9958 50.4469 39.0534 49.9857 38.8549C49.4477 38.6232 48.9074 38.3939 48.3859 38.1284C48.1349 38.0005 47.9463 38.0607 47.6943 38.1226C46.9478 38.3062 46.588 38.7851 46.4152 39.4923C46.3289 39.845 46.17 40.1812 46.0298 40.5191C45.6526 41.4287 44.8419 41.1974 44.1328 41.2295C43.5591 41.2554 43.0841 41.1005 42.8575 40.5125C42.6417 39.9525 42.4525 39.381 42.2081 38.8341C42.1249 38.6482 41.9267 38.4974 41.7516 38.3718C41.1137 37.9148 40.4886 38.0408 39.8555 38.4179C39.5431 38.6038 39.1947 38.7319 38.856 38.8702C38.4232 39.0469 38.024 38.985 37.6769 38.6587C37.6662 38.6487 37.6558 38.6384 37.6453 38.628C36.2719 37.2709 36.2524 37.3908 37.0499 35.6797C37.0685 35.6397 37.0811 35.5951 37.1078 35.5613C37.6554 34.8684 37.3771 34.1966 37.0437 33.5355C36.9935 33.436 36.8607 33.3572 36.7488 33.3132C36.1906 33.0933 35.6274 32.8856 35.0643 32.6785C34.5524 32.49 34.2802 32.1341 34.2794 31.5822C34.2789 31.2153 34.2753 30.8483 34.2811 30.4815C34.2894 29.9692 34.5436 29.6259 35.0186 29.4439C35.538 29.245 36.0528 29.0312 36.5806 28.8576C36.8846 28.7578 37.0146 28.567 37.1703 28.2935C37.5254 27.6701 37.464 27.1256 37.1158 26.5404C36.9149 26.2027 36.7778 25.8263 36.6198 25.464C36.429 25.0266 36.5144 24.6336 36.8335 24.2871C36.933 24.1792 37.0394 24.078 37.1432 23.9741C38.1976 22.9202 38.1978 22.9202 39.5723 23.543C39.6788 23.5912 39.7958 23.6264 39.8885 23.6944C40.5719 24.1952 41.2492 24.0472 41.9157 23.671C42.0281 23.6075 42.1246 23.4741 42.1756 23.351C42.3605 22.9052 42.5407 22.4558 42.689 21.9969C42.8369 21.5391 43.0652 21.1535 43.4756 20.8896C44.1218 20.8898 44.7679 20.8898 45.4141 20.8898ZM37.9238 25.0996C38.1965 25.7082 38.4531 26.3148 38.7393 26.9072C38.9356 27.3134 38.9168 27.6849 38.7142 28.0823C38.542 28.42 38.3989 28.776 38.2788 29.136C38.1478 29.5285 37.906 29.7889 37.522 29.9313C36.9867 30.1298 36.4615 30.3595 35.9171 30.5279C35.6001 30.6257 35.6242 30.8309 35.6193 31.0685C35.6146 31.3011 35.6267 31.4764 35.9097 31.5678C36.4661 31.7476 37.0298 31.9318 37.5457 32.2001C37.8311 32.3486 38.0785 32.6397 38.2483 32.9232C38.4636 33.2829 38.5654 33.7083 38.7481 34.09C38.92 34.4489 38.9284 34.7877 38.7609 35.1452C38.5124 35.6759 38.2902 36.2194 38.0269 36.7422C37.9047 36.9849 37.9961 37.1168 38.163 37.2613C38.3316 37.4072 38.4387 37.6293 38.7477 37.4697C39.2676 37.2012 39.8041 36.9585 40.3513 36.7526C40.5962 36.6604 40.9107 36.5974 41.1474 36.6704C41.7177 36.8464 42.2764 37.0804 42.8072 37.354C43.0172 37.4623 43.1909 37.7152 43.2936 37.9419C43.5288 38.4611 43.7329 38.9973 43.9047 39.5409C44.0024 39.8502 44.1812 39.8903 44.4585 39.8921C44.7263 39.894 44.8863 39.8365 44.9782 39.5567C45.1517 39.0287 45.3753 38.5174 45.5592 37.9927C45.6963 37.6018 45.9529 37.3596 46.3389 37.2204C46.7237 37.0815 47.1046 36.9273 47.4739 36.7517C47.8299 36.5824 48.1664 36.5606 48.5276 36.7314C49.0705 36.988 49.6319 37.2067 50.1668 37.4782C50.4624 37.6282 50.5588 37.4079 50.7127 37.2722C50.8678 37.1352 50.9996 37.0135 50.8708 36.7588C50.6066 36.2365 50.3887 35.6909 50.137 35.162C49.9594 34.7888 49.9665 34.44 50.1533 34.068C50.3302 33.7161 50.4831 33.3484 50.6072 32.9747C50.7432 32.565 50.9941 32.3029 51.3992 32.1597C51.9238 31.9743 52.4327 31.7417 52.9635 31.5792C53.2749 31.4838 53.2661 31.2912 53.2728 31.0463C53.2799 30.7887 53.2486 30.6065 52.9551 30.5129C52.4395 30.3487 51.9401 30.1346 51.429 29.9553C50.9941 29.8026 50.7262 29.5216 50.5904 29.0731C50.4808 28.7111 50.3175 28.3621 50.1479 28.0223C49.9705 27.6669 49.9556 27.3263 50.1224 26.9677C50.3695 26.4365 50.5879 25.8908 50.8591 25.3724C51.0004 25.1023 50.8739 24.9784 50.7087 24.8177C50.5379 24.6514 50.4117 24.4887 50.118 24.6438C49.6137 24.9099 49.0804 25.1208 48.561 25.358C48.1908 25.5271 47.8326 25.5222 47.4613 25.3428C47.1062 25.1713 46.7432 25.0084 46.3691 24.8859C45.9571 24.7511 45.6968 24.4981 45.5532 24.0951C45.3713 23.5851 45.1517 23.0876 44.9877 22.5722C44.8958 22.2835 44.7554 22.1984 44.4566 22.1972C44.1429 22.1958 43.9931 22.2878 43.8961 22.5917C43.7271 23.1209 43.5428 23.6516 43.2945 24.1466C43.1604 24.4139 42.9232 24.7036 42.6602 24.8204C40.877 25.6119 40.8708 25.5979 39.1098 24.8034C38.4655 24.5129 38.4655 24.5129 37.9238 25.0996Z" fill="#009247"/>
<path fill-rule="evenodd" clip-rule="evenodd" d="M24.6126 39.6616C24.6126 37.3727 24.6098 35.0838 24.6137 32.795C24.6163 31.2695 25.4847 30.3973 27.0136 30.3903C28.5982 30.383 30.1832 30.3738 31.7671 30.4069C31.9965 30.4117 32.2901 30.5995 32.4245 30.7927C32.5207 30.9311 32.4786 31.2907 32.3576 31.4234C32.2051 31.5907 31.9106 31.7041 31.6752 31.7078C30.1351 31.732 28.5942 31.7193 27.0536 31.7206C26.2407 31.7213 25.9387 32.0225 25.9387 32.8334C25.938 37.4259 25.9384 42.0184 25.9382 46.6108C25.9382 46.7282 25.9429 46.8458 25.9368 46.9628C25.9144 47.3913 25.6354 47.6765 25.2532 47.6663C24.888 47.6566 24.6234 47.3825 24.6173 46.9684C24.6063 46.2204 24.6127 45.472 24.6126 44.7237C24.6124 43.0363 24.6126 41.3489 24.6126 39.6616Z" fill="#009247"/>
<path fill-rule="evenodd" clip-rule="evenodd" d="M64.2768 39.6574C64.2768 41.9618 64.2769 44.2662 64.2764 46.5706C64.2764 46.7172 64.2844 46.8656 64.2661 47.0103C64.2212 47.363 64.0149 47.5642 63.6584 47.5865C63.2757 47.6105 63.0507 47.403 62.9655 47.0482C62.932 46.9087 62.9515 46.7561 62.9515 46.6095C62.951 42.0301 62.9514 37.4509 62.9509 32.8714C62.9508 32.0024 62.6652 31.7206 61.7851 31.7202C60.2293 31.7194 58.6734 31.7302 57.1178 31.7084C56.8935 31.7052 56.6064 31.6045 56.4676 31.4452C56.344 31.3031 56.2913 30.9642 56.3788 30.8085C56.4861 30.6176 56.7699 30.4139 56.9805 30.4106C58.7557 30.3832 60.5324 30.3732 62.3074 30.4143C63.3781 30.4391 64.2596 31.4097 64.2674 32.5242C64.2839 34.9018 64.2724 37.2797 64.2724 39.6573C64.274 39.6574 64.2754 39.6574 64.2768 39.6574Z" fill="#009247"/>
<path fill-rule="evenodd" clip-rule="evenodd" d="M54.149 57.643C54.149 56.6449 54.1448 55.6469 54.1502 54.6488C54.1561 53.5665 55.0053 53.065 55.9517 53.5898C57.7325 54.5775 59.5061 55.5783 61.2881 56.5637C61.7178 56.8012 62.0227 57.1193 62.0255 57.6244C62.0283 58.1494 61.7099 58.471 61.2658 58.7163C59.5088 59.6865 57.7609 60.6737 56.0071 61.65C54.989 62.2168 54.1522 61.7191 54.1494 60.5491C54.1473 59.5803 54.149 58.6116 54.149 57.643ZM55.5339 54.8832C55.5339 56.7519 55.5339 58.5436 55.5339 60.3846C57.1846 59.4607 58.7848 58.565 60.4499 57.6329C58.7711 56.694 57.1761 55.8019 55.5339 54.8832Z" fill="#009247"/>
<path fill-rule="evenodd" clip-rule="evenodd" d="M30.9626 53.7754C32.3853 53.7754 33.808 53.7732 35.2306 53.7782C35.4039 53.7788 35.5854 53.7915 35.7485 53.8439C36.0505 53.9407 36.233 54.1895 36.1529 54.4842C36.093 54.7046 35.9064 54.9256 35.7162 55.0638C35.5839 55.1598 35.3498 55.1316 35.1611 55.1318C32.3303 55.1352 29.4996 55.1352 26.669 55.1317C26.4804 55.1316 26.2459 55.159 26.1141 55.0625C25.9242 54.9235 25.7373 54.7016 25.6793 54.4808C25.602 54.1868 25.7847 53.9376 26.0881 53.8427C26.2519 53.7915 26.4329 53.7787 26.6063 53.7781C28.0585 53.7733 29.5106 53.7754 30.9626 53.7754Z" fill="#009247"/>
<path fill-rule="evenodd" clip-rule="evenodd" d="M30.8731 58.3134C29.4504 58.3134 28.0277 58.3156 26.6051 58.3106C26.4318 58.3101 26.2505 58.2974 26.087 58.2456C25.7842 58.1498 25.6019 57.8997 25.6795 57.6063C25.7377 57.3857 25.9257 57.1643 26.1159 57.0259C26.2481 56.9297 26.4823 56.9574 26.671 56.9571C29.5017 56.9536 32.3324 56.9545 35.1631 56.9557C35.3092 56.9557 35.4584 56.9531 35.601 56.9796C35.9636 57.0474 36.1743 57.2617 36.1698 57.6454C36.1651 58.0323 35.9351 58.2298 35.5799 58.2979C35.4521 58.3223 35.317 58.3129 35.1853 58.313C33.7478 58.3138 32.3104 58.3134 30.8731 58.3134Z" fill="#009247"/>
<path fill-rule="evenodd" clip-rule="evenodd" d="M30.8748 61.4901C29.4375 61.4901 28.0002 61.492 26.5629 61.4874C26.4044 61.4869 26.2386 61.4739 26.0895 61.4255C25.7881 61.3276 25.6504 61.0964 25.6634 60.783C25.6765 60.4683 25.8364 60.2537 26.1456 60.1834C26.3149 60.1449 26.4942 60.1374 26.6689 60.1373C29.4996 60.1347 32.3301 60.1353 35.1607 60.1354C35.2487 60.1354 35.3369 60.1326 35.4246 60.1386C35.9197 60.1728 36.1763 60.4093 36.1711 60.8229C36.166 61.2288 35.8891 61.4754 35.4065 61.4879C35.0694 61.4965 34.7318 61.49 34.3945 61.49C33.2213 61.4901 32.048 61.4901 30.8748 61.4901Z" fill="#009247"/>
<path fill-rule="evenodd" clip-rule="evenodd" d="M44.4423 35.5552C41.9568 35.5531 39.9504 33.5397 39.9502 31.0471C39.95 28.565 41.9721 26.5378 44.4469 26.5391C46.9236 26.5404 48.9394 28.5652 48.9389 31.0515C48.9386 33.5427 46.927 35.5573 44.4423 35.5552ZM44.4525 34.2076C46.2006 34.2051 47.6169 32.7936 47.6179 31.053C47.6188 29.3193 46.2001 27.8945 44.4586 27.8801C42.7151 27.8656 41.2627 29.3186 41.2712 31.0689C41.2797 32.8052 42.7036 34.2102 44.4525 34.2076Z" fill="#009247"/>
</svg>
