<svg width="87" height="65" viewBox="0 0 87 65" fill="none" xmlns="http://www.w3.org/2000/svg">
<path opacity="0.651" fill-rule="evenodd" clip-rule="evenodd" d="M60.8198 39.46C60.8198 32.43 66.5088 26.74 73.5398 26.74C80.5708 26.74 86.2598 32.43 86.2598 39.46C86.2598 46.49 80.5708 52.18 73.5398 52.18C66.5088 52.18 60.8198 46.49 60.8198 39.46Z" fill="#86C63A"/>
<path fill-rule="evenodd" clip-rule="evenodd" d="M38.7898 5.86987C37.9798 5.86987 37.3198 6.49988 37.3198 7.27988C37.3198 8.05988 37.9798 8.69987 38.7898 8.69987C39.5998 8.69987 40.2498 8.05988 40.2498 7.27988C40.2498 6.49988 39.5998 5.86987 38.7898 5.86987Z" fill="#392413"/>
<path fill-rule="evenodd" clip-rule="evenodd" d="M32.8899 5.86987H21.8499C21.0499 5.86987 20.3999 6.49988 20.3999 7.27988C20.3999 8.05988 21.0499 8.69987 21.8499 8.69987H32.8899C33.6899 8.69987 34.3399 8.05988 34.3399 7.27988C34.3399 6.49988 33.6899 5.86987 32.8899 5.86987Z" fill="#392413"/>
<path fill-rule="evenodd" clip-rule="evenodd" d="M55.6701 5.86987H44.5401C43.7301 5.86987 43.0801 6.49988 43.0801 7.27988C43.0801 8.05988 43.7301 8.69987 44.5401 8.69987H55.6701C56.4801 8.69987 57.1401 8.05988 57.1401 7.27988C57.1401 6.49988 56.4801 5.86987 55.6701 5.86987Z" fill="#392413"/>
<path fill-rule="evenodd" clip-rule="evenodd" d="M5.81998 43.5C6.28998 43.59 6.77999 43.65 7.26999 43.65C8.90999 43.65 10.42 43.1 11.64 42.19V53.83C11.64 54.63 12.29 55.28 13.09 55.28H36.38C37.18 55.28 37.83 54.63 37.83 53.83V42.19C39.05 43.1 40.56 43.65 42.2 43.65C42.69 43.65 43.17 43.59 43.65 43.5V61.1H5.81998V43.5ZM8.16998 23.28H12.9L11.81 32.01H3.81L8.16998 23.28ZM8.72998 16C8.72998 15.2 9.37999 14.55 10.18 14.55H67.229C68.03 14.55 68.679 15.2 68.679 16V20.37H8.729V16H8.72998ZM14.55 4.36C14.55 3.56 15.2 2.91 16 2.91H61.41C62.21 2.91 62.86 3.56 62.86 4.36V11.64H14.55V4.36ZM63.44 61.1V48.01C63.44 47.21 62.79 46.56 61.99 46.56H53.26C52.45 46.56 51.8 47.21 51.8 48.01V61.1H46.56V42.19C47.111 41.77 47.6 41.29 48.02 40.74H68.68V61.1H63.44ZM60.53 61.1H54.71V49.47H60.53V61.1ZM37.83 34.92H46.559V36.37C46.559 37.14 46.36 37.89 45.979 38.55C45.599 39.22 45.04 39.77 44.379 40.15C43.719 40.53 42.959 40.74 42.199 40.74C39.789 40.74 37.829 38.78 37.829 36.37V34.92H37.83ZM14.55 42.18C15.77 43.1 17.29 43.65 18.91 43.65C21.29 43.65 23.41 42.5 24.73 40.73C26.06 42.5 28.18 43.65 30.56 43.65C32.19 43.65 33.7 43.1 34.92 42.19V52.37H14.55V42.18ZM32.33 23.28L34.51 32.01H26.02L24.93 23.28H32.33ZM26.19 34.92H34.92V36.37C34.92 38.78 32.96 40.74 30.56 40.74C28.15 40.74 26.19 38.78 26.19 36.37V34.92ZM14.55 34.92H23.28V36.37C23.28 38.78 21.32 40.74 18.91 40.74C16.64 40.74 14.73 38.96 14.56 36.7C14.55 36.59 14.55 36.47 14.55 36.37V34.92ZM41.3 23.28L45.66 32.01H37.51L35.33 23.28H41.3ZM68.68 37.83H49.32C49.42 37.35 49.469 36.86 49.469 36.37V33.46C49.469 33.24 49.419 33.01 49.32 32.81L44.549 23.28H68.679V37.83H68.68ZM21.99 23.28L23.09 32.01H14.74L15.83 23.28H21.99ZM5.09 40.15C3.74 39.37 2.91 37.92 2.91 36.37V34.92H11.64V36.37C11.64 38.78 9.67999 40.74 7.26999 40.74C6.50999 40.74 5.75 40.53 5.09 40.15ZM1.44998 61.1C0.649982 61.1 0 61.76 0 62.56C0 63.36 0.649982 64.01 1.44998 64.01H73.05C73.85 64.01 74.5 63.36 74.5 62.56C74.5 61.76 73.85 61.1 73.05 61.1H71.59V16C71.59 13.59 69.63 11.64 67.23 11.64H65.77V4.36C65.77 1.95 63.81 0 61.411 0H16.001C13.601 0 11.641 1.95 11.641 4.36V11.64H10.181C7.781 11.64 5.82098 13.59 5.82098 16V21.48L0.151001 32.81C0.051001 33 0.000976562 33.23 0.000976562 33.46V36.37C0.000976562 38.67 1.09098 40.82 2.91098 42.19V61.1H1.44998Z" fill="#392413"/>
</svg>
