<svg width="93" height="92" viewBox="0 0 93 92" fill="none" xmlns="http://www.w3.org/2000/svg">
<rect x="8.5" y="7.5" width="84" height="84" rx="22.5" stroke="#009247" stroke-dasharray="2 2"/>
<rect width="85" height="85" rx="23" fill="#8BC53F" fill-opacity="0.33"/>
<path fill-rule="evenodd" clip-rule="evenodd" d="M53.9062 30C54.4515 30.1989 55.0405 30.3229 55.5338 30.6109C56.8982 31.4075 57.6105 32.6424 57.6173 34.2236C57.6357 38.4839 57.6288 42.7445 57.6215 47.005C57.6175 49.3774 55.7377 51.2445 53.3543 51.2471C48.2971 51.2525 43.2398 51.2503 38.1826 51.2443C37.9353 51.2441 37.7488 51.3102 37.5579 51.4706C35.677 53.0499 33.7895 54.6212 31.9006 56.1909C31.2785 56.7078 30.6277 56.6826 30.2153 56.1333C30.1306 56.0205 30.0711 55.8887 30 55.7657C30 48.4167 30 41.0678 30 33.7188C30.0217 33.6573 30.0521 33.5973 30.0637 33.534C30.309 32.1823 31.032 31.1595 32.2394 30.5195C32.696 30.2775 33.2236 30.1692 33.7188 30.0001C40.4479 30 47.177 30 53.9062 30ZM32.1237 53.2033C32.246 53.1129 32.3173 53.0656 32.3826 53.0112C33.7595 51.8639 35.1399 50.7206 36.5092 49.5642C36.865 49.2638 37.2425 49.1189 37.7158 49.1199C42.8728 49.1301 48.0298 49.1277 53.1868 49.1252C54.581 49.1246 55.497 48.2337 55.499 46.8601C55.5051 42.6991 55.5057 38.5381 55.4985 34.3771C55.4962 33.0347 54.5854 32.1273 53.2403 32.1261C46.9545 32.1209 40.6687 32.1201 34.383 32.1336C34.0294 32.1344 33.6469 32.2149 33.3283 32.3652C32.4517 32.7792 32.1228 33.5413 32.123 34.4782C32.1245 40.5981 32.1237 46.7178 32.1237 52.8376C32.1237 52.9363 32.1237 53.0351 32.1237 53.2033Z" fill="#009247"/>
<path fill-rule="evenodd" clip-rule="evenodd" d="M63.9999 63.2032C63.9287 63.3263 63.8691 63.4583 63.784 63.5711C63.3774 64.1099 62.7341 64.1442 62.1211 63.6555C60.867 62.6558 59.5784 61.6946 58.3787 60.633C57.6182 59.9601 56.8374 59.7126 55.8212 59.7254C51.4844 59.7803 47.1466 59.7509 42.8091 59.7479C40.7566 59.7464 39.0672 58.4561 38.6303 56.4583C38.4749 55.7474 38.5016 54.9863 38.5241 54.2504C38.54 53.726 39.0863 53.3502 39.6352 53.378C40.1552 53.4045 40.597 53.838 40.6193 54.3624C40.6333 54.6938 40.6206 55.0263 40.6241 55.3582C40.6386 56.719 41.5377 57.621 42.9025 57.6245C45.2593 57.6307 47.616 57.6263 49.9729 57.6263C52.4183 57.6263 54.8637 57.6356 57.3089 57.6186C57.8063 57.6151 58.2013 57.7668 58.579 58.0768C59.5877 58.9048 60.6139 59.7116 61.6337 60.5262C61.6931 60.5736 61.757 60.6154 61.8534 60.6847C61.8624 60.5644 61.8753 60.4729 61.8753 60.3813C61.8763 54.5723 61.8772 48.7632 61.8755 42.9542C61.8751 41.5872 61.0836 40.734 59.7261 40.6244C59.0806 40.5722 58.6581 40.1085 58.6905 39.4878C58.7202 38.919 59.1937 38.5019 59.8094 38.502C61.8123 38.502 63.5959 40.016 63.9333 42C63.946 42.0746 63.9773 42.146 63.9999 42.2189C63.9999 49.2136 63.9999 56.2084 63.9999 63.2032Z" fill="#009247"/>
<path fill-rule="evenodd" clip-rule="evenodd" d="M43.7994 38.4986C41.6859 38.4985 39.5724 38.5004 37.459 38.4971C36.9078 38.4963 36.4582 38.1159 36.3835 37.6066C36.3041 37.0652 36.628 36.5593 37.1583 36.4135C37.2731 36.382 37.3981 36.3776 37.5185 36.3775C41.7122 36.3758 45.906 36.3755 50.0997 36.3767C50.7763 36.3769 51.2466 36.8138 51.2481 37.4339C51.2496 38.0563 50.7805 38.4973 50.1066 38.4979C48.0042 38.4998 45.9018 38.4987 43.7994 38.4986Z" fill="#009247"/>
<path fill-rule="evenodd" clip-rule="evenodd" d="M41.6536 42.7489C40.2816 42.7489 38.9095 42.75 37.5376 42.7483C36.8413 42.7475 36.3696 42.307 36.3765 41.6705C36.3833 41.0539 36.8553 40.6271 37.5385 40.6268C40.3046 40.6257 43.0707 40.6257 45.8368 40.6268C46.533 40.6271 47.0048 41.0682 46.9978 41.7047C46.9909 42.3213 46.5191 42.7476 45.8358 42.7483C44.4417 42.75 43.0477 42.7489 41.6536 42.7489Z" fill="#009247"/>
</svg>
