<svg width="93" height="92" viewBox="0 0 93 92" fill="none" xmlns="http://www.w3.org/2000/svg">
<rect x="8.5" y="7.5" width="84" height="84" rx="22.5" stroke="#009247" stroke-dasharray="2 2"/>
<rect width="85" height="85" rx="23" fill="#8BC53F" fill-opacity="0.33"/>
<path fill-rule="evenodd" clip-rule="evenodd" d="M34.8817 20.0532C44.921 20.0532 54.9605 20.0532 65 20.0532C64.9862 20.2297 64.9604 20.4064 64.9604 20.583C64.9585 35.4826 64.9585 50.3822 64.9604 65.2818C64.9604 65.4583 64.9862 65.6351 65 65.8116C52.6667 65.8116 40.3333 65.8116 28 65.8116C28.0138 65.605 28.0396 65.3986 28.0396 65.1921C28.0415 52.6668 28.0424 40.1414 28.0352 27.6161C28.035 27.2791 28.1262 27.0351 28.3667 26.7925C29.6562 25.4914 30.9315 24.1765 32.2045 22.8593C33.1028 21.9297 33.9897 20.989 34.8817 20.0532ZM62.2122 63.1175C62.2122 49.6359 62.2122 36.1983 62.2122 22.762C54.2351 22.762 46.2912 22.762 38.2963 22.762C38.2963 25.2844 38.2963 27.7782 38.2963 30.3316C35.7556 30.3316 33.2651 30.3316 30.7915 30.3316C30.7915 41.2984 30.7915 52.2046 30.7915 63.1176C41.2792 63.1174 51.7297 63.1175 62.2122 63.1175ZM35.5835 23.2502C34.1523 24.723 32.794 26.1209 31.3695 27.587C32.8431 27.587 34.202 27.587 35.5835 27.587C35.5835 26.1588 35.5835 24.7562 35.5835 23.2502Z" fill="#009247"/>
<path fill-rule="evenodd" clip-rule="evenodd" d="M50.8513 40.0201C54.178 42.0862 55.5458 45.1238 55.2978 49.0157C55.13 49.0266 54.9734 49.0457 54.8168 49.0458C49.2771 49.0474 43.7371 49.0433 38.1973 49.055C37.8005 49.0558 37.6761 48.965 37.6655 48.542C37.6085 46.2538 38.1006 44.1382 39.5445 42.3138C39.9027 41.861 40.3112 41.4395 40.7428 41.0554C41.1737 40.6721 41.6626 40.3539 42.1609 39.9811C40.3982 38.3685 39.5949 36.3513 39.9158 33.9561C40.1396 32.285 40.9531 30.907 42.2402 29.8089C44.7751 27.6465 48.5875 27.7928 51.087 30.087C53.2763 32.0969 54.433 36.7251 50.8513 40.0201ZM50.4467 34.9229C50.4479 32.741 48.6962 30.9678 46.527 30.9552C44.3357 30.9423 42.5543 32.7166 42.5536 34.9128C42.553 37.11 44.3407 38.8987 46.5173 38.8787C48.701 38.8586 50.4455 37.1022 50.4467 34.9229ZM40.6098 46.3206C44.5369 46.3206 48.4633 46.3206 52.3907 46.3206C52.292 43.9494 49.324 41.584 46.4774 41.5877C43.6614 41.5914 40.7001 43.9699 40.6098 46.3206Z" fill="#009247"/>
<path fill-rule="evenodd" clip-rule="evenodd" d="M46.5195 57.5901C46.5195 56.7029 46.5195 55.8437 46.5195 54.9526C50.6316 54.9526 54.7333 54.9526 58.8724 54.9526C58.8724 55.8177 58.8724 56.6855 58.8724 57.5901C54.7674 57.5901 50.6656 57.5901 46.5195 57.5901Z" fill="#009247"/>
<path fill-rule="evenodd" clip-rule="evenodd" d="M41.9432 51.5386C42.5769 52.1722 43.1861 52.7815 43.7483 53.3436C41.8631 55.2287 39.9662 57.1255 38.0822 59.0094C36.9016 57.8257 35.652 56.5731 34.4351 55.3531C35.0278 54.7618 35.643 54.1483 36.2994 53.4936C36.8517 54.0771 37.4588 54.7183 38.0989 55.3943C39.4431 54.0459 40.7014 52.784 41.9432 51.5386Z" fill="#009247"/>
</svg>
