<svg width="79" height="81" viewBox="0 0 79 81" fill="none" xmlns="http://www.w3.org/2000/svg">
<path fill-rule="evenodd" clip-rule="evenodd" d="M29.01 27.8902C29.01 28.7102 28.35 29.3701 27.531 29.3701C26.711 29.3701 26.041 28.7102 26.041 27.8902C26.041 27.0702 26.711 26.4001 27.531 26.4001C28.35 26.4001 29.01 27.0702 29.01 27.8902Z" fill="#392413"/>
<path opacity="0.651" fill-rule="evenodd" clip-rule="evenodd" d="M53.4102 67.9302C53.4102 60.9002 59.0801 55.2102 66.0701 55.2102C73.0591 55.2102 78.7291 60.9002 78.7291 67.9302C78.7291 74.9602 73.0591 80.6502 66.0701 80.6502C59.0801 80.6502 53.4102 74.9602 53.4102 67.9302Z" fill="#86C63A"/>
<path fill-rule="evenodd" clip-rule="evenodd" d="M40.1703 27.8902C40.1703 28.7102 39.5303 29.3701 38.7503 29.3701C37.9603 29.3701 37.3203 28.7102 37.3203 27.8902C37.3203 27.0702 37.9603 26.4001 38.7503 26.4001C39.5303 26.4001 40.1703 27.0702 40.1703 27.8902Z" fill="#392413"/>
<path fill-rule="evenodd" clip-rule="evenodd" d="M64.06 68.98C64.06 70.48 62.84 71.7 61.34 71.7H40.36L38.791 64.72L40.961 66.15C41.311 66.37 41.7411 66.44 42.1411 66.33C42.5411 66.23 42.881 65.95 43.061 65.58L49.041 53.72C51.341 54.13 53.641 54.62 55.9 55.19C60.711 56.42 64.06 60.72 64.06 65.66V68.98ZM30.2 71.7L31.75 62.34L33.479 61.24L35.28 62.42L37.3701 71.7H30.2ZM27.25 71.7H5.64001C4.14001 71.7 2.92004 70.48 2.92004 68.98V65.66C2.92004 60.72 6.24001 56.43 11.01 55.21C13.44 54.59 15.93 54.06 18.42 53.64L23.6201 65.51C23.8001 65.9 24.13 66.2 24.54 66.32C24.67 66.36 24.82 66.38 24.96 66.38C25.23 66.38 25.5101 66.31 25.7401 66.16L28.45 64.44L27.25 71.7ZM22.64 50.05L31.22 59.22L25.61 62.79L20.98 52.22L22.64 50.05ZM44.29 49.48L46.34 52.59L41.19 62.81L35.701 59.21L44.29 49.48ZM56.6201 52.37C53.9791 51.7 51.28 51.13 48.59 50.69L45.67 46.29C45.42 45.91 45.01 45.67 44.56 45.64C44.11 45.61 43.67 45.79 43.371 46.13L33.461 57.34L23.591 46.79C23.291 46.48 22.8811 46.31 22.451 46.33C22.0201 46.36 21.621 46.57 21.36 46.91L18.491 50.68C16.491 51 14.491 51.39 12.52 51.85V23.4C12.52 12.1 21.71 2.91 33.01 2.91C44.321 2.91 53.51 12.1 53.51 23.4V42.25C53.51 43.06 54.16 43.71 54.97 43.71C55.781 43.71 56.4301 43.06 56.4301 42.25V23.4C56.4301 10.5 45.92 0 33.01 0C20.1 0 9.60004 10.5 9.60004 23.4V52.58C3.91104 54.35 0 59.63 0 65.66V68.98C0 72.09 2.53001 74.61 5.64001 74.61H61.34C64.45 74.61 66.98 72.09 66.98 68.98V65.66C66.98 59.39 62.7201 53.92 56.6201 52.37Z" fill="#392413"/>
<path fill-rule="evenodd" clip-rule="evenodd" d="M46.5599 31.2002C46.5599 38.5502 40.5599 44.5302 33.1899 44.5302C25.8309 44.5302 19.8309 38.5502 19.8309 31.2002V23.7202C19.8309 22.7602 20.6099 21.9802 21.5809 21.9802H28.0009C29.9709 21.9802 31.8509 21.3002 33.3509 20.0802C34.7509 21.2902 36.5609 21.9802 38.4309 21.9802H45.2309C45.9609 21.9802 46.5609 22.5702 46.5609 23.3002V31.2002H46.5599ZM45.2299 19.0702H38.4299C36.9099 19.0702 35.4599 18.3502 34.5499 17.1402C34.2899 16.7802 33.8699 16.5702 33.4299 16.5602C32.9799 16.5502 32.5599 16.7402 32.2699 17.0802C31.2099 18.3502 29.6499 19.0702 27.9999 19.0702H21.5799C19.0099 19.0702 16.9199 21.1602 16.9199 23.7202V31.2002C16.9199 40.1502 24.2199 47.4302 33.1899 47.4302C42.1699 47.4302 49.4699 40.1502 49.4699 31.2002V23.3002C49.4699 20.9702 47.5599 19.0702 45.2299 19.0702Z" fill="#392413"/>
<path fill-rule="evenodd" clip-rule="evenodd" d="M37.5398 36.1001C36.9698 35.5201 36.0398 35.5201 35.4698 36.1001C34.9298 36.6401 34.2198 36.9401 33.4498 36.9401C32.6488 36.9401 31.8798 36.6001 31.3398 36.0001C30.7998 35.4001 29.8698 35.3601 29.2798 35.9001C28.6788 36.4501 28.6388 37.3801 29.1788 37.9801C30.2688 39.1901 31.8288 39.8801 33.4498 39.8801C34.9998 39.8801 36.4498 39.2701 37.5398 38.1801C38.1098 37.6001 38.1098 36.6701 37.5398 36.1001Z" fill="#392413"/>
<path fill-rule="evenodd" clip-rule="evenodd" d="M56.3701 47.7503C56.3701 48.5303 55.729 49.1703 54.95 49.1703C54.16 49.1703 53.519 48.5303 53.519 47.7503C53.519 46.9603 54.16 46.3203 54.95 46.3203C55.73 46.3203 56.3701 46.9603 56.3701 47.7503Z" fill="#392413"/>
</svg>
