<svg width="93" height="92" viewBox="0 0 93 92" fill="none" xmlns="http://www.w3.org/2000/svg">
<rect x="8.5" y="7.5" width="84" height="84" rx="22.5" stroke="#009247" stroke-dasharray="2 2"/>
<rect width="85" height="85" rx="23" fill="#8BC53F" fill-opacity="0.33"/>
<path fill-rule="evenodd" clip-rule="evenodd" d="M58.3833 69.2865C50.7895 69.2865 43.1956 69.2865 35.6016 69.2865C35.5804 69.266 35.5627 69.235 35.5374 69.2266C33.8143 68.652 33.0881 67.6494 33.0874 65.8401C33.0869 64.6199 33.082 63.3996 33.0917 62.1794C33.0938 61.9299 33.0275 61.7876 32.7936 61.6503C30.9699 60.5789 30.0174 58.9674 30.0127 56.8565C29.9959 49.4598 29.9955 42.0629 30.0131 34.666C30.0181 32.5584 30.9527 30.9378 32.7876 29.8712C33.018 29.7373 33.0954 29.5941 33.0923 29.3385C33.0803 28.2842 33.0804 27.2295 33.0898 26.175C33.0979 25.2617 33.3723 24.4274 34.0924 23.8474C34.5357 23.4905 35.0946 23.2775 35.6016 23C43.1955 23 50.7894 23 58.3833 23C58.4185 23.0263 58.4498 23.065 58.4893 23.0773C60.0834 23.5703 60.8924 24.653 60.8971 26.3101C60.8999 27.3194 60.9051 28.3288 60.8925 29.3379C60.8894 29.5939 60.969 29.7346 61.1982 29.8687C63.0445 30.9497 63.9702 32.5855 63.9739 34.7113C63.9866 42.0776 63.9865 49.4438 63.9739 56.8101C63.9702 58.9381 63.0325 60.5676 61.1922 61.6511C60.9623 61.7865 60.8906 61.9279 60.8927 62.18C60.9031 63.4753 60.9039 64.7709 60.8958 66.0664C60.8859 67.6254 60.0293 68.7521 58.5331 69.1998C58.4794 69.216 58.4331 69.2571 58.3833 69.2865ZM46.992 30.7221C43.2565 30.7221 39.5211 30.719 35.7856 30.7266C35.3816 30.7274 34.9665 30.7405 34.5759 30.8312C32.6892 31.2698 31.5741 32.7661 31.573 34.846C31.5692 42.1211 31.57 49.3962 31.5758 56.6712C31.576 57.0451 31.5952 57.4291 31.6801 57.7909C32.1072 59.6133 33.6187 60.7912 35.5156 60.792C43.107 60.7947 50.6983 60.7937 58.2898 60.7929C60.7939 60.7927 62.4097 59.1861 62.4116 56.67C62.4172 49.3949 62.4174 42.1198 62.4051 34.8448C62.4043 34.3552 62.349 33.845 62.2043 33.3801C61.6835 31.706 60.2391 30.7277 58.3339 30.7243C54.5533 30.7175 50.7726 30.7223 46.992 30.7221ZM34.6962 29.1795C42.9204 29.1795 51.0921 29.1795 59.2674 29.1795C59.285 29.1267 59.3104 29.085 59.3106 29.0434C59.3144 28.0948 59.3231 27.1462 59.3146 26.1977C59.3053 25.1608 58.6893 24.5516 57.6495 24.5419C56.8967 24.5348 56.1431 24.5231 55.3913 24.5524C55.1956 24.56 54.9607 24.6688 54.8205 24.8083C54.2551 25.3707 53.7139 25.958 53.1745 26.5461C52.5058 27.2753 51.689 27.6348 50.6948 27.6308C48.2254 27.6208 45.7558 27.6206 43.2863 27.6309C42.2908 27.6351 41.477 27.2694 40.8082 26.5418C40.2581 25.9433 39.7027 25.349 39.1331 24.7691C39.0208 24.6548 38.8344 24.5545 38.6795 24.5506C37.8519 24.5297 37.023 24.5254 36.1954 24.5468C35.4355 24.5666 34.7495 25.0731 34.7128 25.7514C34.6516 26.8884 34.6962 28.0313 34.6962 29.1795ZM59.2881 65.0456C58.4105 65.527 57.4841 65.4354 56.5711 65.4358C50.1252 65.4381 43.6794 65.4371 37.2334 65.4367C36.3787 65.4367 35.5151 65.5008 34.6957 65.0368C34.6957 65.5742 34.646 66.0582 34.707 66.5277C34.8048 67.281 35.4918 67.7452 36.4161 67.7453C43.4493 67.7466 50.4826 67.746 57.5157 67.7457C57.6362 67.7457 57.7574 67.7498 57.8769 67.7377C58.5953 67.6653 59.1968 67.1842 59.2768 66.535C59.3347 66.0642 59.2881 65.5806 59.2881 65.0456ZM59.2744 62.3419C51.0862 62.3419 42.8969 62.3419 34.6956 62.3419C34.6956 62.4651 34.6805 62.5711 34.698 62.6713C34.8243 63.393 35.4708 63.8706 36.3277 63.8709C43.4384 63.8721 50.5492 63.8716 57.6599 63.8712C57.7654 63.8712 57.8715 63.8745 57.9761 63.8639C58.7442 63.7863 59.3182 63.1201 59.2744 62.3419ZM41.0826 24.548C41.3727 24.8615 41.608 25.0888 41.812 25.3414C42.2534 25.8877 42.8091 26.0951 43.5126 26.0877C45.8773 26.0631 48.2427 26.0789 50.6077 26.078C51.4687 26.0777 52.443 25.3919 52.7796 24.548C48.9209 24.548 45.0653 24.548 41.0826 24.548Z" fill="#009247"/>
<path fill-rule="evenodd" clip-rule="evenodd" d="M57.8391 34.542C59.856 34.7981 60.8972 35.9838 60.8974 38.0079C60.8979 43.9882 60.8991 49.9686 60.8966 55.9489C60.8958 57.6332 59.9496 58.8658 58.3983 59.1981C58.137 59.254 57.8601 59.2528 57.5903 59.2529C50.5254 59.2556 43.4603 59.2304 36.3955 59.2728C34.6739 59.2832 33.072 58.0133 33.0796 55.9499C33.1016 49.9698 33.087 43.9893 33.0874 38.009C33.0876 35.9854 34.1314 34.796 36.1244 34.5449C36.6599 32.8743 37.3818 32.194 38.5683 32.2421C39.7875 32.2917 40.5412 33.0425 40.8777 34.5564C42.1207 34.5564 43.3675 34.5564 44.6107 34.5564C45.0532 32.9565 45.8166 32.2242 47.0144 32.241C48.2108 32.2578 48.9297 32.9605 49.3732 34.5565C50.6163 34.5565 51.8631 34.5565 53.1061 34.5565C53.443 33.0369 54.2413 32.2561 55.4604 32.2408C56.669 32.2255 57.4761 32.9985 57.8391 34.542ZM34.6906 41.5496C34.6822 41.7179 34.6687 41.8644 34.6686 42.0109C34.6675 46.6508 34.6666 51.2908 34.6685 55.9309C34.669 57.1429 35.2523 57.7161 36.478 57.7162C43.4832 57.7168 50.4884 57.7167 57.4935 57.7162C58.7396 57.7162 59.3159 57.1434 59.3164 55.8982C59.3178 51.2733 59.3171 46.6483 59.316 42.0234C59.316 41.8654 59.3018 41.7074 59.2943 41.5496C51.0668 41.5496 42.8926 41.5496 34.6906 41.5496ZM34.6938 39.9393C42.8988 39.9393 51.0849 39.9393 59.31 39.9393C59.31 39.1295 59.3051 38.3487 59.3113 37.5679C59.3172 36.8208 58.5604 36.0758 57.8592 36.1556C57.312 37.815 56.6221 38.5092 55.447 38.4227C54.9771 38.3881 54.4805 38.188 54.0742 37.9368C53.4363 37.5421 53.2087 36.8558 53.125 36.1345C51.8475 36.1345 50.6027 36.1345 49.3635 36.1345C48.9835 37.6701 48.2754 38.4226 47.0824 38.4211C46.6265 38.4204 46.1297 38.2561 45.7243 38.0338C45.0032 37.6384 44.7213 36.9166 44.6444 36.1392C43.3464 36.1392 42.1027 36.1392 40.8647 36.1392C40.601 37.5434 39.9023 38.3523 38.7177 38.4168C37.1562 38.5018 36.3735 37.5736 36.1241 36.1245C35.2973 36.2687 34.7506 36.6916 34.7074 37.3425C34.6511 38.1947 34.6938 39.0533 34.6938 39.9393ZM37.7579 35.3102C37.7572 35.3102 37.7565 35.3102 37.7559 35.3102C37.7559 35.5654 37.7557 35.8205 37.756 36.0757C37.756 36.1057 37.7567 36.1359 37.7596 36.1657C37.7968 36.566 38.0665 36.8359 38.4517 36.859C38.8657 36.8839 39.2094 36.6452 39.2371 36.2283C39.2758 35.6463 39.2757 35.0582 39.2407 34.4758C39.2153 34.0505 38.8886 33.8115 38.4708 33.8264C38.0635 33.8411 37.7844 34.1151 37.7606 34.5448C37.7465 34.7993 37.7579 35.0551 37.7579 35.3102ZM56.225 35.3134C56.2256 35.3134 56.2261 35.3134 56.2267 35.3134C56.2267 35.0582 56.238 34.8025 56.2242 34.548C56.2006 34.1166 55.9236 33.8425 55.5165 33.8264C55.0978 33.8099 54.7699 34.0478 54.7441 34.4723C54.7087 35.0547 54.709 35.6428 54.7466 36.2249C54.7736 36.6424 55.1153 36.8825 55.5291 36.8593C55.9139 36.8376 56.1963 36.5683 56.2215 36.1686C56.2396 35.8847 56.225 35.5987 56.225 35.3134ZM47.7346 35.3451C47.7346 35.0602 47.7535 34.7736 47.7301 34.4905C47.6958 34.0728 47.3886 33.8173 46.9721 33.8257C46.5777 33.8337 46.274 34.0852 46.2563 34.485C46.2311 35.0539 46.2317 35.6254 46.2557 36.1944C46.2724 36.5917 46.5775 36.8501 46.9666 36.8606C47.3778 36.8717 47.6948 36.6116 47.7297 36.1996C47.7537 35.9167 47.7344 35.6301 47.7346 35.3451Z" fill="#009247"/>
<path fill-rule="evenodd" clip-rule="evenodd" d="M46.9718 43.0581C47.6541 43.0632 48.1507 43.3771 48.4534 43.9829C48.749 44.5743 49.0493 45.1657 49.2999 45.7766C49.4303 46.0941 49.6416 46.1913 49.9406 46.2326C50.5512 46.3169 51.1636 46.3951 51.7686 46.5104C53.1019 46.7644 53.6192 48.2856 52.7124 49.3042C52.2523 49.8211 51.7314 50.2838 51.2702 50.8C51.142 50.9436 51.0551 51.1988 51.0768 51.3882C51.1483 52.0142 51.2769 52.6338 51.3859 53.2557C51.512 53.9742 51.3861 54.6138 50.7686 55.0704C50.1543 55.5246 49.5126 55.4899 48.8643 55.126C48.3397 54.8316 47.818 54.5298 47.2767 54.2695C47.1228 54.1955 46.8745 54.1921 46.7212 54.2651C46.1787 54.5229 45.6559 54.8226 45.1309 55.1162C44.4988 55.4695 43.8671 55.5064 43.2583 55.09C42.6428 54.6689 42.4736 54.0494 42.5819 53.3419C42.6774 52.718 42.7825 52.0952 42.9024 51.4757C42.9585 51.186 42.9211 50.967 42.6893 50.7506C42.2163 50.309 41.7723 49.8361 41.3208 49.3716C40.8354 48.8721 40.6925 48.2739 40.9114 47.6231C41.131 46.9696 41.6099 46.5933 42.3031 46.496C42.8836 46.4145 43.4612 46.3113 44.0423 46.2331C44.3476 46.192 44.5485 46.0795 44.6778 45.7666C44.9301 45.1565 45.2281 44.5642 45.5264 43.9743C45.8221 43.3893 46.3029 43.0725 46.9718 43.0581ZM49.8717 53.9109C49.8562 53.7092 49.8559 53.6361 49.8442 53.565C49.7177 52.7941 49.5987 52.0218 49.4579 51.2534C49.367 50.7572 49.4544 50.3572 49.8519 49.9971C50.3867 49.5129 50.8727 48.9745 51.3749 48.4548C51.4699 48.3564 51.5435 48.2373 51.6716 48.0695C50.7783 47.9294 49.9815 47.7765 49.1779 47.6883C48.6543 47.6308 48.3285 47.4072 48.122 46.9212C47.8345 46.2442 47.5 45.5871 47.1816 44.9233C47.1341 44.8243 47.0645 44.7358 46.9672 44.5827C46.6568 45.229 46.3123 45.7868 46.1157 46.3927C45.7997 47.3661 45.1685 47.7589 44.1775 47.7861C43.5773 47.8025 42.9809 47.9644 42.2827 48.0771C42.4597 48.2832 42.5573 48.4102 42.6683 48.5241C43.1624 49.0308 43.6438 49.5514 44.1625 50.0318C44.5125 50.3561 44.6167 50.7191 44.5322 51.1676C44.4487 51.6104 44.3694 52.0542 44.2971 52.4991C44.227 52.9309 44.1681 53.3645 44.0864 53.9188C44.9107 53.4641 45.6302 53.0945 46.3206 52.6769C46.7885 52.394 47.1981 52.3948 47.665 52.6775C48.3542 53.0952 49.0714 53.4669 49.8717 53.9109Z" fill="#009247"/>
</svg>
