<svg width="93" height="92" viewBox="0 0 93 92" fill="none" xmlns="http://www.w3.org/2000/svg">
<rect x="8.5" y="7.5" width="84" height="84" rx="22.5" stroke="#009247" stroke-dasharray="2 2"/>
<rect width="85" height="85" rx="23" fill="#8BC53F" fill-opacity="0.33"/>
<path fill-rule="evenodd" clip-rule="evenodd" d="M37.3875 18C42.5084 18 47.6291 18 52.7499 18C52.7769 18.0217 52.8009 18.0561 52.8315 18.0634C54.4106 18.4427 55.4486 19.3946 55.9489 20.9488C55.9908 21.0789 56.2448 21.2049 56.4106 21.2199C57.2114 21.2929 58.0251 21.2655 58.8173 21.3852C62.811 21.9876 66.2114 25.6923 66.4171 29.7111C66.5129 31.5823 66.4687 33.4607 66.4902 35.3357C66.4922 35.5111 66.5094 35.6862 66.5237 35.935C66.6869 35.7857 66.7654 35.7161 66.8413 35.6443C68.3896 34.1797 70.442 34.1943 71.9595 35.683C72.2599 35.9777 72.5586 36.2741 72.85 36.5774C73.2412 36.9843 73.2757 37.4518 72.9495 37.785C72.6224 38.1191 72.1429 38.0962 71.7392 37.7125C71.3706 37.3623 71.0269 36.9854 70.6492 36.6461C70.1145 36.1661 69.4928 36.0781 68.8347 36.2552C70.573 37.9934 72.2888 39.7092 73.9901 41.4103C74.197 41.0162 74.1822 40.6731 73.8936 39.9908C73.6552 39.4274 73.7837 38.9945 74.2484 38.7935C74.6719 38.6104 75.0975 38.8046 75.3457 39.3254C75.8338 40.3494 75.8505 41.3891 75.3646 42.4158C75.2413 42.6766 75.2564 42.8296 75.4488 43.056C76.3617 44.1307 76.2995 45.4968 75.3128 46.5176C74.8498 46.9966 74.3722 47.4612 73.901 47.9322C72.5374 49.2958 71.1774 50.6629 69.8082 52.0207C69.4198 52.4056 68.9186 52.4151 68.5978 52.0765C68.2845 51.7457 68.3108 51.2974 68.6774 50.9045C68.8807 50.6867 69.0971 50.4812 69.3077 50.2704C70.8945 48.6835 72.4837 47.0993 74.066 45.5084C74.5961 44.9753 74.6092 44.5309 74.1133 43.9919C73.9759 44.1207 73.835 44.246 73.7016 44.3791C71.5065 46.5723 69.3271 48.7814 67.1067 50.9485C66.6367 51.4074 66.4687 51.863 66.4748 52.5064C66.5047 55.7844 66.5205 59.0631 66.4802 62.341C66.4301 66.4066 64.5492 69.3563 60.8697 71.0898C60.0466 71.4776 59.1069 71.6185 58.2212 71.8731C49.4528 71.8731 40.6843 71.8731 31.9157 71.8731C31.5474 71.784 31.1774 71.7006 30.8107 71.6051C26.589 70.5049 23.7307 66.8445 23.7269 62.4815C23.7173 51.8557 23.7231 41.2299 23.7272 30.6039C23.7274 30.2373 23.7685 29.8697 23.8068 29.5042C24.2128 25.6238 27.1355 22.2998 30.9358 21.491C31.9881 21.2671 33.0844 21.2481 34.2124 21.1297C34.5303 19.9165 35.2625 18.9373 36.4821 18.3623C36.7759 18.2245 37.0856 18.1201 37.3875 18ZM60.7204 54.0582C60.7204 54.3257 60.7204 54.5147 60.7204 54.7039C60.7204 56.9833 60.7257 59.2628 60.719 61.5422C60.7097 64.7086 58.5217 66.909 55.369 66.9116C48.5304 66.9172 41.6919 66.917 34.8536 66.9117C31.6888 66.9092 29.5053 64.7165 29.5044 61.5523C29.5025 52.8026 29.5036 44.0528 29.5041 35.3032C29.5041 35.1455 29.4877 34.9833 29.5187 34.831C29.6063 34.3981 29.8889 34.1353 30.3253 34.1509C30.7536 34.1661 31.0446 34.4113 31.0817 34.8731C31.0967 35.0651 31.0938 35.2586 31.0939 35.4513C31.0945 40.0629 31.0943 44.6744 31.0943 49.2861C31.0943 53.3891 31.0904 57.4922 31.0966 61.5954C31.0991 63.2761 31.9367 64.5805 33.3935 65.0691C33.9118 65.243 34.492 65.2954 35.0441 65.2967C41.7423 65.3114 48.4406 65.3062 55.1387 65.3062C55.2612 65.3062 55.3837 65.3083 55.5062 65.3043C57.7032 65.233 59.085 63.8252 59.0954 61.6274C59.1049 59.5935 59.0982 57.5595 59.0965 55.5256C59.0964 55.3716 59.0809 55.218 59.0707 55.0317C58.9172 55.0757 58.8019 55.1052 58.6888 55.1419C57.0035 55.6879 55.3671 54.7468 55.026 53.0082C54.823 51.9734 55.1927 51.1119 55.9501 50.4104C56.21 50.1697 56.3338 49.9546 56.2493 49.557C56.0209 48.4846 56.1922 47.4373 56.6089 46.4239C57.0647 45.3159 57.9562 44.5639 58.7421 43.719C58.9315 43.5153 59.0797 43.1843 59.0828 42.91C59.1092 40.5081 59.0999 38.1056 59.0974 35.7035C59.0955 33.8801 59.1215 32.0556 59.0729 30.2334C59.0303 28.6301 57.681 27.2388 56.092 27.0497C55.7729 27.0118 55.553 27.0753 55.3517 27.379C54.7869 28.2298 53.9727 28.7587 52.9842 29.0112C52.737 29.0744 52.4822 29.1079 52.2125 29.1586C52.2125 29.2917 52.2147 29.378 52.2122 29.4643C52.1659 31.2 51.0422 32.3059 49.313 32.3079C46.4725 32.3108 43.632 32.312 40.7914 32.3069C39.44 32.3045 38.3878 31.4844 38.0867 30.1861C38.0094 29.8528 38.0157 29.5004 37.9815 29.1348C36.685 29.002 35.6044 28.4778 34.8738 27.3896C34.657 27.0666 34.4258 27.0055 34.0883 27.0523C32.6065 27.2586 31.3566 28.4747 31.1708 29.9555C31.0949 30.5613 31.1214 31.1795 31.086 31.791C31.059 32.2585 30.7536 32.5647 30.3313 32.5801C29.9251 32.595 29.5046 32.2744 29.5231 31.8444C29.5646 30.871 29.5148 29.8504 29.7947 28.9387C30.4289 26.8712 31.9769 25.7669 34.0993 25.4304C34.0993 24.5717 34.0993 23.7224 34.0993 22.8605C32.41 22.7173 30.8148 22.9336 29.3585 23.7766C26.6707 25.3325 25.3374 27.6891 25.3339 30.7903C25.328 36.2785 25.3321 41.7668 25.3321 47.2552C25.3321 52.2875 25.3197 57.32 25.3359 62.3524C25.3506 66.8396 28.6755 70.2761 33.0619 70.2899C41.0926 70.3154 49.1235 70.3152 57.1542 70.29C61.4636 70.2766 64.8369 66.8727 64.8664 62.5616C64.8868 59.5809 64.8711 56.5999 64.8693 53.6191C64.8693 53.4767 64.8452 53.3344 64.8271 53.1353C63.5642 53.9946 62.2301 54.2375 60.7204 54.0582ZM45.1147 27.5155C47.3756 27.5155 49.6367 27.5259 51.8975 27.512C53.4836 27.5023 54.4528 26.5409 54.4829 24.9642C54.5008 24.018 54.5035 23.0711 54.4825 22.1251C54.4477 20.571 53.4347 19.5806 51.8798 19.5787C47.3579 19.5731 42.8362 19.5724 38.3143 19.5791C36.7574 19.5815 35.7276 20.6272 35.713 22.1964C35.705 23.0375 35.7106 23.879 35.7116 24.7202C35.7137 26.5507 36.6659 27.512 38.4897 27.5152C40.6981 27.5189 42.9063 27.5161 45.1147 27.5155ZM67.3474 37.3336C66.9386 37.7637 66.503 38.2415 66.0467 38.6988C63.695 41.0562 61.3314 43.4014 58.9857 45.7645C57.5964 47.1643 57.361 49.1433 58.3624 50.7148C59.7356 52.8701 62.6524 53.1555 64.5316 51.292C67.2692 48.5771 69.9874 45.8428 72.7134 43.116C72.7976 43.0316 72.8742 42.94 72.9107 42.9C71.0612 41.0497 69.234 39.2214 67.3474 37.3336ZM56.1262 22.8579C56.1262 23.7387 56.1262 24.5876 56.1262 25.424C56.4612 25.5013 56.7708 25.5549 57.0696 25.6447C59.3005 26.3155 60.712 28.2679 60.7183 30.7172C60.7272 34.169 60.7205 37.621 60.7218 41.0729C60.7218 41.256 60.7371 41.4391 60.7473 41.6633C60.8408 41.6072 60.8885 41.5899 60.921 41.5575C62.1737 40.3077 63.4316 39.0629 64.6672 37.7963C64.8014 37.6587 64.861 37.3951 64.8621 37.1893C64.8756 34.9816 64.8825 32.7735 64.8616 30.5659C64.8561 29.9929 64.8084 29.4066 64.6776 28.8506C63.7535 24.921 60.3846 22.5526 56.1262 22.8579ZM39.6383 29.1528C39.5377 30.1248 39.9378 30.7149 40.7679 30.7217C43.6559 30.7449 46.5438 30.7451 49.4317 30.7225C50.2992 30.7158 50.7494 30.0299 50.5266 29.1528C46.9124 29.1528 43.2933 29.1528 39.6383 29.1528ZM56.8588 51.7956C56.4558 52.1716 56.4259 52.8914 56.9409 53.381C57.4285 53.8446 58.1566 53.7954 58.4688 53.4395C57.927 52.8863 57.3957 52.3437 56.8588 51.7956Z" fill="#009247"/>
<path fill-rule="evenodd" clip-rule="evenodd" d="M47.646 35.276C49.5922 35.276 51.5385 35.2732 53.4845 35.2798C53.7086 35.2806 54.002 35.2561 54.1404 35.3801C54.3609 35.5781 54.6059 35.8932 54.6012 36.1545C54.5969 36.3861 54.2996 36.6568 54.0688 36.8241C53.9237 36.9294 53.6633 36.8913 53.4546 36.8913C49.6148 36.8944 45.775 36.8942 41.9349 36.8918C41.7434 36.8917 41.5471 36.8872 41.361 36.8476C40.9943 36.7695 40.7851 36.5294 40.7595 36.1515C40.7326 35.753 40.908 35.4653 41.292 35.3494C41.4882 35.2901 41.7047 35.2793 41.9123 35.2788C43.8235 35.274 45.7348 35.276 47.646 35.276Z" fill="#009247"/>
<path fill-rule="evenodd" clip-rule="evenodd" d="M52.4806 63.6636C50.8602 63.6632 49.5346 62.3508 49.5225 60.7353C49.5102 59.1123 50.8651 57.77 52.5077 57.7779C54.1216 57.7856 55.445 59.1238 55.4332 60.7361C55.4215 62.3597 54.1056 63.6642 52.4806 63.6636ZM51.1482 60.7087C51.143 61.4702 51.7527 62.0928 52.4944 62.0831C53.2209 62.0737 53.8118 61.4726 53.8175 60.7369C53.8236 59.9749 53.2157 59.3553 52.4703 59.3638C51.7423 59.3721 51.1534 59.9711 51.1482 60.7087Z" fill="#009247"/>
<path fill-rule="evenodd" clip-rule="evenodd" d="M47.6984 44.4259C49.6445 44.4259 51.5906 44.4233 53.5366 44.4294C53.743 44.4301 54.0189 44.4073 54.1399 44.5234C54.3558 44.7306 54.6199 45.047 54.5996 45.2964C54.5792 45.5439 54.2611 45.8018 54.0191 45.9824C53.8903 46.0788 53.6464 46.0316 53.4543 46.0316C49.6149 46.0337 45.7751 46.0334 41.9357 46.0323C41.7781 46.0323 41.6186 46.0347 41.4636 46.0125C41.0228 45.9495 40.7678 45.6993 40.7588 45.2435C40.7495 44.7821 41.0196 44.5368 41.441 44.4441C41.5922 44.4108 41.7551 44.4266 41.9127 44.4266C43.8413 44.4254 45.7698 44.4257 47.6984 44.4259Z" fill="#009247"/>
<path fill-rule="evenodd" clip-rule="evenodd" d="M47.7209 39.8764C49.7367 39.8764 51.7528 39.8703 53.7686 39.8801C54.4218 39.8833 54.8592 40.4412 54.5689 40.9441C54.4305 41.1837 54.0643 41.4353 53.7996 41.4374C49.7328 41.4684 45.6658 41.4618 41.599 41.4554C41.0738 41.4545 40.7519 41.1244 40.7564 40.6529C40.7609 40.1792 41.0731 39.8816 41.6206 39.8795C43.654 39.8717 45.6874 39.8763 47.7209 39.8764Z" fill="#009247"/>
<path fill-rule="evenodd" clip-rule="evenodd" d="M47.6992 49.0206C49.6978 49.0205 51.6962 49.0244 53.6948 49.0171C54.0989 49.0157 54.4243 49.1237 54.5912 49.5166C54.7784 49.9575 54.5124 50.4611 54.0289 50.581C53.8954 50.6142 53.7508 50.6095 53.6112 50.6095C49.6668 50.6109 45.7222 50.6078 41.7777 50.6144C41.3379 50.6151 40.9657 50.5189 40.7942 50.0777C40.5816 49.5309 40.9859 49.0272 41.651 49.0241C43.6671 49.0153 45.6833 49.0209 47.6992 49.0206Z" fill="#009247"/>
<path fill-rule="evenodd" clip-rule="evenodd" d="M37.6064 36.8901C37.2041 36.8894 36.801 36.9079 36.4003 36.8848C35.8818 36.8547 35.5909 36.5643 35.5794 36.1126C35.5674 35.6437 35.8768 35.3022 36.4029 35.2859C37.2065 35.2612 38.0116 35.2636 38.8154 35.2842C39.3257 35.2974 39.6811 35.6551 39.6811 36.0895C39.6808 36.525 39.3296 36.8618 38.8124 36.887C38.4114 36.9064 38.0085 36.8908 37.6064 36.8901Z" fill="#009247"/>
<path fill-rule="evenodd" clip-rule="evenodd" d="M37.6232 41.4582C37.2212 41.4582 36.819 41.4681 36.4171 41.4557C35.8995 41.4395 35.573 41.1174 35.5782 40.6507C35.5834 40.1952 35.883 39.891 36.3884 39.8818C37.2096 39.8667 38.0316 39.867 38.8528 39.8818C39.3383 39.8905 39.6732 40.2205 39.6814 40.6491C39.6901 41.0941 39.3351 41.4394 38.8291 41.4557C38.4275 41.4686 38.0252 41.4582 37.6232 41.4582Z" fill="#009247"/>
<path fill-rule="evenodd" clip-rule="evenodd" d="M37.5853 50.609C37.1833 50.609 36.7805 50.6246 36.3795 50.605C35.892 50.5812 35.5804 50.2574 35.5781 49.8121C35.5759 49.3533 35.871 49.0394 36.3732 49.0293C37.2118 49.0125 38.0512 49.0131 38.8898 49.0309C39.3442 49.0406 39.6635 49.3685 39.6808 49.7797C39.6986 50.1988 39.3607 50.575 38.896 50.602C38.4605 50.6272 38.0224 50.6074 37.5853 50.6074C37.5853 50.6079 37.5853 50.6084 37.5853 50.609Z" fill="#009247"/>
<path fill-rule="evenodd" clip-rule="evenodd" d="M37.6264 46.0247C37.2069 46.0247 36.7862 46.0452 36.3682 46.0196C35.8579 45.9883 35.5743 45.6828 35.5784 45.2244C35.5825 44.7797 35.8909 44.4476 36.3835 44.4343C37.2046 44.4123 38.027 44.4131 38.8481 44.4333C39.3265 44.4451 39.6695 44.7949 39.6819 45.2142C39.6948 45.6515 39.3472 45.9845 38.8323 46.0276C38.7975 46.0305 38.7624 46.0316 38.7276 46.0316C38.3604 46.0319 37.9935 46.0318 37.6261 46.0318C37.6264 46.0295 37.6264 46.0271 37.6264 46.0247Z" fill="#009247"/>
<path fill-rule="evenodd" clip-rule="evenodd" d="M51.6958 56.2796C51.6996 55.7388 52.0216 55.3688 52.4858 55.3716C52.9504 55.3744 53.2707 55.7465 53.2731 56.2863C53.2758 56.8509 52.9324 57.2421 52.4528 57.2207C51.9887 57.2 51.6919 56.8313 51.6958 56.2796Z" fill="#009247"/>
<path fill-rule="evenodd" clip-rule="evenodd" d="M50.7431 57.2308C50.7486 57.6662 50.3748 58.0423 49.9436 58.0358C49.5124 58.0294 49.0164 57.5085 49.0084 57.0539C49.0007 56.6231 49.3791 56.2461 49.8141 56.251C50.252 56.2561 50.7372 56.7678 50.7431 57.2308Z" fill="#009247"/>
<path fill-rule="evenodd" clip-rule="evenodd" d="M54.9906 58.0016C54.532 58.0051 54.1967 57.6664 54.203 57.206C54.2093 56.7325 54.6848 56.2207 55.1213 56.2178C55.5546 56.215 55.9103 56.5836 55.9068 57.0315C55.9029 57.521 55.4523 57.9981 54.9906 58.0016Z" fill="#009247"/>
</svg>
