<svg width="78" height="87" viewBox="0 0 78 87" fill="none" xmlns="http://www.w3.org/2000/svg">
<path opacity="0.651" fill-rule="evenodd" clip-rule="evenodd" d="M0 72.0078C0 64.197 6.29755 57.875 14.0662 57.875C21.8348 57.875 28.1323 64.197 28.1323 72.0078C28.1323 79.8187 21.8348 86.1406 14.0662 86.1406C6.29755 86.1406 0 79.8187 0 72.0078Z" fill="#86C63A"/>
<path fill-rule="evenodd" clip-rule="evenodd" d="M41.2995 41.9978C42.0895 41.9978 42.6161 41.4645 42.6161 40.6756C42.6161 36.9869 45.5127 34.0981 49.1992 34.0981C49.9892 34.0981 50.5159 33.5648 50.5159 32.7759C50.5159 31.987 49.9892 31.4648 49.1992 31.4648C44.0639 31.4648 39.9829 35.5425 39.9829 40.6756C39.9829 41.4645 40.5096 41.9978 41.2995 41.9978Z" fill="#392413"/>
<path fill-rule="evenodd" clip-rule="evenodd" d="M41.8153 31.3767C42.0186 31.2989 42.1875 31.1767 42.3142 31.01C44.2374 29.6545 46.5885 28.8545 49.1395 28.8545C55.6992 28.8545 60.9424 34.2321 60.9424 40.6652C60.9424 47.2205 55.6992 52.4648 49.1395 52.4648C42.5797 52.4648 37.3321 47.2205 37.3321 40.6652C37.3321 36.8765 39.0787 33.5321 41.8153 31.3767ZM66.1978 72.153C66.1978 74.3751 64.4867 76.0862 62.2535 76.0862H20.2761C18.0462 76.0862 16.3407 74.3751 16.3407 72.153V15.7328C16.3407 13.5106 18.0462 11.7996 20.2761 11.7996H26.8358V17.055C26.8358 18.4882 28.0169 19.6771 29.4602 19.6771H53.0749C54.5182 19.6771 55.6992 18.4882 55.6992 17.055V11.7996H62.2535C64.4867 11.7996 66.1978 13.5106 66.1978 15.7328V55.8758L60.2313 49.9204C62.3201 47.4205 63.5756 44.1984 63.5756 40.6652C63.5756 32.6655 57.1425 26.2324 49.1395 26.2324C46.0318 26.2324 43.1619 27.199 40.8131 28.8545H36.02C35.2322 28.8545 34.7078 29.3767 34.7078 30.1656C34.7078 30.9545 35.2322 31.4767 36.02 31.4767H37.9854C36.1944 33.6544 35.0333 36.3654 34.7667 39.3541H32.0845C31.2968 39.3541 30.7724 39.8764 30.7724 40.6652C30.7724 41.4541 31.2968 41.9763 32.0845 41.9763H34.7667C35.4244 49.3538 41.5786 55.098 49.1395 55.098C52.6705 55.098 55.8948 53.8425 58.398 51.7537L66.1978 59.5534V72.153ZM29.4602 7.86639H34.7078C35.4955 7.86639 36.02 7.34419 36.02 6.55533V3.9332C36.02 3.14434 36.5444 2.62213 37.3321 2.62213H45.203C45.9907 2.62213 46.5151 3.27767 46.5151 3.9332V6.55533C46.5151 7.34419 47.0396 7.86639 47.8273 7.86639H53.0749V10.4885V17.0438H29.4602V10.4885V7.86639ZM77.6085 67.2976L68.8199 58.509V15.7328C68.8199 12.0662 65.9311 9.17746 62.2535 9.17746H55.6992V7.86639C55.6992 6.42199 54.5182 5.24426 53.0749 5.24426H49.1395V3.9332C49.1395 1.69995 47.434 0 45.2041 0H37.3321C35.1011 0 33.3967 1.83328 33.3967 3.9332V5.24426H29.4602C28.0169 5.24426 26.837 6.42199 26.837 7.86639V9.17746H20.2761C16.6029 9.17746 13.7163 12.0662 13.7163 15.7328V72.153C13.7163 75.8195 16.6029 78.7083 20.2761 78.7083H62.2535C65.9311 78.7083 68.8199 75.8195 68.8199 72.153V62.1756L75.7752 69.1309C76.0307 69.3975 76.2974 69.5197 76.6863 69.5197C77.0863 69.5197 77.3418 69.3975 77.6085 69.1309C78.1307 68.6087 78.1307 67.8198 77.6085 67.2976Z" fill="#392413"/>
<path fill-rule="evenodd" clip-rule="evenodd" d="M22.9001 52.4766H33.4331C34.2219 52.4766 34.7486 51.9544 34.7486 51.1655C34.7486 50.3767 34.2219 49.8545 33.4331 49.8545H22.9001C22.1101 49.8545 21.5835 50.3767 21.5835 51.1655C21.5835 51.9433 22.1101 52.4766 22.9001 52.4766Z" fill="#392413"/>
<path fill-rule="evenodd" clip-rule="evenodd" d="M50.4415 60.3867H34.7565C33.972 60.3867 33.4487 60.9089 33.4487 61.6978C33.4487 62.4866 33.972 63.0088 34.7565 63.0088H50.4415C51.2259 63.0088 51.7492 62.4866 51.7492 61.6978C51.7492 60.92 51.2259 60.3867 50.4415 60.3867Z" fill="#392413"/>
<path fill-rule="evenodd" clip-rule="evenodd" d="M55.7104 60.3867C54.9149 60.3867 54.3838 60.9089 54.3838 61.6978C54.3838 62.4866 54.9149 63.0088 55.7104 63.0088H59.698C60.4869 63.0088 61.0202 62.4866 61.0202 61.6978C61.0202 60.9089 60.4869 60.3867 59.698 60.3867H55.7104Z" fill="#392413"/>
<path fill-rule="evenodd" clip-rule="evenodd" d="M22.9001 31.544H30.7998C31.5898 31.544 32.1165 31.0218 32.1165 30.2329C32.1165 29.4441 31.5898 28.9219 30.7998 28.9219H22.9001C22.1101 28.9219 21.5835 29.4441 21.5835 30.2329C21.5835 31.0218 22.1101 31.544 22.9001 31.544Z" fill="#392413"/>
<path fill-rule="evenodd" clip-rule="evenodd" d="M22.9111 41.9323H26.8932C27.6898 41.9323 28.2209 41.4212 28.2209 40.6324C28.2209 39.8435 27.6898 39.3213 26.8932 39.3213H22.9111C22.1156 39.3213 21.5845 39.8435 21.5845 40.6324C21.5845 41.4212 22.1156 41.9323 22.9111 41.9323Z" fill="#392413"/>
<path fill-rule="evenodd" clip-rule="evenodd" d="M29.5299 60.3867H22.9079C22.1135 60.3867 21.5835 60.9089 21.5835 61.6978C21.5835 62.4866 22.1135 63.0088 22.9079 63.0088H29.5299C30.3243 63.0088 30.8532 62.4866 30.8532 61.6978C30.8543 60.92 30.3243 60.3867 29.5299 60.3867Z" fill="#392413"/>
</svg>
