<svg width="93" height="92" viewBox="0 0 93 92" fill="none" xmlns="http://www.w3.org/2000/svg">
<rect x="8.5" y="7.5" width="84" height="84" rx="22.5" stroke="#009247" stroke-dasharray="2 2"/>
<rect width="85" height="85" rx="23" fill="#8BC53F" fill-opacity="0.33"/>
<path fill-rule="evenodd" clip-rule="evenodd" d="M64.4319 22C64.8083 22.2257 64.9124 22.5591 64.9123 22.9905C64.9041 38.3833 64.9056 53.7762 64.9049 69.1689C64.9048 69.9558 64.6962 70.1578 63.8943 70.158C61.3393 70.1587 58.7842 70.1585 56.2292 70.1579C56.0882 70.1579 55.9426 70.1739 55.8071 70.1447C55.4228 70.0618 55.2007 69.8233 55.2168 69.4172C55.2318 69.0385 55.4447 68.7995 55.8167 68.7546C56.126 68.7172 56.4421 68.7297 56.7553 68.7293C58.8089 68.7277 60.8622 68.7285 62.9157 68.7285C63.0843 68.7285 63.253 68.7285 63.4491 68.7285C63.4491 53.6189 63.4491 38.563 63.4491 23.4694C52.796 23.4694 42.1485 23.4694 31.4689 23.4694C31.4689 38.5385 31.4689 53.5937 31.4689 68.7285C31.6684 68.7285 31.8644 68.7285 32.0604 68.7285C39.0513 68.7285 46.0425 68.7283 53.0335 68.7293C53.2369 68.7294 53.4425 68.726 53.6434 68.7526C54.028 68.8036 54.2347 69.0673 54.2448 69.425C54.2558 69.8098 54.0323 70.0728 53.6388 70.1454C53.5019 70.1708 53.3574 70.1579 53.2165 70.1579C45.8178 70.1583 38.4193 70.1585 31.0207 70.158C30.2053 70.158 30.0069 69.9553 30.0068 69.1242C30.0067 53.7629 30.0081 38.4014 30 23.04C29.9998 22.5991 30.0762 22.2374 30.4752 22C41.7941 22 53.1131 22 64.4319 22Z" fill="#009247"/>
<path fill-rule="evenodd" clip-rule="evenodd" d="M60.5641 26.3297C51.8176 26.3297 43.1055 26.3297 34.3163 26.3297C34.3163 26.4988 34.3163 26.6632 34.3163 26.8274C34.3161 27.6427 34.3255 28.4579 34.3122 29.273C34.3033 29.8133 34.0135 30.1271 33.5724 30.1214C33.1496 30.116 32.8573 29.8134 32.8511 29.3016C32.8362 28.0947 32.8345 26.8873 32.8518 25.6805C32.8595 25.1481 33.1455 24.8838 33.6729 24.8431C33.7976 24.8335 33.9237 24.8401 34.049 24.8401C42.9846 24.84 51.9204 24.84 60.8562 24.8401C61.8672 24.8401 62.0646 25.0377 62.0646 26.0501C62.0646 34.9859 62.0646 43.9216 62.0646 52.8573C62.0646 53.866 61.869 54.0596 60.8504 54.0596C51.9304 54.0597 43.0104 54.0597 34.0904 54.0596C33.0357 54.0596 32.8451 53.8731 32.8451 52.8392C32.8451 45.9728 32.8444 39.1064 32.8478 32.2401C32.8478 32.0231 32.8161 31.7547 32.9262 31.602C33.0802 31.3885 33.353 31.1342 33.5767 31.1327C33.8002 31.131 34.0773 31.3812 34.2333 31.593C34.3444 31.7437 34.3133 32.0135 34.3135 32.2303C34.3169 38.7988 34.3162 45.3674 34.3162 51.9359C34.3162 52.1357 34.3162 52.3355 34.3162 52.5629C43.0859 52.5629 51.8089 52.5629 60.564 52.5629C60.5641 43.8274 60.5641 35.1041 60.5641 26.3297Z" fill="#009247"/>
<path fill-rule="evenodd" clip-rule="evenodd" d="M53.1424 38.1736C52.0192 38.1736 50.9542 38.1752 49.8892 38.1731C49.1315 38.1716 48.9016 37.9489 48.9 37.2005C48.8963 35.5704 48.8988 33.9403 48.8988 32.3101C48.8988 32.1443 48.8988 31.9786 48.8988 31.7243C47.8761 32.3074 47.1523 33.063 46.5908 33.9776C45.9726 34.9845 45.6574 36.0874 45.6135 37.2696C45.5923 37.8434 45.3058 38.1778 44.8649 38.1671C44.4309 38.1565 44.155 37.817 44.1521 37.2358C44.1439 35.6058 44.1489 33.9757 44.1489 32.3455C44.1489 32.1744 44.1489 32.0034 44.1489 31.6957C43.7384 32.0042 43.3924 32.2284 43.0879 32.4993C41.827 33.6199 41.2282 35.066 40.9071 36.7016C39.9675 41.4866 38.9659 46.2595 37.9884 51.0373C37.976 51.0984 37.9614 51.1594 37.9442 51.2194C37.8041 51.7047 37.4669 51.9289 37.0439 51.8195C36.6563 51.7191 36.44 51.3447 36.5325 50.8964C37.6212 45.6152 38.654 40.3214 39.8331 35.0605C40.3015 32.9704 41.72 31.4555 43.5748 30.3827C43.8588 30.2186 44.1532 30.0684 44.4547 29.9402C45.103 29.6644 45.5824 29.9681 45.6063 30.6728C45.6237 31.1896 45.6099 31.7072 45.6102 32.2245C45.6102 32.3738 45.6102 32.523 45.6102 32.6278C46.3293 31.9889 47.0091 31.3278 47.7519 30.7474C48.1896 30.4055 48.7127 30.1595 49.2236 29.9284C49.8433 29.6479 50.3167 29.9758 50.3197 30.6643C50.3281 32.4982 50.3227 34.332 50.3228 36.1659C50.3228 36.3347 50.3228 36.5033 50.3228 36.7269C50.5511 36.7269 50.7354 36.7269 50.9198 36.7269C52.8948 36.7269 54.8698 36.7258 56.8446 36.7274C57.7912 36.7281 57.9741 36.9272 57.9507 37.8539C57.8168 43.1331 53.8845 47.7993 48.3244 48.6905C48.0314 48.7373 47.7346 48.7607 47.3668 48.8034C47.3668 49.3728 47.3704 49.9305 47.3651 50.4881C47.3628 50.7378 47.3599 50.9899 47.3266 51.2367C47.2716 51.6421 47.0075 51.8391 46.6124 51.8352C46.2306 51.8313 45.9494 51.601 45.9374 51.2421C45.9013 50.1623 45.895 49.0795 45.936 48.0003C45.9528 47.564 46.3085 47.3876 46.7385 47.3736C48.113 47.3288 49.4387 47.0623 50.6941 46.4819C52.9775 45.4262 54.6314 43.7493 55.702 41.4239C54.3316 40.759 53.4713 39.6877 53.1424 38.1736ZM54.6588 38.1935C54.9059 39.0362 55.3888 39.6213 56.2173 40.0327C56.3231 39.3686 56.4146 38.7956 56.5106 38.1935C55.8687 38.1935 55.2953 38.1935 54.6588 38.1935Z" fill="#009247"/>
<path fill-rule="evenodd" clip-rule="evenodd" d="M47.4363 64.3146C43.7846 64.3146 40.1329 64.3146 36.4812 64.3146C36.3713 64.3146 36.2617 64.3162 36.1521 64.3142C35.5517 64.3037 35.1899 64.0229 35.1964 63.5726C35.2028 63.126 35.5606 62.8485 36.1694 62.8483C43.6922 62.8458 51.215 62.8462 58.7377 62.8498C58.9071 62.8499 59.127 62.8391 59.235 62.9338C59.4302 63.1047 59.6773 63.3492 59.6819 63.5674C59.6864 63.7859 59.4603 64.0619 59.2603 64.2144C59.1107 64.3287 58.8419 64.3107 58.6263 64.3111C54.8964 64.316 51.1665 64.3146 47.4363 64.3146Z" fill="#009247"/>
<path fill-rule="evenodd" clip-rule="evenodd" d="M47.4064 61.2061C43.7074 61.2061 40.0083 61.2063 36.3093 61.2059C35.5759 61.2057 35.2038 60.9611 35.1964 60.4786C35.189 59.9923 35.5656 59.7352 36.292 59.7352C43.7371 59.7347 51.1822 59.7347 58.6274 59.7352C59.3531 59.7352 59.7271 59.995 59.7152 60.4852C59.7036 60.9579 59.3396 61.2054 58.6445 61.2056C54.8985 61.2066 51.1524 61.2061 47.4064 61.2061Z" fill="#009247"/>
<path fill-rule="evenodd" clip-rule="evenodd" d="M44.3021 56.6272C46.9669 56.6272 49.6317 56.6265 52.2965 56.6288C52.4678 56.6289 52.6434 56.6294 52.8094 56.6653C53.1775 56.745 53.3922 57.0009 53.3862 57.3647C53.3802 57.7237 53.1802 57.9863 52.7967 58.0485C52.6279 58.0758 52.4553 58.0917 52.2845 58.0917C46.9549 58.094 41.6253 58.0935 36.2959 58.0935C36.2644 58.0935 36.2331 58.0939 36.2018 58.0934C35.5576 58.084 35.1909 57.814 35.1959 57.353C35.2008 56.8909 35.5641 56.6283 36.2136 56.6278C38.9098 56.6263 41.6059 56.6272 44.3021 56.6272Z" fill="#009247"/>
<path fill-rule="evenodd" clip-rule="evenodd" d="M57.0898 56.6275C57.6534 56.6274 58.2166 56.6227 58.7799 56.6287C59.3581 56.6349 59.6997 56.8989 59.7156 57.3375C59.731 57.7702 59.3817 58.0837 58.8226 58.0892C57.6177 58.1012 56.4125 58.1025 55.2078 58.0882C54.6556 58.0816 54.3571 57.8013 54.3579 57.3567C54.359 56.9131 54.6675 56.6398 55.2122 56.6301C55.8379 56.6192 56.4638 56.6276 57.0898 56.6275Z" fill="#009247"/>
<path fill-rule="evenodd" clip-rule="evenodd" d="M47.8749 40.8835C47.8563 41.0655 47.8549 41.2711 47.8108 41.4672C47.7291 41.831 47.4957 42.0374 47.1115 42.0322C46.7504 42.0272 46.4907 41.8339 46.451 41.4875C46.4017 41.058 46.3991 40.6151 46.444 40.1853C46.4831 39.8131 46.7695 39.6071 47.1369 39.6134C47.5048 39.6198 47.7502 39.8402 47.8187 40.2092C47.858 40.4227 47.8563 40.6436 47.8749 40.8835Z" fill="#009247"/>
<path fill-rule="evenodd" clip-rule="evenodd" d="M48.8286 40.8401C48.8286 40.6522 48.8115 40.4624 48.8322 40.2768C48.8756 39.8838 49.1929 39.5807 49.553 39.6104C49.9349 39.6419 50.211 39.841 50.2387 40.2502C50.2641 40.6236 50.2705 41.0015 50.2429 41.3742C50.2119 41.7911 49.9611 42.0256 49.5349 42.0324C49.1567 42.0385 48.8707 41.7626 48.8298 41.3566C48.8126 41.1862 48.8268 41.0124 48.8268 40.8401C48.8274 40.8401 48.8281 40.8401 48.8286 40.8401Z" fill="#009247"/>
</svg>
