<svg width="93" height="92" viewBox="0 0 93 92" fill="none" xmlns="http://www.w3.org/2000/svg">
<rect x="8.5" y="7.5" width="84" height="84" rx="22.5" stroke="#009247" stroke-dasharray="2 2"/>
<rect width="85" height="85" rx="23" fill="#8BC53F" fill-opacity="0.33"/>
<path fill-rule="evenodd" clip-rule="evenodd" d="M67.9998 38.8458C67.8603 38.9545 67.7361 39.1026 67.5783 39.1641C67.1475 39.3319 66.7485 39.0217 66.7441 38.523C66.736 37.5992 66.7416 36.6755 66.7416 35.7519C66.7415 35.6005 66.7416 35.4492 66.7416 35.2708C53.2394 35.2708 39.7715 35.2708 26.2581 35.2708C26.2581 35.451 26.2581 35.6147 26.2581 35.7786C26.2581 42.7762 26.2524 49.7739 26.2694 56.7714C26.2708 57.309 25.9392 57.6871 25.4671 57.5562C25.2952 57.5085 25.1548 57.3476 25 57.2382C25 47.7761 25 38.3138 25 28.8516C25.495 27.4497 26.5164 26.9968 27.9566 27C40.3889 27.0276 52.8214 27.0159 65.2537 27.016C65.4076 27.016 65.5619 27.0086 65.7151 27.0187C66.6376 27.0798 67.3339 27.4986 67.7613 28.3312C67.8485 28.5007 67.9207 28.678 67.9998 28.8516C67.9998 32.183 67.9998 35.5144 67.9998 38.8458ZM66.7416 33.9646C66.7416 32.5086 66.7421 31.0971 66.7414 29.6854C66.741 28.6607 66.3803 28.2998 65.35 28.2993C62.4531 28.2981 59.5563 28.2989 56.6594 28.2989C46.9891 28.2989 37.319 28.2986 27.6487 28.2993C26.6182 28.2994 26.2587 28.6602 26.2581 29.6858C26.2577 30.8614 26.258 32.0369 26.258 33.2125C26.258 33.4592 26.258 33.706 26.258 33.9646C39.771 33.9646 53.2291 33.9646 66.7416 33.9646Z" fill="#009247"/>
<path fill-rule="evenodd" clip-rule="evenodd" d="M67.9999 62.9492C67.954 63.046 67.9016 63.1404 67.863 63.2402C67.5003 64.1782 66.6816 64.7569 65.6729 64.7838C65.5331 64.7876 65.3932 64.7849 65.2534 64.7849C52.8352 64.785 40.4169 64.7729 27.999 64.8013C26.5494 64.8045 25.5002 64.377 25 62.9493C25 61.8575 25 60.7657 25 59.674C25.2084 59.3881 25.4474 59.1578 25.8396 59.303C26.2254 59.4456 26.2679 59.7666 26.2619 60.1263C26.2497 60.8535 26.2524 61.5812 26.26 62.3085C26.2679 63.0594 26.6747 63.4709 27.4224 63.5005C27.5342 63.5048 27.6462 63.5021 27.7582 63.5021C40.2506 63.5023 52.7431 63.5023 65.2357 63.5017C65.4033 63.5017 65.5721 63.5049 65.7385 63.4883C66.3081 63.4306 66.6791 63.0552 66.734 62.4819C66.7487 62.3293 66.7414 62.1744 66.7414 62.0206C66.7418 55.2637 66.7404 48.5069 66.7477 41.7501C66.7479 41.5378 66.7799 41.287 66.8941 41.1208C67.1629 40.7297 67.6033 40.8089 68 41.2818C67.9999 48.504 67.9999 55.7266 67.9999 62.9492Z" fill="#009247"/>
<path fill-rule="evenodd" clip-rule="evenodd" d="M39.958 50.0131C39.958 53.6059 39.958 57.1561 39.958 60.7421C46.7336 60.7421 53.5136 60.7421 60.3294 60.7421C60.3294 58.5322 60.3294 56.3024 60.3294 54.0597C58.1805 53.5738 56.9098 52.2457 56.5451 50.0131C56.4058 50.0131 56.2547 50.0132 56.1037 50.0131C54.1023 50.0131 52.1009 50.0103 50.0994 50.0156C49.7357 50.0166 49.461 49.8973 49.3667 49.529C49.2555 49.0941 49.5533 48.7568 50.0497 48.7552C51.6593 48.7496 53.2689 48.7529 54.8784 48.7527C55.4513 48.7527 56.0243 48.7527 56.6281 48.7527C56.9408 47.4476 57.6508 46.4301 58.8121 45.7623C59.7152 45.243 60.6917 45.0919 61.7251 45.2345C63.668 45.5027 65.2372 47.1698 65.4447 49.2725C65.5591 50.4325 65.2106 51.4816 64.487 52.401C63.7619 53.3224 62.7907 53.8304 61.6381 54.0613C61.6381 54.532 61.6381 54.9785 61.6381 55.4253C61.6381 57.3287 61.639 59.2323 61.6376 61.1357C61.637 61.8867 61.4689 62.0601 60.734 62.0602C53.68 62.0612 46.6258 62.0612 39.5718 62.0603C38.8257 62.0602 38.6511 61.8882 38.6508 61.1456C38.649 57.3107 38.6489 53.4758 38.651 49.6407C38.6513 48.9276 38.8319 48.7533 39.5479 48.7531C41.9552 48.7524 44.3625 48.7527 46.7699 48.7529C46.8539 48.7529 46.938 48.7503 47.0218 48.7548C47.4062 48.7754 47.6708 49.0319 47.6697 49.3801C47.6684 49.7292 47.4056 50.0031 47.0219 50.0085C46.1823 50.0203 45.3423 50.013 44.5026 50.0131C43.1449 50.0133 41.7874 50.0131 40.4298 50.0131C40.2795 50.0131 40.1293 50.0131 39.958 50.0131ZM60.9872 46.4674C59.2278 46.4755 57.8297 47.8825 57.8321 49.6424C57.8347 51.4125 59.2613 52.8138 61.0476 52.8012C62.779 52.7891 64.176 51.3837 64.1847 49.6452C64.1934 47.8779 62.7661 46.4594 60.9872 46.4674Z" fill="#009247"/>
<path fill-rule="evenodd" clip-rule="evenodd" d="M46.4688 40.6875C42.3699 40.6875 38.271 40.6876 34.1721 40.6873C33.4038 40.6873 33.2316 40.5173 33.2311 39.7604C33.2306 38.977 33.2269 38.1935 33.2328 37.4101C33.2363 36.9501 33.4598 36.7204 33.9194 36.6861C34.0308 36.6779 34.1432 36.6835 34.2551 36.6835C42.4249 36.6835 50.5946 36.6835 58.7646 36.6835C58.8624 36.6835 58.9607 36.6795 59.0583 36.6855C59.5416 36.7156 59.7647 36.9441 59.7676 37.4301C59.7727 38.2413 59.7706 39.0527 59.7686 39.8641C59.7669 40.4801 59.5589 40.6867 58.9335 40.6869C54.7786 40.6879 50.6237 40.6875 46.4688 40.6875ZM34.5088 39.3856C42.5282 39.3856 50.5083 39.3856 58.4896 39.3856C58.4896 38.9098 58.4896 38.4668 58.4896 38.0035C50.4881 38.0035 42.5085 38.0035 34.5088 38.0035C34.5088 38.4708 34.5088 38.9136 34.5088 39.3856Z" fill="#009247"/>
<path fill-rule="evenodd" clip-rule="evenodd" d="M39.3584 47.3123C35.8051 47.3123 32.2519 47.313 28.6986 47.3102C28.519 47.31 28.3324 47.3048 28.1612 47.2578C27.8543 47.1736 27.6921 46.9377 27.7115 46.6298C27.7307 46.3257 27.9089 46.1076 28.2265 46.0512C28.3764 46.0246 28.5322 46.0222 28.6855 46.0222C35.806 46.0208 42.9264 46.0208 50.047 46.0212C50.7345 46.0212 51.028 46.2127 51.031 46.6584C51.0341 47.1084 50.733 47.312 50.0601 47.312C46.4929 47.3124 42.9258 47.3123 39.3584 47.3123Z" fill="#009247"/>
<path fill-rule="evenodd" clip-rule="evenodd" d="M44.5441 57.7897C44.4602 57.7897 44.3738 57.8026 44.2927 57.7877C43.3843 57.6215 42.7861 57.8783 42.6047 58.8829C42.532 59.2856 42.1206 59.4337 41.7786 59.3036C41.4424 59.1759 41.2862 58.8231 41.4334 58.4333C42.2115 56.3713 42.9992 54.313 43.7838 52.2536C43.9169 51.9041 44.1658 51.7006 44.5447 51.7062C44.9045 51.7115 45.1463 51.9092 45.2719 52.2417C46.056 54.3166 46.8413 56.3914 47.6175 58.4692C47.7519 58.8289 47.5889 59.1737 47.2663 59.2998C46.9388 59.4277 46.6063 59.2797 46.436 58.9298C46.4298 58.9174 46.4254 58.9035 46.4238 58.8898C46.2949 57.8357 45.6124 57.6437 44.7118 57.7884C44.6573 57.7973 44.6 57.7897 44.5441 57.7897ZM45.5084 56.4781C45.1858 55.6225 44.8731 54.7933 44.5285 53.879C44.1815 54.7899 43.8664 55.6166 43.5382 56.4781C44.2128 56.4781 44.8363 56.4781 45.5084 56.4781Z" fill="#009247"/>
<path fill-rule="evenodd" clip-rule="evenodd" d="M42.2991 44.5814C39.7534 44.5814 37.2077 44.5815 34.6619 44.581C34.5222 44.581 34.3814 44.5855 34.2428 44.5714C33.8872 44.5349 33.6832 44.3329 33.657 43.9765C33.6323 43.6386 33.8708 43.3654 34.2255 43.3152C34.3491 43.2977 34.4767 43.3063 34.6025 43.3063C39.7639 43.306 44.9254 43.306 50.0867 43.3063C50.2125 43.3063 50.3403 43.2977 50.4638 43.3156C50.8169 43.3669 51.0551 43.6431 51.0288 43.9803C51.0008 44.337 50.795 44.5368 50.4395 44.5717C50.3009 44.5853 50.1601 44.581 50.0203 44.581C47.4465 44.5815 44.8728 44.5814 42.2991 44.5814Z" fill="#009247"/>
<path fill-rule="evenodd" clip-rule="evenodd" d="M52.4731 54.3864C52.4731 53.89 52.4723 53.4304 52.4733 52.9708C52.4746 52.3881 52.7022 52.0759 53.1214 52.0796C53.5346 52.0831 53.7495 52.3696 53.7503 52.9397C53.7528 54.7854 53.7488 56.6311 53.7534 58.4768C53.7543 58.8341 53.7059 59.1597 53.3214 59.2981C52.958 59.4292 52.7096 59.228 52.5026 58.9636C51.0872 59.5866 49.8629 59.3658 49.0483 58.3462C48.3022 57.4126 48.2672 56.1101 48.9622 55.1525C49.7456 54.0733 50.9447 53.7967 52.4731 54.3864ZM52.4715 56.6944C52.4724 55.9273 51.8464 55.3015 51.0907 55.3145C50.3479 55.3271 49.7512 55.9392 49.7503 56.6897C49.7493 57.457 50.3759 58.0848 51.1279 58.0701C51.8728 58.0554 52.4706 57.4435 52.4715 56.6944Z" fill="#009247"/>
<path fill-rule="evenodd" clip-rule="evenodd" d="M56.8593 59.334C56.4086 59.3236 55.8194 59.1067 55.3346 58.6369C55.0083 58.321 54.9795 57.9588 55.2464 57.6779C55.4973 57.4139 55.8186 57.4586 56.1878 57.6777C56.4953 57.8601 56.8608 57.9682 57.2147 58.0357C57.3325 58.0582 57.4937 57.8533 57.6351 57.7522C57.5248 57.6279 57.4375 57.4574 57.2995 57.388C56.9391 57.2074 56.5564 57.0711 56.1828 56.9167C55.6403 56.6925 55.3386 56.2905 55.3042 55.7021C55.2679 55.0804 55.5497 54.6217 56.0741 54.3163C56.7886 53.9003 57.9898 54.069 58.5775 54.6514C58.8328 54.9043 58.8573 55.1928 58.6716 55.4878C58.4977 55.764 58.1487 55.8011 57.8113 55.6562C57.525 55.5332 57.2192 55.4435 56.913 55.387C56.818 55.3694 56.694 55.5083 56.5834 55.5756C56.6649 55.654 56.7335 55.7609 56.8306 55.8052C57.1221 55.9382 57.4264 56.0422 57.7227 56.1652C58.6053 56.5311 59.0551 57.2186 58.9069 57.9682C58.7499 58.762 57.9838 59.3345 56.8593 59.334Z" fill="#009247"/>
<path fill-rule="evenodd" clip-rule="evenodd" d="M32.4309 48.7526C33.7594 48.7526 35.088 48.7511 36.4165 48.7533C36.9246 48.7542 37.1896 48.9653 37.1982 49.3638C37.2073 49.7756 36.9236 50.0118 36.4052 50.0121C33.7621 50.0137 31.1191 50.011 28.476 50.0149C28.1551 50.0155 27.8561 49.9424 27.7784 49.6121C27.7312 49.4119 27.772 49.122 27.8945 48.9707C28.0084 48.8302 28.2825 48.7643 28.4872 48.7615C29.8016 48.7439 31.1163 48.7527 32.4309 48.7526Z" fill="#009247"/>
<path fill-rule="evenodd" clip-rule="evenodd" d="M32.4769 51.4523C33.8055 51.4523 35.1341 51.4485 36.4625 51.4544C36.9699 51.4567 37.2633 51.7682 37.185 52.2055C37.1157 52.5926 36.8438 52.7245 36.4849 52.7254C35.548 52.7277 34.6111 52.7274 33.674 52.7276C31.996 52.7278 30.3178 52.7292 28.6397 52.7254C28.4596 52.7249 28.2642 52.7328 28.1026 52.6692C27.8158 52.5563 27.6616 52.3109 27.7181 52C27.7804 51.6583 28.0127 51.46 28.3656 51.4558C29.1485 51.4468 29.9317 51.4525 30.7149 51.4523C31.3023 51.452 31.8896 51.452 32.4769 51.4523Z" fill="#009247"/>
<path fill-rule="evenodd" clip-rule="evenodd" d="M30.372 54.1683C30.9733 54.1684 31.5746 54.1632 32.1758 54.17C32.6655 54.1755 32.958 54.4115 32.969 54.7913C32.9805 55.1862 32.672 55.4545 32.1712 55.4571C30.9547 55.4633 29.738 55.4626 28.5214 55.4575C28.0184 55.4553 27.7035 55.196 27.7041 54.8074C27.7048 54.4198 28.0151 54.1738 28.5261 54.1696C29.1415 54.1643 29.7567 54.1683 30.372 54.1683Z" fill="#009247"/>
<path fill-rule="evenodd" clip-rule="evenodd" d="M58.3914 32.1548C57.8348 32.1626 57.3638 31.7145 57.3481 31.1619C57.3323 30.6197 57.7925 30.1361 58.3414 30.1177C58.9099 30.0987 59.4027 30.5683 59.4065 31.133C59.4101 31.68 58.9464 32.1469 58.3914 32.1548Z" fill="#009247"/>
<path fill-rule="evenodd" clip-rule="evenodd" d="M61.873 32.1531C61.3044 32.1627 60.8548 31.7313 60.843 31.1652C60.8313 30.5948 61.2565 30.1379 61.8181 30.1179C62.3897 30.0972 62.8701 30.5589 62.8731 31.1318C62.876 31.6987 62.4405 32.1437 61.873 32.1531Z" fill="#009247"/>
<path fill-rule="evenodd" clip-rule="evenodd" d="M55.9099 31.1408C55.9082 31.7138 55.4767 32.1491 54.9061 32.1529C54.3185 32.1568 53.8788 31.7079 53.8883 31.1136C53.8974 30.5526 54.3522 30.11 54.9124 30.1173C55.4723 30.1246 55.9115 30.5752 55.9099 31.1408Z" fill="#009247"/>
<path fill-rule="evenodd" clip-rule="evenodd" d="M61.0032 50.5704C60.4061 51.0767 60.0974 51.1523 59.7998 50.8748C59.48 50.5763 59.5442 50.283 60.0722 49.6301C59.556 49.0167 59.4825 48.7149 59.7759 48.4138C60.0691 48.1127 60.3725 48.1785 60.999 48.6789C61.7155 48.1753 61.9794 48.1237 62.2557 48.4326C62.5379 48.7479 62.4788 48.9847 61.9599 49.6199C62.4614 50.323 62.5175 50.5953 62.2185 50.8746C61.9243 51.1492 61.6101 51.0744 61.0032 50.5704Z" fill="#009247"/>
</svg>
