<svg width="89" height="98" viewBox="0 0 89 98" fill="none" xmlns="http://www.w3.org/2000/svg">
<path opacity="0.651" fill-rule="evenodd" clip-rule="evenodd" d="M51.0522 78.7869C51.0522 68.4785 59.3957 60.135 69.7041 60.135C80.0125 60.135 88.356 68.477 88.356 78.7869C88.356 89.0967 80.0125 97.4388 69.7041 97.4388C59.3957 97.4388 51.0522 89.0953 51.0522 78.7869Z" fill="#86C63A"/>
<path fill-rule="evenodd" clip-rule="evenodd" d="M14.59 17.1566C15.4581 17.1566 16.1619 16.4542 16.1619 15.5729C16.1619 14.7077 15.4581 14.0054 14.59 14.0054C13.7204 14.0054 13.0166 14.7077 13.0166 15.5729C13.0166 16.4527 13.7263 17.1566 14.59 17.1566Z" fill="#392413"/>
<path fill-rule="evenodd" clip-rule="evenodd" d="M63.0615 56.9974L78.0769 72.1609C79.8951 73.963 80.2177 76.7506 78.8687 78.6422C77.0211 81.2082 73.5019 81.3094 71.4637 79.2727L56.1697 63.8614C58.1199 61.939 61.1553 58.933 63.0615 56.9974ZM3.23915 31.6444C3.23915 16.5264 15.6224 4.22527 30.8445 4.22527C46.0299 4.22527 58.3839 16.5278 58.3839 31.6444C58.3839 46.7184 46.1458 59.1823 30.8445 59.1823C15.6224 59.1823 3.23915 46.8357 3.23915 31.6444ZM56.1844 59.2849L51.4232 54.5193C52.2253 53.8008 52.9877 53.0222 53.7209 52.2304L58.4865 56.996C57.812 57.6719 57.0349 58.4491 56.1844 59.2849ZM61.6245 31.6444C61.6245 14.7081 47.879 0.984619 30.8445 0.984619C13.8364 0.984619 0 14.7389 0 31.6444C0 48.6246 13.8364 62.4229 30.8445 62.4229C37.3111 62.4229 43.6647 60.3554 48.8908 56.5722L53.8822 61.5724C53.193 62.2631 52.7385 62.703 52.7385 62.703C52.4452 62.9962 52.2692 63.4053 52.2692 63.8467C52.2546 64.2705 52.4305 64.6811 52.7385 64.989L69.1615 81.5587C72.6807 85.0779 78.5314 84.6527 81.4934 80.5337C83.7663 77.3664 83.297 72.7767 80.379 69.8719L64.2053 53.5515C63.8387 53.1849 63.3401 53.009 62.8416 53.0823C62.4163 53.141 62.0351 53.3609 61.7711 53.6835C61.7125 53.7568 61.4779 54.0061 60.774 54.7099L55.7591 49.695C59.557 44.4749 61.6245 38.1109 61.6245 31.6444Z" fill="#392413"/>
<path fill-rule="evenodd" clip-rule="evenodd" d="M42.6938 52.892C42.7403 52.8765 42.7356 52.8765 42.6938 52.892V52.892Z" fill="#392413"/>
<path fill-rule="evenodd" clip-rule="evenodd" d="M55.055 32.4069C55.4949 18.3593 44.1366 7.14175 30.4644 7.31772C26.3557 7.40716 22.6004 8.38815 19.0871 10.3399C18.5621 10.6038 18.2058 11.1463 18.2058 11.7754C18.2058 13.0071 19.5402 13.7843 20.6121 13.1831C23.5374 11.5569 26.6695 10.6331 30.5216 10.5584C42.3682 10.4117 52.1956 20.1336 51.8143 32.3042C51.4346 43.859 41.9151 52.6277 30.8002 52.6277C19.5226 52.6277 9.44293 43.551 9.79045 30.5886C9.8447 29.4595 9.98253 28.3304 10.2743 26.9814C10.7318 24.9725 11.4078 23.2569 12.2891 21.6146C12.7114 20.8227 12.4167 19.8403 11.6292 19.415C10.8433 19.0059 9.86083 19.2978 9.43852 20.0749C8.81386 21.248 8.3153 22.3917 7.99564 23.2862C7.67011 24.1792 7.42963 24.9431 7.1173 26.2775C3.69192 41.2489 15.1792 55.8683 30.8002 55.8683C34.7842 55.8683 38.7507 54.9005 42.5984 52.789C49.9902 48.7272 54.7764 40.9116 55.055 32.4069Z" fill="#392413"/>
</svg>
