<svg width="93" height="92" viewBox="0 0 93 92" fill="none" xmlns="http://www.w3.org/2000/svg">
<rect x="8.5" y="7.5" width="84" height="84" rx="22.5" stroke="#009247" stroke-dasharray="2 2"/>
<rect width="85" height="85" rx="23" fill="#8BC53F" fill-opacity="0.33"/>
<path fill-rule="evenodd" clip-rule="evenodd" d="M57.1348 21.9119C57.2552 22.0648 57.4261 22.2003 57.4861 22.3741C57.67 22.9073 57.3284 23.2962 56.7004 23.2965C53.5576 23.2982 50.4147 23.2907 47.2719 23.2997C45.2865 23.3054 43.7636 24.5498 43.3957 26.4542C43.3438 26.7234 43.3457 27.0055 43.3452 27.2817C43.3416 29.7466 43.3474 32.2116 43.3374 34.6764C43.3363 34.9765 43.4126 35.1792 43.6558 35.3794C44.6771 36.2202 45.1954 37.3191 45.1993 38.644C45.2064 41.0936 45.2095 43.5432 45.1926 45.9926C45.1901 46.3473 45.3003 46.5564 45.6325 46.6254C46.2003 46.743 46.7706 46.9214 47.3425 46.9317C49.4062 46.9688 51.4711 46.9341 53.5355 46.9492C56.6904 46.9722 56.2622 46.5301 56.2911 49.6808C56.2927 49.8576 56.2912 50.0344 56.2912 50.3095C57.056 49.7261 57.7373 49.2073 58.4176 48.6871C59.0291 48.2195 59.6202 47.7211 60.2596 47.2953C60.5456 47.1048 60.9221 46.9863 61.2669 46.9607C62.0793 46.9002 62.9017 46.9636 63.7122 46.8899C65.5422 46.7231 67.0263 45.1157 67.0312 43.2846C67.0458 37.8464 67.0468 32.4082 67.0309 26.9699C67.0251 24.9883 65.3593 23.3727 63.3056 23.3033C62.6901 23.2825 62.0731 23.2898 61.4571 23.3002C61.0851 23.3065 60.7256 23.2922 60.5821 22.8735C60.4455 22.4751 60.6012 22.1571 60.9264 21.9116C61.9436 21.9116 62.9609 21.9116 63.9782 21.9116C64.854 22.1479 65.7113 22.4171 66.4358 23.0035C67.6368 23.9754 68.3435 25.214 68.4179 26.7617C68.4704 27.8536 68.4433 28.9494 68.4438 30.0434C68.4456 34.3584 68.4515 38.6735 68.4416 42.9886C68.4354 45.6085 66.8419 47.6843 64.3529 48.2041C63.5062 48.3809 62.608 48.3301 61.7326 48.341C61.3439 48.3458 61.0353 48.4358 60.7238 48.679C59.2309 49.8448 57.7184 50.9858 56.2161 52.1399C55.936 52.355 55.6598 52.5336 55.2917 52.353C54.9285 52.1748 54.878 51.8574 54.8803 51.4984C54.8877 50.4689 54.8829 49.4395 54.8829 48.399C51.6414 48.1687 48.417 48.658 45.2194 48.0764C45.2194 49.1748 45.2194 50.3242 45.2194 51.5112C45.4009 51.5196 45.5647 51.5338 45.7284 51.5341C47.5006 51.5357 49.2729 51.5328 51.0452 51.5357C53.2763 51.5391 54.6102 52.8746 54.6127 55.1031C54.6137 56.0124 54.6138 56.9216 54.6126 57.8308C54.6115 58.5371 54.3906 58.8407 53.8872 58.8342C53.3999 58.8276 53.1872 58.5333 53.186 57.8533C53.184 56.867 53.1911 55.8807 53.1838 54.8944C53.1749 53.6815 52.4702 52.9667 51.2616 52.9638C48.3337 52.9569 45.4056 52.9568 42.4775 52.9639C41.2697 52.9669 40.5615 53.6828 40.559 54.8967C40.5532 57.8094 40.5529 60.7221 40.5594 63.6346C40.562 64.8217 41.311 65.5595 42.4991 65.5631C43.9939 65.5674 45.4887 65.5638 46.9836 65.5643C47.8239 65.5644 48.0107 65.7508 48.017 66.5928C48.018 66.7305 48.0171 66.8683 48.0171 67.0796C48.1604 66.9976 48.2623 66.9523 48.3495 66.8871C48.6333 66.6753 48.9357 66.4807 49.1874 66.2348C49.7415 65.6934 50.3769 65.5162 51.152 65.5484C52.4625 65.6028 53.1776 64.8519 53.1853 63.541C53.1871 63.2174 53.1731 62.8931 53.1917 62.5703C53.2196 62.0872 53.4746 61.8447 53.9143 61.8518C54.3286 61.8584 54.6031 62.0999 54.6011 62.5547C54.5984 63.2144 54.6237 63.8926 54.4846 64.5297C54.1726 65.9578 52.8991 66.9564 51.4343 66.9335C50.788 66.9234 50.2947 67.1112 49.8144 67.522C49.1037 68.1298 48.3467 68.6835 47.6094 69.2604C47.4244 69.2604 47.2395 69.2604 47.0545 69.2604C46.6937 69.0086 46.5676 68.6649 46.5991 68.2287C46.6276 67.8308 46.6051 67.4291 46.6051 66.952C46.4227 66.952 46.2618 66.952 46.1009 66.952C44.9298 66.952 43.7559 66.9008 42.5884 66.9641C40.8682 67.0572 39.0946 65.7615 39.1241 63.4818C39.1536 61.1864 39.1305 58.8902 39.1305 56.5941C39.1305 56.4262 39.1305 56.2583 39.1305 55.9905C38.9353 56.1317 38.8036 56.2219 38.6772 56.3193C37.7257 57.0522 36.7734 57.7842 35.8254 58.5219C35.5572 58.7305 35.2912 58.8877 34.941 58.7139C34.5814 58.5355 34.5132 58.2232 34.5158 57.8635C34.5212 57.1121 34.5175 56.3609 34.5175 55.5509C34.3055 55.5509 34.1413 55.5509 33.977 55.5509C32.1125 55.5509 30.2481 55.5617 28.3838 55.548C26.2163 55.5321 24.5347 54.1929 24.0877 52.1365C24.0229 51.8384 24.0064 51.5252 24.0054 51.2189C23.9987 48.9692 24.0027 46.7196 24 44.4697C23.9996 44.0675 24.0777 43.7243 24.5487 43.6431C25.0765 43.5521 25.4022 43.8518 25.4035 44.447C25.4079 46.558 25.4031 48.669 25.4075 50.78C25.4082 51.133 25.3909 51.4956 25.4615 51.8374C25.7518 53.2453 26.849 54.1133 28.3479 54.1214C30.5204 54.1332 32.6931 54.124 34.8658 54.1251C35.7234 54.1256 35.9379 54.3385 35.9395 55.1836C35.9402 55.6393 35.9396 56.0951 35.9396 56.6533C36.4662 56.2495 36.9131 55.9079 37.3587 55.5647C37.7248 55.2828 38.0806 54.9866 38.4569 54.7193C38.8999 54.4046 39.2072 54.0371 39.4268 53.5047C39.9676 52.1949 41.0432 51.5808 42.4472 51.5382C42.8764 51.5253 43.3066 51.5363 43.7863 51.5363C43.7959 51.335 43.8106 51.1714 43.8107 51.0077C43.8119 46.9553 43.815 42.9027 43.8101 38.8502C43.8079 36.9949 42.598 35.7862 40.738 35.7838C36.6392 35.7785 32.5405 35.7778 28.4417 35.784C26.5996 35.7868 25.4099 36.9879 25.4053 38.8228C25.4044 39.2389 25.4147 39.6552 25.4015 40.0708C25.3865 40.5419 25.1207 40.802 24.6873 40.7977C24.2643 40.7933 24.004 40.5581 24.0112 40.0959C24.0241 39.2823 23.9782 38.4491 24.1376 37.6604C24.5235 35.7521 26.2468 34.4057 28.1994 34.4017C32.483 34.393 36.7667 34.398 41.0503 34.4017C41.3239 34.402 41.5972 34.4397 41.9306 34.4644C41.9306 34.2773 41.9301 34.0985 41.9307 33.9196C41.9385 31.5469 41.89 29.1723 41.9703 26.8021C42.0527 24.372 43.8021 22.4585 46.2006 21.9984C46.2723 21.9846 46.3385 21.9417 46.4073 21.9122C49.9832 21.9119 53.5591 21.9119 57.1348 21.9119Z" fill="#009247"/>
<path fill-rule="evenodd" clip-rule="evenodd" d="M32.7174 42.9139C32.8498 42.1098 32.9772 41.3519 33.0987 40.5933C33.1874 40.0404 33.5022 39.7426 33.9329 39.8149C34.3735 39.8889 34.5677 40.2303 34.4826 40.8029C34.3898 41.4264 34.287 42.0485 34.1911 42.6715C34.182 42.7313 34.1899 42.7939 34.1899 42.8846C34.7119 42.8846 35.2291 42.8846 35.7968 42.8846C35.9129 42.1983 36.0298 41.5047 36.1478 40.8113C36.171 40.6751 36.1915 40.5375 36.2255 40.4037C36.3353 39.9717 36.6421 39.749 37.0224 39.8184C37.4219 39.8912 37.6663 40.2419 37.5978 40.6774C37.4999 41.3 37.3851 41.92 37.2805 42.5416C37.2628 42.6459 37.2605 42.7528 37.2461 42.9144C37.909 42.9144 38.5526 42.9134 39.1961 42.9148C39.5396 42.9155 39.8506 43.0646 39.8936 43.3947C39.9258 43.6419 39.8062 43.9578 39.6491 44.1625C39.5499 44.2912 39.2579 44.3062 39.051 44.3115C38.3754 44.3286 37.6994 44.3179 36.9954 44.3179C36.9033 44.8785 36.8172 45.4025 36.7209 45.9873C37.5512 45.9873 38.3333 45.9822 39.1153 45.9892C39.518 45.9928 39.8522 46.123 39.9318 46.575C40.0172 47.0594 39.6999 47.3984 39.1341 47.4088C38.3793 47.4224 37.6237 47.4256 36.8691 47.4065C36.5569 47.3986 36.4444 47.5021 36.4043 47.8151C36.3167 48.5007 36.1932 49.1827 36.0612 49.8616C35.9652 50.3552 35.6443 50.5758 35.2143 50.4883C34.8303 50.4101 34.6157 50.0541 34.6867 49.5979C34.7955 48.9001 34.9102 48.2032 35.0212 47.5057C35.0233 47.4937 35.0108 47.4795 34.9934 47.4394C34.4872 47.4394 33.9689 47.4394 33.4036 47.4394C33.2697 48.2162 33.1367 48.9986 32.9996 49.7802C32.9053 50.3174 32.6188 50.5614 32.1719 50.4933C31.7594 50.4304 31.5496 50.116 31.6216 49.5867C31.7167 48.8866 31.8455 48.1913 31.9732 47.4127C31.6532 47.4127 31.3551 47.4127 31.0572 47.4127C30.7489 47.4127 30.4406 47.4169 30.1326 47.4116C29.5806 47.402 29.2321 47.1181 29.2384 46.6904C29.2447 46.2625 29.5856 45.9944 30.1502 45.9879C30.6895 45.9816 31.2297 45.9696 31.768 45.9924C32.107 46.0067 32.2705 45.9233 32.2869 45.5462C32.3041 45.1541 32.4048 44.7658 32.4786 44.3181C31.7861 44.3181 31.1571 44.3185 30.5282 44.3179C30.3433 44.3176 30.1578 44.3234 29.9737 44.3109C29.5342 44.2809 29.249 44.0134 29.239 43.6342C29.2287 43.245 29.5435 42.9264 29.9872 42.9181C30.7113 42.9048 31.4358 42.914 32.16 42.9138C32.3279 42.9138 32.496 42.9139 32.7174 42.9139ZM33.915 44.3451C33.8241 44.8767 33.7346 45.3999 33.6392 45.9574C34.2027 45.9574 34.732 45.9574 35.2938 45.9574C35.3793 45.4237 35.463 44.9014 35.5523 44.3451C34.9857 44.3451 34.4706 44.3451 33.915 44.3451Z" fill="#009247"/>
<path fill-rule="evenodd" clip-rule="evenodd" d="M46.8601 56.4746C48.6267 55.334 50.5049 56.4672 50.7976 58.0439C50.9945 59.105 50.7342 60.0589 50.0279 60.8819C49.2494 61.7889 48.2371 62.3779 47.1944 62.914C47.0266 63.0003 46.7403 63.01 46.576 62.9249C45.4944 62.3653 44.4305 61.7701 43.6427 60.8015C42.992 60.0013 42.7572 59.0796 42.9348 58.0748C43.2223 56.4471 45.0817 55.2815 46.8601 56.4746ZM49.5387 58.6994C49.456 58.0723 49.1531 57.6244 48.6456 57.4624C48.16 57.3074 47.889 57.4275 47.4617 57.9876C47.0954 58.4678 46.5936 58.4408 46.2242 57.8899C45.9598 57.4959 45.615 57.3327 45.1631 57.4227C44.7327 57.5084 44.4528 57.7894 44.3597 58.2146C44.3051 58.4642 44.2572 58.742 44.3106 58.9842C44.604 60.3149 45.752 60.8141 46.7626 61.4421C47.2726 61.1621 47.806 60.9163 48.2846 60.59C48.6068 60.3703 48.9015 60.07 49.1166 59.7448C49.3198 59.4377 49.4028 59.0511 49.5387 58.6994Z" fill="#009247"/>
<path fill-rule="evenodd" clip-rule="evenodd" d="M52.2459 42.5152C52.0053 42.5821 51.713 42.7273 51.417 42.7348C50.3084 42.7629 49.1986 42.7503 48.0892 42.7443C47.4253 42.7406 47.2032 42.5223 47.2018 41.8504C47.1964 39.1848 47.1964 36.5193 47.2018 33.8537C47.2032 33.1935 47.4435 32.9534 48.0901 32.9493C49.1995 32.9424 50.3091 32.9348 51.418 32.9563C51.6938 32.9616 51.9676 33.0771 52.3324 33.1633C53.0098 32.3635 53.7746 31.5198 54.4679 30.621C54.937 30.0128 55.0929 29.271 55.1293 28.4962C55.1859 27.2895 56.353 26.5979 57.3034 27.2039C57.5485 27.3603 57.7614 27.6233 57.8975 27.885C58.631 29.2958 58.7203 30.7604 58.1836 32.2604C58.1229 32.4302 58.0663 32.6014 57.9895 32.8259C59.1164 32.8259 60.1924 32.8242 61.2683 32.8264C62.4175 32.8287 63.1618 33.5357 63.1692 34.6841C63.1833 36.8565 63.1793 39.0291 63.1666 41.2015C63.1603 42.2746 62.4147 43.0531 61.3422 43.0633C59.1238 43.0848 56.9033 43.1151 54.6869 43.042C53.881 43.0156 53.0843 42.7047 52.2459 42.5152ZM56.6235 28.4835C56.5816 28.5492 56.5577 28.5728 56.5508 28.6004C56.5361 28.6598 56.5254 28.7211 56.5214 28.7823C56.4313 30.1814 55.83 31.3413 54.8922 32.3604C54.0997 33.2216 53.3312 34.1054 52.5724 34.9968C52.4381 35.1545 52.3376 35.3971 52.335 35.6019C52.3157 37.173 52.3145 38.7447 52.3373 40.3158C52.34 40.5058 52.4753 40.7448 52.6246 40.8728C53.2833 41.4372 54.0699 41.6549 54.9323 41.6518C56.9966 41.6447 59.0609 41.6517 61.1254 41.6486C61.6888 41.6477 61.7673 41.5645 61.7676 41.0065C61.7689 38.9576 61.7692 36.9086 61.7679 34.8597C61.7675 34.3051 61.6771 34.2121 61.1269 34.2106C59.7712 34.2068 58.4155 34.2118 57.0598 34.2049C56.3469 34.2012 56.0528 33.7616 56.3144 33.1045C56.5074 32.6192 56.7345 32.146 56.9014 31.6521C57.2665 30.5703 57.1773 29.5206 56.6235 28.4835ZM48.6438 34.3967C48.6438 36.7378 48.6438 39.0215 48.6438 41.3121C49.4185 41.3121 50.1625 41.3121 50.9041 41.3121C50.9041 38.9864 50.9041 36.6907 50.9041 34.3967C50.134 34.3967 49.4006 34.3967 48.6438 34.3967Z" fill="#009247"/>
</svg>
