<svg width="84" height="86" viewBox="0 0 84 86" fill="none" xmlns="http://www.w3.org/2000/svg">
<path opacity="0.651" fill-rule="evenodd" clip-rule="evenodd" d="M0 72.73C0 65.7 5.69 60.01 12.72 60.01C19.75 60.01 25.44 65.7 25.44 72.73C25.44 79.76 19.75 85.45 12.72 85.45C5.69 85.45 0 79.76 0 72.73Z" fill="#86C63A"/>
<path fill-rule="evenodd" clip-rule="evenodd" d="M39.5502 72.07H36.5002V67.35C36.5002 66.7 35.9802 66.18 35.3302 66.18C34.6802 66.18 34.1602 66.7 34.1602 67.35V72.07H30.3002H29.7202L32.9902 60.38L35.6502 61.5C35.6702 61.51 35.7002 61.52 35.7202 61.53C35.8802 61.58 39.5502 62.93 39.5502 67.61V72.07ZM27.2802 72.07H23.7902L21.3402 63.31C22.4702 63.71 23.9102 64.06 25.5602 64.06C26.8402 64.06 28.2502 63.85 29.7302 63.3L27.2802 72.07ZM20.5902 72.07H16.7302V67.35C16.7302 66.7 16.2102 66.18 15.5602 66.18C14.9102 66.18 14.3902 66.7 14.3902 67.35V72.07H11.3402V67.61C11.3402 62.92 15.0102 61.58 15.1602 61.53C15.1902 61.52 15.2102 61.51 15.2402 61.5L18.0702 60.31L18.3802 61.41L21.3502 72.07H20.5902ZM22.5402 59.05C23.0702 58.92 23.4402 58.45 23.4402 57.9V56.12C23.8902 56.2 24.3502 56.24 24.8202 56.24H26.2502C26.7202 56.24 27.1802 56.2 27.6202 56.12V57.9C27.6202 58.44 27.9902 58.91 28.5102 59.04L30.7602 59.61L30.5702 60.33C25.8102 63.01 21.7002 61.04 20.5202 60.35L20.3002 59.58L22.5402 59.05ZM19.4002 48.45V43.69C20.7202 43.24 23.2902 42.2 25.4702 40.36C26.5202 41.37 28.5302 42.91 31.6802 43.75V48.45C31.6802 51.45 29.2402 53.89 26.2502 53.89H24.8202C21.8302 53.89 19.4002 51.45 19.4002 48.45ZM17.0502 44.92V47.33C16.6702 47.06 16.4202 46.62 16.4202 46.12C16.4202 45.62 16.6702 45.18 17.0502 44.92ZM34.0202 47.33V44.92C34.4102 45.18 34.6602 45.62 34.6602 46.12C34.6602 46.62 34.4102 47.06 34.0202 47.33ZM16.6702 54.29C14.9202 51.78 13.9702 48.64 13.9702 45.34C13.9702 37.65 19.1602 31.39 25.5402 31.39C31.9202 31.39 37.1102 37.65 37.1102 45.34C37.1102 48.63 36.1502 51.78 34.4102 54.29C33.6902 54.02 32.9202 53.78 32.1002 53.58C33.0002 52.55 33.6402 51.27 33.8902 49.87C35.6602 49.54 37.0102 47.99 37.0102 46.12C37.0102 44.27 35.6902 42.73 33.9402 42.39C33.8002 42.02 33.4802 41.75 33.0902 41.66C28.5202 40.73 26.5702 38.11 26.4902 38.01C26.2902 37.72 25.9802 37.54 25.6302 37.52C25.2802 37.49 24.9402 37.62 24.7002 37.87C22.0702 40.57 17.9702 41.67 17.9302 41.68C17.5602 41.77 17.2702 42.04 17.1402 42.38C15.3902 42.73 14.0702 44.27 14.0702 46.12C14.0702 47.99 15.4102 49.54 17.1802 49.87C17.4402 51.27 18.0802 52.55 18.9802 53.58C18.1602 53.78 17.3902 54.02 16.6702 54.29ZM36.5202 59.31L32.5402 57.65C32.4902 57.63 32.4302 57.61 32.3802 57.59L29.9702 56.99V55.55C31.6202 55.82 33.1202 56.25 34.3202 56.79C34.4802 56.87 34.6402 56.9 34.8002 56.9C35.1902 56.9 35.5602 56.71 35.7802 56.37C35.8102 56.34 35.8302 56.31 35.8602 56.28C38.1802 53.28 39.4602 49.39 39.4602 45.34C39.4602 36.35 33.2102 29.04 25.5402 29.04C17.8602 29.04 11.6202 36.35 11.6202 45.34C11.6202 49.48 12.9502 53.43 15.3602 56.46C15.3602 56.47 15.3702 56.47 15.3802 56.48C15.3902 56.49 15.4002 56.51 15.4102 56.52C15.4402 56.55 15.4702 56.57 15.5002 56.6C15.5002 56.61 15.5102 56.62 15.5202 56.62C15.6502 56.73 15.7902 56.8 15.9402 56.85C15.9402 56.85 15.9502 56.85 15.9602 56.85C16.0002 56.87 16.0502 56.88 16.0902 56.88C16.1002 56.89 16.1102 56.89 16.1202 56.89C16.1702 56.89 16.2202 56.9 16.2702 56.9C16.2802 56.9 16.2902 56.9 16.3002 56.9C16.3402 56.9 16.3902 56.89 16.4402 56.89C16.4502 56.88 16.4702 56.88 16.4902 56.88C16.5402 56.87 16.5902 56.86 16.6402 56.84C16.6602 56.83 16.6802 56.83 16.6902 56.82C16.7102 56.81 16.7402 56.8 16.7602 56.79C17.9602 56.25 19.4502 55.82 21.0902 55.55V56.97L18.5302 57.59C18.4702 57.6 18.4102 57.62 18.3502 57.65L14.3702 59.31C12.4802 59.97 8.99023 62.52 8.99023 67.61V73.25C8.99023 73.9 9.51023 74.42 10.1602 74.42H20.5902H22.9002V74.43C22.9002 74.43 22.9002 74.42 22.9102 74.42H28.1702C28.1702 74.42 28.1702 74.43 28.1802 74.43V74.42H30.3002H40.7302C41.3802 74.42 41.9002 73.89 41.9002 73.24V67.61C41.9002 62.52 38.4102 59.97 36.5202 59.31Z" fill="#392413"/>
<path fill-rule="evenodd" clip-rule="evenodd" d="M29.11 2.35001H52.33V4.18001H50.29C49.64 4.18001 49.11 4.70001 49.11 5.35001C49.11 6.00001 49.64 6.52 50.29 6.52H63.3V19.86H57.99C57.34 19.86 56.81 20.39 56.81 21.03V24.52L53.1 20.27C52.88 20.01 52.56 19.86 52.21 19.86H40.08V6.52H46.36C47.01 6.52 47.54 6.00001 47.54 5.35001C47.54 4.70001 47.01 4.18001 46.36 4.18001H38.9C38.25 4.18001 37.72 4.70001 37.72 5.35001V17.91L35.6 20.34V16.86C35.6 16.21 35.07 15.68 34.42 15.68H29.11V2.35001ZM27.93 18.03H33.24V23.49C33.24 23.98 33.55 24.41 34.01 24.58C34.15 24.63 34.28 24.66 34.42 24.66C34.76 24.66 35.09 24.52 35.31 24.25L37.79 21.41C37.95 21.87 38.39 22.21 38.9 22.21H51.67L57.1 28.43C57.32 28.69 57.65 28.83 57.99 28.83C58.13 28.83 58.26 28.81 58.4 28.76C58.86 28.59 59.17 28.15 59.17 27.66V22.21H64.48C65.13 22.21 65.66 21.68 65.66 21.03V5.35001C65.66 4.70001 65.13 4.18001 64.48 4.18001H54.69V1.17C54.69 0.519998 54.16 0 53.51 0H27.93C27.28 0 26.75 0.519998 26.75 1.17V16.86C26.75 17.51 27.28 18.03 27.93 18.03Z" fill="#392413"/>
<path fill-rule="evenodd" clip-rule="evenodd" d="M81.1899 71.9901H78.1399V67.2701C78.1399 66.6201 77.6199 66.0901 76.9699 66.0901C76.3199 66.0901 75.7999 66.6201 75.7999 67.2701V71.9901H71.9399H71.3599L74.6299 60.3101L77.2899 61.4201C77.3099 61.4301 77.3399 61.4401 77.3599 61.4501C77.5199 61.5001 81.1899 62.8501 81.1899 67.5301V71.9901ZM70.1199 67.7301L69.7899 65.7301L70.0399 65.0601L70.3599 65.2901C70.4699 65.3801 70.6099 65.4401 70.7399 65.4801L70.1199 67.7301ZM71.2799 58.8201C71.3499 58.7401 71.4099 58.6601 71.4599 58.5701L72.2799 59.1201L70.6099 62.5601L70.2099 62.2601L68.8999 61.3001L71.2799 58.8201ZM65.9199 71.9901L66.7599 66.7801H67.5899L68.4299 71.9901H65.9199ZM63.6299 62.5601L61.9599 59.1201L62.7799 58.5701C62.8399 58.7601 62.9399 58.9401 63.0899 59.0901L65.3499 61.2901L63.6299 62.5601ZM64.2299 67.7001L63.5999 65.4401C63.6999 65.4001 63.7999 65.3601 63.8799 65.2901L64.2399 65.0301L64.5499 65.7501L64.2299 67.7001ZM67.1299 59.7501L65.0799 57.7501V56.4301V56.0401C65.5299 56.1201 65.9899 56.1601 66.4599 56.1601H67.8899C68.3599 56.1601 68.8199 56.1201 69.2599 56.0401V57.5301L67.1299 59.7501ZM66.1899 63.5901L67.1199 62.9001L68.0799 63.6101L67.7699 64.4301H66.5399L66.1899 63.5901ZM61.0299 48.3701V43.8601C63.0199 43.6801 67.0699 43.0001 69.9899 40.3201C70.5899 41.4901 71.6299 42.8901 73.3099 43.5901V48.3701C73.3099 51.3701 70.8799 53.8101 67.8899 53.8101H66.4599C63.4699 53.8101 61.0299 51.3701 61.0299 48.3701ZM59.8599 41.5601C59.8199 41.5601 59.7799 41.5701 59.7399 41.5701C59.7299 41.5701 59.7199 41.5701 59.6999 41.5801C59.6799 41.5801 59.6499 41.5801 59.6199 41.5901C59.6099 41.5901 59.5899 41.6001 59.5699 41.6001C59.5499 41.6101 59.5299 41.6101 59.5099 41.6201C59.4899 41.6201 59.4699 41.6301 59.4599 41.6401C59.4399 41.6401 59.4199 41.6501 59.3999 41.6601C59.3799 41.6701 59.3599 41.6801 59.3399 41.6901C59.3299 41.6901 59.3199 41.7001 59.2999 41.7101C59.2799 41.7201 59.2599 41.7301 59.2399 41.7401C59.2299 41.7501 59.2199 41.7601 59.2099 41.7701C59.1899 41.7801 59.1699 41.7901 59.1499 41.8101C59.1399 41.8201 59.1299 41.8201 59.1199 41.8301C59.0999 41.8501 59.0799 41.8601 59.0699 41.8801C59.0599 41.8901 59.0399 41.9001 59.0299 41.9101C59.0199 41.9201 59.0199 41.9201 59.0099 41.9301V39.7901C59.0099 35.4901 62.4999 31.9901 66.7899 31.9901H67.5399C71.8299 31.9901 75.3199 35.4901 75.3199 39.7901V41.9101C75.3099 41.9001 75.2999 41.9001 75.2899 41.8901C75.2799 41.8701 75.2599 41.8601 75.2399 41.8401C75.2299 41.8301 75.2199 41.8201 75.2099 41.8101C75.1899 41.8001 75.1699 41.7901 75.1499 41.7801C75.1399 41.7701 75.1299 41.7601 75.1099 41.7501C75.0899 41.7401 75.0799 41.7301 75.0599 41.7201C75.0399 41.7101 75.0199 41.7001 75.0099 41.6901C74.9899 41.6801 74.9699 41.6701 74.9599 41.6701C74.9399 41.6601 74.9199 41.6501 74.8899 41.6401C74.8799 41.6301 74.8699 41.6301 74.8499 41.6201C74.8299 41.6201 74.7999 41.6101 74.7799 41.6001C74.7699 41.6001 74.7599 41.6001 74.7499 41.5901C72.3099 41.0401 71.5499 37.8801 71.5399 37.8501C71.4399 37.4001 71.0799 37.0501 70.6299 36.9601C70.1799 36.8601 69.7199 37.0401 69.4399 37.4201C66.4799 41.5201 59.9499 41.5601 59.8599 41.5601ZM58.6899 47.2501C58.2999 46.9901 58.0499 46.5401 58.0499 46.0501C58.0499 45.5501 58.2999 45.1001 58.6899 44.8401V47.2501ZM75.6599 44.8401C76.0399 45.1001 76.2999 45.5501 76.2999 46.0501C76.2999 46.5401 76.0399 46.9901 75.6599 47.2501V44.8401ZM78.1599 59.2301L74.2499 57.6001L71.6099 55.8501V55.2101C73.6299 54.1001 75.0999 52.1301 75.5299 49.7901C77.2999 49.4701 78.6399 47.9101 78.6399 46.0501C78.6399 45.0701 78.2699 44.1701 77.6699 43.5001V39.7901C77.6699 34.1901 73.1199 29.6401 67.5399 29.6401H66.7899C61.2099 29.6401 56.6599 34.1901 56.6599 39.7901V43.5201C56.0699 44.1901 55.6999 45.0801 55.6999 46.0501C55.6999 47.9101 57.0499 49.4701 58.8199 49.7901C59.2499 52.1301 60.7199 54.1001 62.7299 55.2101V55.7901L60.0899 57.5301C60.0599 57.5401 60.0199 57.5601 59.9899 57.5701L56.0099 59.2301C54.1199 59.8901 50.6299 62.4401 50.6299 67.5301V73.1601C50.6299 73.8101 51.1499 74.3401 51.7999 74.3401H59.5099C60.1599 74.3401 60.6799 73.8101 60.6799 73.1601C60.6799 72.5201 60.1599 71.9901 59.5099 71.9901H58.3699V67.2701C58.3699 66.6201 57.8499 66.0901 57.1999 66.0901C56.5499 66.0901 56.0299 66.6201 56.0299 67.2701V71.9901H52.9799V67.5301C52.9799 62.8501 56.6499 61.5001 56.7999 61.4501C56.8299 61.4401 56.8499 61.4301 56.8799 61.4201L59.7099 60.2401L62.9999 72.0201C62.4799 72.1401 62.0899 72.6101 62.0899 73.1601C62.0899 73.8101 62.6199 74.3401 63.2599 74.3401H64.5399C64.5399 74.3401 64.5399 74.3401 64.5499 74.3401H69.7999H69.8099C69.8099 74.3401 69.8099 74.3401 69.8199 74.3401H71.9399H82.3699C83.0199 74.3401 83.5399 73.8001 83.5399 73.1501V67.5301C83.5399 62.4401 80.0499 59.8901 78.1599 59.2301Z" fill="#392413"/>
</svg>
