<svg width="93" height="92" viewBox="0 0 93 92" fill="none" xmlns="http://www.w3.org/2000/svg">
<rect x="8.5" y="7.5" width="84" height="84" rx="22.5" stroke="#009247" stroke-dasharray="2 2"/>
<rect width="85" height="85" rx="23" fill="#8BC53F" fill-opacity="0.33"/>
<path fill-rule="evenodd" clip-rule="evenodd" d="M24 53.3087C24.0562 53.176 24.1146 53.0442 24.168 52.9105C24.5365 51.9909 25.3953 51.3783 26.3816 51.3769C30.8159 51.3707 35.2503 51.368 39.6847 51.3784C40.9935 51.3815 42.039 52.4609 42.057 53.7787C42.063 54.2174 42.058 54.6565 42.058 55.2301C43.2958 53.9067 44.4567 52.6656 45.6393 51.4015C44.7951 50.4951 43.9771 49.6153 43.1573 48.7369C41.965 47.4598 40.7713 46.184 39.5786 44.9071C38.9871 44.274 38.5167 44.2799 37.9191 44.921C36.5776 46.3601 35.2345 47.798 33.8902 49.2345C33.5009 49.6506 33.1493 49.7045 32.8245 49.4087C32.5103 49.1226 32.5383 48.7258 32.9071 48.3309C34.2798 46.8605 35.6509 45.389 37.0287 43.9233C38.0781 42.8068 39.4277 42.8049 40.4856 43.9292C42.3974 45.9608 44.2981 48.0027 46.2047 50.0393C46.3131 50.155 46.4318 50.2614 46.5718 50.3974C47.0782 49.8575 47.5782 49.3258 48.0768 48.7927C49.5912 47.1736 51.101 45.5499 52.6206 43.9356C53.6915 42.7977 55.0365 42.8044 56.1082 43.9484C58.3267 46.3164 60.5428 48.6866 62.7515 51.0636C62.9569 51.2846 63.1606 51.3869 63.4696 51.3807C64.4824 51.3603 65.4959 51.3717 66.509 51.3734C67.811 51.3757 68.6157 51.96 69.0366 53.2027C69.0499 53.2418 69.0854 53.2734 69.1104 53.3084C69.1104 54.1601 69.1104 55.0118 69.1104 55.8635C68.9052 56.1878 68.6351 56.408 68.2338 56.2694C67.8328 56.1308 67.7712 55.7899 67.7865 55.408C67.8037 54.9828 67.7909 54.5565 67.7903 54.1307C67.7889 53.0967 67.3893 52.6956 66.3531 52.6954C62.1685 52.6945 57.984 52.6944 53.7994 52.6955C52.7841 52.6957 52.3753 53.0993 52.375 54.1004C52.374 57.8593 52.374 61.618 52.375 65.3768C52.3753 66.3876 52.778 66.7897 53.7877 66.7899C57.987 66.7907 62.1862 66.7907 66.3855 66.7899C67.3866 66.7897 67.7898 66.3814 67.7902 65.3694C67.791 63.3285 67.7889 61.2876 67.7917 59.2468C67.7923 58.797 68.0035 58.4809 68.3628 58.5148C68.6206 58.539 68.8618 58.7381 69.1104 58.8592C69.1104 61.2967 69.1104 63.7344 69.1104 66.172C68.8056 67.1593 68.1591 67.8049 67.1721 68.1103C62.4437 68.1103 57.7154 68.1103 52.987 68.1103C52.9519 68.0853 52.9202 68.0499 52.8811 68.0366C51.6391 67.6157 51.0534 66.8102 51.0521 65.5131C51.0508 64.1931 51.0519 62.8731 51.0519 61.553C51.0519 61.3685 51.0519 61.184 51.0519 61.0016C48.0241 61.0016 45.0552 61.0016 42.0584 61.0016C42.0584 62.5836 42.0682 64.1362 42.0548 65.6887C42.0464 66.6689 41.5804 67.3893 40.7195 67.8505C40.5292 67.9525 40.3226 68.0244 40.1236 68.1103C35.3953 68.1103 30.6669 68.1103 25.9386 68.1103C24.9527 67.804 24.3032 67.1612 24.0002 66.172C24 61.8843 24 57.5964 24 53.3087ZM33.0221 66.7904C35.1349 66.7904 37.248 66.7916 39.3609 66.7899C40.3112 66.7892 40.7344 66.3716 40.7348 65.4274C40.7367 61.6417 40.7366 57.8562 40.7348 54.0706C40.7344 53.1184 40.3169 52.6968 39.3695 52.6963C35.1437 52.6941 30.9178 52.6942 26.692 52.6962C25.739 52.6967 25.3208 53.1149 25.3205 54.0617C25.3192 57.8473 25.3193 61.6329 25.3205 65.4186C25.3207 66.3695 25.738 66.7891 26.6835 66.7899C28.7963 66.7916 30.9092 66.7904 33.0221 66.7904ZM61.1612 51.3733C61.1075 51.2764 61.0981 51.2476 61.0793 51.2275C59.0773 49.0811 57.0773 46.933 55.0701 44.7914C54.6111 44.3016 54.0922 44.313 53.6239 44.8135C49.8348 48.8652 46.0484 52.9194 42.264 56.9757C42.1784 57.0676 42.0716 57.1907 42.0692 57.3013C42.0522 58.0737 42.0603 58.8466 42.0603 59.6261C45.0804 59.6261 48.0504 59.6261 51.0515 59.6261C51.0515 59.4395 51.0515 59.2806 51.0515 59.1217C51.0515 57.3899 51.0495 55.6581 51.0522 53.9262C51.0545 52.411 52.0781 51.3771 53.5841 51.3744C55.8736 51.3704 58.1631 51.3733 60.4526 51.3733C60.6694 51.3731 60.8862 51.3733 61.1612 51.3733Z" fill="#009247"/>
<path fill-rule="evenodd" clip-rule="evenodd" d="M47.5244 23.0001C47.9343 23.2646 48.1742 23.6464 48.3085 24.1086C48.3696 24.3188 48.4975 24.5148 48.5303 24.7272C48.6606 25.5682 49.2436 25.9386 49.9766 26.1481C50.1121 26.1869 50.2913 26.1554 50.4263 26.0989C50.9665 25.8728 51.5008 25.632 52.0305 25.3819C52.5459 25.1384 52.9895 25.2171 53.3929 25.6173C54.7039 26.9184 54.7501 26.8417 53.9632 28.4979C53.9442 28.5375 53.9353 28.5841 53.909 28.6176C53.3714 29.3021 53.5921 29.9775 53.9467 30.6408C54.0064 30.7524 54.1399 30.8498 54.2613 30.8991C54.8172 31.1246 55.3787 31.3373 55.9429 31.5417C56.4617 31.7296 56.7191 32.0915 56.721 32.6395C56.7223 32.9917 56.7219 33.344 56.7207 33.6963C56.7189 34.2485 56.4435 34.6017 55.9324 34.7906C55.3972 34.9886 54.8557 35.174 54.3364 35.4079C54.1516 35.4912 53.997 35.6822 53.875 35.8566C53.4265 36.498 53.5381 37.1252 53.9301 37.7589C54.1135 38.0552 54.2268 38.3951 54.3691 38.7164C54.5775 39.1873 54.4858 39.6026 54.1285 39.9645C53.8707 40.2257 53.6114 40.4853 53.3506 40.7434C52.9842 41.1061 52.5573 41.1637 52.096 40.9653C51.558 40.7336 51.0177 40.5042 50.4963 40.2387C50.2452 40.1109 50.0566 40.171 49.8046 40.233C49.0581 40.4166 48.6984 40.8955 48.5255 41.6026C48.4393 41.9553 48.2803 42.2916 48.1402 42.6295C47.7629 43.5391 46.9522 43.3078 46.2432 43.3398C45.6695 43.3658 45.1945 43.2108 44.9678 42.6228C44.752 42.0629 44.5629 41.4914 44.3185 40.9445C44.2353 40.7586 44.0371 40.6077 43.8619 40.4821C43.2241 40.0251 42.5989 40.1512 41.9659 40.5282C41.6535 40.7142 41.305 40.8423 40.9664 40.9805C40.5336 41.1572 40.1343 41.0953 39.7873 40.7691C39.7766 40.7591 39.7661 40.7487 39.7557 40.7384C38.3822 39.3813 38.3627 39.5011 39.1602 37.79C39.1788 37.7501 39.1915 37.7054 39.2182 37.6717C39.7658 36.9787 39.4874 36.3069 39.154 35.6458C39.1038 35.5463 38.9711 35.4676 38.8591 35.4235C38.3009 35.2036 37.7378 34.996 37.1747 34.7889C36.6628 34.6004 36.3906 34.2444 36.3897 33.6926C36.3893 33.3257 36.3856 32.9586 36.3915 32.5918C36.3997 32.0796 36.654 31.7363 37.129 31.5543C37.6484 31.3554 38.1631 31.1415 38.691 30.968C38.9949 30.8681 39.125 30.6773 39.2807 30.4038C39.6357 29.7804 39.5744 29.236 39.2262 28.6508C39.0252 28.3131 38.8881 27.9367 38.7301 27.5743C38.5393 27.1369 38.6247 26.7439 38.9438 26.3974C39.0433 26.2896 39.1498 26.1883 39.2535 26.0844C40.308 25.0306 40.3081 25.0306 41.6826 25.6534C41.7892 25.7015 41.9062 25.7368 41.9989 25.8047C42.6822 26.3056 43.3595 26.1575 44.0261 25.7813C44.1385 25.7179 44.2349 25.5844 44.2859 25.4614C44.4709 25.0155 44.6511 24.5661 44.7994 24.1072C44.9473 23.6495 45.1756 23.2639 45.586 23C46.2321 23.0001 46.8782 23.0001 47.5244 23.0001ZM40.0341 27.21C40.3068 27.8186 40.5634 28.4252 40.8496 29.0176C41.0459 29.4237 41.0271 29.7952 40.8246 30.1927C40.6524 30.5303 40.5093 30.8863 40.3892 31.2463C40.2582 31.6389 40.0164 31.8992 39.6323 32.0416C39.097 32.2402 38.5719 32.4699 38.0274 32.6382C37.7104 32.7361 37.7345 32.9412 37.7297 33.1789C37.725 33.4114 37.7371 33.5867 38.02 33.6781C38.5764 33.858 39.1401 34.0421 39.656 34.3104C39.9414 34.459 40.1889 34.7501 40.3586 35.0336C40.574 35.3932 40.6757 35.8187 40.8584 36.2004C41.0303 36.5593 41.0388 36.898 40.8712 37.2555C40.6227 37.7862 40.4006 38.3297 40.1373 38.8526C40.0151 39.0953 40.1065 39.2271 40.2733 39.3716C40.4419 39.5176 40.5491 39.7396 40.8581 39.5801C41.378 39.3116 41.9144 39.0689 42.4617 38.8629C42.7065 38.7708 43.021 38.7077 43.2578 38.7808C43.8281 38.9568 44.3867 39.1907 44.9176 39.4643C45.1275 39.5727 45.3013 39.8255 45.404 40.0523C45.6392 40.5714 45.8433 41.1077 46.015 41.6513C46.1128 41.9605 46.2916 42.0007 46.5689 42.0025C46.8366 42.0043 46.9966 41.9469 47.0885 41.667C47.2621 41.139 47.4856 40.6277 47.6695 40.103C47.8066 39.7121 48.0632 39.47 48.4493 39.3308C48.8341 39.1919 49.215 39.0376 49.5842 38.8621C49.9402 38.6928 50.2767 38.6709 50.638 38.8418C51.1809 39.0984 51.7423 39.317 52.2772 39.5885C52.5728 39.7386 52.6691 39.5183 52.823 39.3826C52.9781 39.2456 53.11 39.1238 52.9812 38.8691C52.717 38.3469 52.499 37.8013 52.2473 37.2723C52.0697 36.8992 52.0769 36.5504 52.2637 36.1784C52.4405 35.8264 52.5935 35.4588 52.7175 35.085C52.8536 34.6754 53.1044 34.4133 53.5095 34.27C54.0341 34.0846 54.5431 33.852 55.0739 33.6895C55.3852 33.5941 55.3764 33.4015 55.3831 33.1567C55.3903 32.899 55.3589 32.7168 55.0654 32.6233C54.5499 32.459 54.0505 32.245 53.5394 32.0657C53.1044 31.913 52.8366 31.6319 52.7007 31.1835C52.5911 30.8215 52.4278 30.4724 52.2583 30.1326C52.0809 29.7772 52.0659 29.4366 52.2328 29.0781C52.4799 28.5469 52.6983 28.0012 52.9694 27.4828C53.1108 27.2127 52.9842 27.0887 52.819 26.928C52.6482 26.7618 52.522 26.599 52.2283 26.7541C51.7241 27.0202 51.1908 27.2311 50.6714 27.4683C50.3011 27.6374 49.9429 27.6326 49.5717 27.4532C49.2166 27.2817 48.8536 27.1187 48.4795 26.9963C48.0674 26.8614 47.8072 26.6084 47.6635 26.2055C47.4816 25.6954 47.2621 25.198 47.098 24.6826C47.0062 24.3939 46.8658 24.3087 46.567 24.3075C46.2533 24.3061 46.1035 24.3981 46.0064 24.7021C45.8375 25.2312 45.6532 25.7619 45.4049 26.2569C45.2707 26.5242 45.0335 26.8139 44.7706 26.9307C42.9873 27.7222 42.9811 27.7083 41.2202 26.9138C40.5759 26.6232 40.5759 26.6232 40.0341 27.21Z" fill="#009247"/>
<path fill-rule="evenodd" clip-rule="evenodd" d="M26.723 41.7719C26.723 39.4831 26.7201 37.1942 26.724 34.9054C26.7266 33.3799 27.5951 32.5077 29.124 32.5006C30.7085 32.4933 32.2936 32.4842 33.8775 32.5173C34.1068 32.5221 34.4004 32.7099 34.5348 32.903C34.631 33.0414 34.589 33.401 34.468 33.5338C34.3155 33.7011 34.0209 33.8145 33.7856 33.8181C32.2454 33.8423 30.7046 33.8296 29.1639 33.8309C28.351 33.8316 28.0491 34.1329 28.0491 34.9438C28.0484 39.5362 28.0487 44.1287 28.0486 48.7212C28.0486 48.8385 28.0533 48.9561 28.0472 49.0732C28.0247 49.5016 27.7457 49.7869 27.3635 49.7767C26.9984 49.7669 26.7338 49.4928 26.7277 49.0788C26.7166 48.3307 26.7231 47.5823 26.723 46.834C26.7227 45.1467 26.723 43.4593 26.723 41.7719Z" fill="#009247"/>
<path fill-rule="evenodd" clip-rule="evenodd" d="M66.3871 41.7678C66.3871 44.0721 66.3872 46.3765 66.3868 48.681C66.3868 48.8276 66.3948 48.976 66.3764 49.1206C66.3316 49.4733 66.1252 49.6746 65.7688 49.6969C65.386 49.7209 65.161 49.5134 65.0758 49.1586C65.0424 49.0191 65.0619 48.8665 65.0619 48.7199C65.0614 44.1405 65.0617 39.5612 65.0613 34.9817C65.0611 34.1128 64.7755 33.8309 63.8954 33.8306C62.3396 33.8298 60.7837 33.8406 59.2282 33.8187C59.0039 33.8155 58.7167 33.7148 58.578 33.5555C58.4544 33.4135 58.4016 33.0745 58.4892 32.9189C58.5964 32.7279 58.8803 32.5242 59.0908 32.5209C60.8661 32.4936 62.6428 32.4836 64.4178 32.5247C65.4885 32.5495 66.37 33.5201 66.3777 34.6346C66.3943 37.0122 66.3828 39.39 66.3828 41.7677C66.3843 41.7678 66.3857 41.7678 66.3871 41.7678Z" fill="#009247"/>
<path fill-rule="evenodd" clip-rule="evenodd" d="M56.2594 59.7534C56.2594 58.7552 56.2552 57.7573 56.2606 56.7592C56.2664 55.6769 57.1156 55.1753 58.062 55.7001C59.8428 56.6879 61.6164 57.6886 63.3985 58.674C63.8282 58.9116 64.133 59.2296 64.1359 59.7347C64.1387 60.2598 63.8203 60.5813 63.3762 60.8267C61.6191 61.7969 59.8712 62.784 58.1175 63.7604C57.0993 64.3271 56.2626 63.8294 56.2597 62.6595C56.2576 61.6907 56.2594 60.722 56.2594 59.7534ZM57.6442 56.9936C57.6442 58.8622 57.6442 60.6539 57.6442 62.495C59.295 61.5711 60.8952 60.6753 62.5602 59.7433C60.8814 58.8043 59.2865 57.9122 57.6442 56.9936Z" fill="#009247"/>
<path fill-rule="evenodd" clip-rule="evenodd" d="M33.073 55.8857C34.4956 55.8857 35.9183 55.8835 37.341 55.8886C37.5143 55.8892 37.6958 55.9018 37.8589 55.9542C38.1608 56.0511 38.3434 56.2999 38.2633 56.5946C38.2033 56.815 38.0168 57.036 37.8266 57.1741C37.6943 57.2701 37.4601 57.2419 37.2714 57.2422C34.4406 57.2456 31.61 57.2456 28.7793 57.242C28.5907 57.2419 28.3562 57.2693 28.2244 57.1728C28.0345 57.0339 27.8476 56.8119 27.7897 56.5912C27.7124 56.2972 27.8951 56.048 28.1984 55.9531C28.3622 55.9018 28.5433 55.889 28.7167 55.8885C30.1689 55.8836 31.6209 55.8857 33.073 55.8857Z" fill="#009247"/>
<path fill-rule="evenodd" clip-rule="evenodd" d="M32.9834 60.4237C31.5608 60.4237 30.1381 60.4259 28.7154 60.421C28.5421 60.4204 28.3608 60.4077 28.1974 60.3559C27.8945 60.2602 27.7123 60.01 27.7898 59.7167C27.8481 59.496 28.0361 59.2747 28.2263 59.1363C28.3585 59.04 28.5926 59.0678 28.7813 59.0674C31.6121 59.064 34.4428 59.0648 37.2734 59.066C37.4196 59.066 37.5688 59.0634 37.7113 59.09C38.074 59.1578 38.2847 59.3721 38.2802 59.7558C38.2755 60.1427 38.0454 60.3402 37.6903 60.4082C37.5625 60.4326 37.4273 60.4232 37.2956 60.4234C35.8582 60.4242 34.4208 60.4237 32.9834 60.4237Z" fill="#009247"/>
<path fill-rule="evenodd" clip-rule="evenodd" d="M32.9851 63.6004C31.5479 63.6004 30.1105 63.6023 28.6733 63.5977C28.5148 63.5973 28.3489 63.5842 28.1998 63.5358C27.8985 63.4379 27.7608 63.2067 27.7738 62.8934C27.7868 62.5786 27.9467 62.3641 28.256 62.2937C28.4253 62.2553 28.6046 62.2478 28.7793 62.2477C31.6099 62.2451 34.4405 62.2457 37.271 62.2458C37.359 62.2458 37.4473 62.243 37.5349 62.249C38.03 62.2831 38.2866 62.5197 38.2814 62.9332C38.2764 63.3391 37.9995 63.5858 37.5168 63.5982C37.1797 63.6069 36.8422 63.6003 36.5049 63.6003C35.3316 63.6004 34.1584 63.6004 32.9851 63.6004Z" fill="#009247"/>
<path fill-rule="evenodd" clip-rule="evenodd" d="M46.5526 37.6655C44.0671 37.6634 42.0608 35.65 42.0605 33.1575C42.0603 30.6754 44.0824 28.6481 46.5572 28.6494C49.034 28.6507 51.0498 30.6755 51.0493 33.1618C51.0489 35.6531 49.0374 37.6676 46.5526 37.6655ZM46.5628 36.3179C48.311 36.3155 49.7273 34.904 49.7282 33.1634C49.7292 31.4297 48.3105 30.0049 46.569 29.9904C44.8254 29.976 43.373 31.429 43.3816 33.1792C43.3901 34.9156 44.8139 36.3205 46.5628 36.3179Z" fill="#009247"/>
</svg>
