<svg width="93" height="92" viewBox="0 0 93 92" fill="none" xmlns="http://www.w3.org/2000/svg">
<rect x="8.5" y="7.5" width="84" height="84" rx="22.5" stroke="#009247" stroke-dasharray="2 2"/>
<rect width="85" height="85" rx="23" fill="#8BC53F" fill-opacity="0.33"/>
<path fill-rule="evenodd" clip-rule="evenodd" d="M27 62.3175C27 53.374 27 44.4304 27 35.4867C27.2111 35.0884 27.5403 34.9648 27.9875 34.9665C31.3833 34.9801 34.7791 34.9739 38.1749 34.9739C38.3384 34.9739 38.5017 34.9739 38.686 34.9739C38.686 34.7331 38.686 34.5624 38.686 34.3919C38.686 31.2957 38.69 28.1995 38.682 25.1033C38.6806 24.6501 38.7656 24.2598 39.1725 24C45.6874 24 52.2021 24 58.717 24C59.1225 24.2595 59.209 24.6484 59.2077 25.1011C59.1996 28.2104 59.2035 31.3197 59.2035 34.4291C59.2035 34.5961 59.2035 34.763 59.2035 34.974C59.4165 34.974 59.584 34.974 59.7515 34.974C63.089 34.974 66.4266 34.9814 69.7641 34.9654C70.2182 34.9632 70.5952 35.0456 70.8896 35.4011C70.8896 44.3733 70.8896 53.3454 70.8896 62.3176C70.6314 62.696 70.2629 62.8007 69.8246 62.7776C69.4458 62.7576 69.0649 62.7735 68.7106 62.7735C68.7106 64.162 68.7044 65.496 68.7139 66.83C68.717 67.2667 68.623 67.6408 68.2321 67.8895C55.3739 67.8895 42.5157 67.8895 29.6576 67.8895C29.3091 67.6582 29.1743 67.3277 29.1769 66.9164C29.1841 65.8361 29.1758 64.7555 29.1819 63.6751C29.1837 63.386 29.2151 63.097 29.235 62.7735C28.8021 62.7735 28.4334 62.7575 28.0667 62.7776C27.6276 62.8016 27.2591 62.695 27 62.3175ZM57.6693 52.5897C57.6693 43.5444 57.6693 34.515 57.6693 25.4893C51.8282 25.4893 46.0227 25.4893 40.2099 25.4893C40.2099 34.5392 40.2099 43.5601 40.2099 52.5995C41.5336 52.3743 42.6399 52.7172 43.3606 53.8521C44.1506 55.0963 43.9668 56.3194 43.0816 57.4183C43.5695 57.8532 44.0411 58.2736 44.4419 58.6308C45.1163 57.9841 45.7942 57.334 46.4708 56.6853C44.6872 54.9033 45.1592 52.6967 46.2005 51.5684C47.568 50.0866 49.6365 49.8842 51.1772 51.0743C51.889 51.6239 52.3531 52.3534 52.5256 53.2433C52.7944 54.6298 52.3318 55.7878 51.3574 56.7355C51.7638 57.0511 52.1621 57.3104 52.4976 57.635C52.8374 57.9635 53.1147 58.3565 53.3875 58.6828C53.871 58.2518 54.3337 57.8394 54.8074 57.4173C53.9569 56.328 53.766 55.131 54.5194 53.9071C55.2332 52.7479 56.3423 52.3856 57.6693 52.5897ZM38.686 36.4556C35.2587 36.4556 31.8825 36.4556 28.4855 36.4556C28.4855 44.7378 28.4855 52.997 28.4855 61.2603C29.2035 61.3404 29.8982 61.4442 30.2823 60.6308C30.3457 60.4961 30.4832 60.3897 30.6027 60.2895C30.8707 60.0645 31.1487 59.8518 31.4226 59.6342C30.2602 58.2216 30.5495 56.5647 31.482 55.6005C32.4743 54.5741 34.1059 54.4216 35.2402 55.2285C35.8458 55.6593 36.249 56.2297 36.4263 56.9516C36.6757 57.9669 36.3741 58.8541 35.7344 59.6525C36.0403 59.8715 36.3118 60.066 36.6191 60.2861C36.9621 59.0409 37.6695 58.1131 38.7544 57.4618C38.6947 57.3779 38.656 57.3195 38.6134 57.2641C37.7849 56.1884 37.7594 54.8933 38.5154 53.7633C38.6308 53.591 38.6791 53.3425 38.6796 53.1291C38.6882 47.731 38.6863 42.3329 38.6863 36.9348C38.686 36.7823 38.686 36.6297 38.686 36.4556ZM69.3968 61.2944C69.3968 52.9776 69.3968 44.7186 69.3968 36.4634C65.9872 36.4634 62.6101 36.4634 59.2283 36.4634C59.2183 36.5639 59.2053 36.6343 59.2053 36.7047C59.204 42.2313 59.2023 47.758 59.2112 53.2846C59.2115 53.4532 59.2937 53.6406 59.3883 53.7864C59.7322 54.3151 59.9264 54.8795 59.917 55.5159C59.9059 56.2613 59.5998 56.888 59.192 57.393C59.6469 57.836 60.1295 58.2089 60.4836 58.6786C60.8355 59.1455 61.0578 59.7098 61.343 60.2422C61.5924 60.059 61.8645 59.8591 62.1349 59.6604C61.0513 57.8689 61.1638 56.4681 62.4673 55.3687C63.5519 54.4536 65.1635 54.4884 66.2708 55.4719C67.1529 56.2553 67.8023 57.9167 66.5409 59.5646C67.0478 60.117 67.5404 60.6597 68.043 61.193C68.1005 61.254 68.2136 61.2872 68.3023 61.2899C68.6571 61.3006 69.0127 61.2944 69.3968 61.2944ZM52.5612 66.4109C52.575 66.3128 52.5898 66.2574 52.5898 66.2021C52.5914 64.6041 52.5959 63.0059 52.59 61.4079C52.5864 60.4637 52.3024 59.6207 51.6708 58.8991C50.6957 57.7849 49.1627 57.3881 47.6932 57.8876C46.3958 58.3287 45.3874 59.6082 45.3427 61.0129C45.2878 62.7375 45.3092 64.4644 45.2998 66.1903C45.2996 66.2587 45.3232 66.3271 45.3387 66.411C47.7448 66.4109 50.1378 66.4109 52.5612 66.4109ZM54.0925 66.3968C56.0582 66.3968 57.9774 66.3968 59.9187 66.3968C59.9187 65.0227 59.9239 63.6808 59.916 62.339C59.9132 61.8547 59.9147 61.3657 59.8519 60.887C59.6622 59.4407 58.3543 58.3297 56.9455 58.3848C55.4481 58.4435 54.1698 59.5574 54.1099 61.0176C54.0369 62.7987 54.0925 64.585 54.0925 66.3968ZM43.783 66.4185C43.783 64.5541 43.8761 62.7231 43.7551 60.9062C43.6481 59.3031 42.1086 58.2187 40.5343 58.4323C39.0162 58.6384 37.9929 59.8169 37.9748 61.4239C37.9572 62.9953 37.9704 64.5669 37.9728 66.1384C37.973 66.2316 38.0002 66.3249 38.0147 66.4184C39.9426 66.4185 41.841 66.4185 43.783 66.4185ZM67.192 66.4193C67.192 65.2864 67.2669 64.185 67.1736 63.0983C67.0494 61.6548 65.7447 60.5854 64.2842 60.5941C62.8317 60.6029 61.5881 61.6608 61.4503 63.1022C61.3597 64.0501 61.3968 65.0103 61.3778 65.965C61.3749 66.114 61.3773 66.263 61.3773 66.4193C63.348 66.4193 65.2446 66.4193 67.192 66.4193ZM36.4581 66.4192C36.4581 65.3022 36.5363 64.2159 36.4397 63.1452C36.2976 61.5711 34.9761 60.5232 33.3918 60.5994C31.9121 60.6705 30.7159 61.9114 30.681 63.4382C30.6604 64.3367 30.6738 65.2362 30.6761 66.1352C30.6763 66.2282 30.7043 66.321 30.7203 66.4192C32.6447 66.4192 34.5412 66.4192 36.4581 66.4192ZM51.115 53.9834C51.1106 52.7687 50.1447 51.8063 48.9371 51.8133C47.7239 51.8204 46.7688 52.7856 46.7748 53.9984C46.7808 55.2182 47.7337 56.1645 48.9528 56.1615C50.1685 56.1585 51.1195 55.2005 51.115 53.9834ZM57.0102 54.0005C56.2225 53.9902 55.556 54.6359 55.5413 55.4234C55.5264 56.2285 56.1944 56.9145 56.9925 56.9136C57.7689 56.9127 58.4438 56.2414 58.4506 55.4633C58.4575 54.6864 57.7921 54.0108 57.0102 54.0005ZM42.3481 55.4814C42.3603 54.6892 41.7257 54.023 40.9373 54.0008C40.1398 53.9784 39.4441 54.6506 39.4388 55.4482C39.4337 56.2226 40.1019 56.9012 40.8817 56.9133C41.6597 56.9254 42.3357 56.2653 42.3481 55.4814ZM65.7532 57.6322C65.7464 56.8293 65.1126 56.2085 64.3013 56.2102C63.4996 56.2118 62.8504 56.8509 62.8459 57.6427C62.8415 58.4494 63.5115 59.1003 64.3333 59.0879C65.1372 59.0756 65.7597 58.4373 65.7532 57.6322ZM33.5748 56.2099C32.7665 56.2133 32.1371 56.8414 32.1362 57.6455C32.1352 58.448 32.7653 59.0819 33.57 59.0879C34.3896 59.094 35.0586 58.4314 35.0426 57.6292C35.0267 56.8323 34.3795 56.2065 33.5748 56.2099Z" fill="#009247"/>
<path fill-rule="evenodd" clip-rule="evenodd" d="M48.95 26.919C50.3208 26.919 51.6915 26.918 53.0624 26.9194C53.8161 26.9202 54.0769 27.1726 54.078 27.9114C54.0804 29.6963 54.0806 31.4811 54.0778 33.2662C54.0767 33.9736 53.8038 34.2556 53.0953 34.257C50.3253 34.2619 47.555 34.2622 44.7849 34.2565C44.0799 34.2552 43.8129 33.9717 43.8119 33.2568C43.8095 31.4719 43.8093 29.687 43.8119 27.9021C43.8131 27.183 44.0771 26.9207 44.7948 26.9196C46.1798 26.9174 47.5649 26.919 48.95 26.919ZM45.3271 32.7251C47.7544 32.7251 50.1566 32.7251 52.5632 32.7251C52.5632 31.2689 52.5632 29.8482 52.5632 28.4074C50.1415 28.4074 47.7497 28.4074 45.3271 28.4074C45.3271 29.8585 45.3271 31.2912 45.3271 32.7251Z" fill="#009247"/>
<path fill-rule="evenodd" clip-rule="evenodd" d="M51.1259 37.1455C51.1259 36.7308 51.1135 36.322 51.1365 35.9152C51.1411 35.8353 51.2794 35.7027 51.362 35.6979C51.7563 35.6749 52.1527 35.6876 52.5832 35.6876C52.5832 36.1846 52.5832 36.645 52.5832 37.1455C52.1245 37.1455 51.6538 37.1455 51.1259 37.1455Z" fill="#009247"/>
<path fill-rule="evenodd" clip-rule="evenodd" d="M46.7604 37.1605C46.2462 37.1605 45.7856 37.1605 45.2979 37.1605C45.2979 36.6751 45.2979 36.2138 45.2979 35.6904C45.7274 35.6904 46.1492 35.6826 46.5703 35.6985C46.6357 35.7009 46.7496 35.8098 46.752 35.8728C46.7684 36.2945 46.7604 36.717 46.7604 37.1605Z" fill="#009247"/>
<path fill-rule="evenodd" clip-rule="evenodd" d="M48.197 37.15C48.197 36.7184 48.1868 36.3091 48.2063 35.901C48.2097 35.8275 48.3325 35.7572 48.4055 35.6914C48.4216 35.6769 48.4605 35.6887 48.4888 35.6866C49.7238 35.5965 49.8524 35.754 49.6508 37.15C49.1959 37.15 48.7346 37.15 48.197 37.15Z" fill="#009247"/>
<path fill-rule="evenodd" clip-rule="evenodd" d="M49.6742 44.5132C49.6742 44.9887 49.6742 45.4384 49.6742 45.9158C49.1929 45.9158 48.7289 45.9158 48.2295 45.9158C48.2295 45.4624 48.2295 45.0024 48.2295 44.5132C48.6968 44.5132 49.1605 44.5132 49.6742 44.5132Z" fill="#009247"/>
<path fill-rule="evenodd" clip-rule="evenodd" d="M51.1445 45.9164C51.1445 45.4378 51.1445 44.9879 51.1445 44.5112C51.6279 44.5112 52.0907 44.5112 52.586 44.5112C52.586 44.9692 52.586 45.4292 52.586 45.9164C52.1175 45.9164 51.654 45.9164 51.1445 45.9164Z" fill="#009247"/>
<path fill-rule="evenodd" clip-rule="evenodd" d="M45.2925 47.4199C45.7844 47.4199 46.2369 47.4199 46.7277 47.4199C46.7277 47.8846 46.7277 48.3437 46.7277 48.8356C46.2574 48.8356 45.7857 48.8356 45.2925 48.8356C45.2925 48.3659 45.2925 47.9164 45.2925 47.4199Z" fill="#009247"/>
<path fill-rule="evenodd" clip-rule="evenodd" d="M49.6726 47.4346C49.6726 47.905 49.6726 48.3548 49.6726 48.8362C49.1851 48.8362 48.7123 48.8362 48.2168 48.8362C48.2168 48.3647 48.2168 47.9148 48.2168 47.4346C48.6937 47.4346 49.1569 47.4346 49.6726 47.4346Z" fill="#009247"/>
<path fill-rule="evenodd" clip-rule="evenodd" d="M51.1528 47.4282C51.6458 47.4282 52.1096 47.4282 52.5958 47.4282C52.5958 47.9008 52.5958 48.3501 52.5958 48.8339C52.117 48.8339 51.6447 48.8339 51.1528 48.8339C51.1528 48.358 51.1528 47.896 51.1528 47.4282Z" fill="#009247"/>
<path fill-rule="evenodd" clip-rule="evenodd" d="M49.6412 43.0128C49.1699 43.0128 48.7154 43.0128 48.228 43.0128C48.228 42.5395 48.228 42.0782 48.228 41.5874C48.6869 41.5874 49.1369 41.5874 49.6412 41.5874C49.6412 42.0372 49.6412 42.5034 49.6412 43.0128Z" fill="#009247"/>
<path fill-rule="evenodd" clip-rule="evenodd" d="M48.2251 38.6509C48.7082 38.6509 49.1717 38.6509 49.6654 38.6509C49.6654 39.1296 49.6654 39.5918 49.6654 40.0803C49.182 40.0803 48.7189 40.0803 48.2251 40.0803C48.2251 39.605 48.2251 39.1431 48.2251 38.6509Z" fill="#009247"/>
<path fill-rule="evenodd" clip-rule="evenodd" d="M45.3042 44.4971C45.7891 44.4971 46.2423 44.4971 46.7307 44.4971C46.7307 44.9686 46.7307 45.4283 46.7307 45.9159C46.2634 45.9159 45.8005 45.9159 45.3042 45.9159C45.3042 45.4622 45.3042 45.0021 45.3042 44.4971Z" fill="#009247"/>
<path fill-rule="evenodd" clip-rule="evenodd" d="M51.1509 41.5811C51.6406 41.5811 52.1039 41.5811 52.5928 41.5811C52.5928 42.0532 52.5928 42.503 52.5928 42.9898C52.1241 42.9898 51.6514 42.9898 51.1509 42.9898C51.1509 42.5248 51.1509 42.0625 51.1509 41.5811Z" fill="#009247"/>
<path fill-rule="evenodd" clip-rule="evenodd" d="M46.7386 43.0057C46.2504 43.0057 45.7874 43.0057 45.2979 43.0057C45.2979 42.5371 45.2979 42.0878 45.2979 41.5981C45.7653 41.5981 46.2379 41.5981 46.7386 41.5981C46.7386 42.0606 46.7386 42.523 46.7386 43.0057Z" fill="#009247"/>
<path fill-rule="evenodd" clip-rule="evenodd" d="M52.5849 40.0902C52.0988 40.0902 51.6456 40.0902 51.1289 40.0902C51.1289 39.6582 51.119 39.2348 51.1393 38.8128C51.1424 38.7462 51.2799 38.6357 51.3595 38.6319C51.7562 38.6132 52.1543 38.6234 52.585 38.6234C52.5849 39.12 52.5849 39.5812 52.5849 40.0902Z" fill="#009247"/>
<path fill-rule="evenodd" clip-rule="evenodd" d="M45.3052 38.6231C45.7327 38.6231 46.1311 38.6104 46.527 38.6335C46.6097 38.6383 46.7475 38.7721 46.7523 38.8526C46.7758 39.2483 46.7631 39.6458 46.7631 40.0742C46.2627 40.0742 45.8015 40.0742 45.3052 40.0742C45.3052 39.616 45.3052 39.1551 45.3052 38.6231Z" fill="#009247"/>
<path fill-rule="evenodd" clip-rule="evenodd" d="M54.0815 45.9117C54.0815 45.4455 54.0815 44.9963 54.0815 44.5156C54.5475 44.5156 55.0092 44.5156 55.5055 44.5156C55.5055 44.961 55.5055 45.4203 55.5055 45.9117C55.0444 45.9117 54.5736 45.9117 54.0815 45.9117Z" fill="#009247"/>
<path fill-rule="evenodd" clip-rule="evenodd" d="M43.8052 47.439C43.8052 47.8989 43.8052 48.3479 43.8052 48.8324C43.3357 48.8324 42.865 48.8324 42.3721 48.8324C42.3721 48.3718 42.3721 47.9228 42.3721 47.439C42.8399 47.439 43.3104 47.439 43.8052 47.439Z" fill="#009247"/>
<path fill-rule="evenodd" clip-rule="evenodd" d="M55.5166 47.4268C55.5166 47.9247 55.5166 48.3738 55.5166 48.8449C55.0337 48.8449 54.5736 48.8449 54.0869 48.8449C54.0869 48.3659 54.0869 47.9075 54.0869 47.4268C54.5701 47.4268 55.0305 47.4268 55.5166 47.4268Z" fill="#009247"/>
<path fill-rule="evenodd" clip-rule="evenodd" d="M43.799 43.0084C43.3038 43.0084 42.8541 43.0084 42.3774 43.0084C42.3774 42.5316 42.3774 42.0724 42.3774 41.5854C42.8492 41.5854 43.3089 41.5854 43.799 41.5854C43.799 42.0561 43.799 42.515 43.799 43.0084Z" fill="#009247"/>
<path fill-rule="evenodd" clip-rule="evenodd" d="M54.0874 38.6465C54.5898 38.6465 55.0401 38.6465 55.5147 38.6465C55.5147 39.1331 55.5147 39.5943 55.5147 40.0812C55.0351 40.0812 54.5746 40.0812 54.0874 40.0812C54.0874 39.5987 54.0874 39.1381 54.0874 38.6465Z" fill="#009247"/>
<path fill-rule="evenodd" clip-rule="evenodd" d="M55.5171 43.0027C55.0297 43.0027 54.5693 43.0027 54.085 43.0027C54.085 42.5303 54.085 42.081 54.085 41.5947C54.5534 41.5947 55.0238 41.5947 55.5171 41.5947C55.5171 42.0556 55.5171 42.5051 55.5171 43.0027Z" fill="#009247"/>
<path fill-rule="evenodd" clip-rule="evenodd" d="M43.8023 40.0809C43.3183 40.0809 42.8576 40.0809 42.3735 40.0809C42.3735 39.5975 42.3735 39.1363 42.3735 38.6479C42.8564 38.6479 43.3162 38.6479 43.8023 38.6479C43.8023 39.1345 43.8023 39.5951 43.8023 40.0809Z" fill="#009247"/>
<path fill-rule="evenodd" clip-rule="evenodd" d="M42.3853 44.5088C42.8631 44.5088 43.3236 44.5088 43.8063 44.5088C43.8063 44.9816 43.8063 45.4306 43.8063 45.9116C43.3447 45.9116 42.883 45.9116 42.3853 45.9116C42.3853 45.4702 42.3853 45.0114 42.3853 44.5088Z" fill="#009247"/>
<path fill-rule="evenodd" clip-rule="evenodd" d="M30.6899 40.835C31.1561 40.835 31.6081 40.835 32.0972 40.835C32.0972 44.7104 32.0972 48.5866 32.0972 52.5013C31.6551 52.5013 31.1936 52.5013 30.6899 52.5013C30.6899 48.629 30.6899 44.7441 30.6899 40.835Z" fill="#009247"/>
<path fill-rule="evenodd" clip-rule="evenodd" d="M36.4764 52.5286C36.0043 52.5286 35.564 52.5286 35.0864 52.5286C35.0864 48.6348 35.0864 44.7493 35.0864 40.8374C35.5386 40.8374 35.9892 40.8374 36.4764 40.8374C36.4764 44.7166 36.4764 48.6022 36.4764 52.5286Z" fill="#009247"/>
<path fill-rule="evenodd" clip-rule="evenodd" d="M62.803 52.5284C62.3282 52.5284 61.8878 52.5284 61.4121 52.5284C61.4121 48.6348 61.4121 44.7489 61.4121 40.8369C61.8649 40.8369 62.3151 40.8369 62.803 40.8369C62.803 44.7182 62.803 48.6033 62.803 52.5284Z" fill="#009247"/>
<path fill-rule="evenodd" clip-rule="evenodd" d="M65.7827 40.833C66.2757 40.833 66.7275 40.833 67.2098 40.833C67.2098 44.7312 67.2098 48.6075 67.2098 52.5117C66.7362 52.5117 66.2732 52.5117 65.7827 52.5117C65.7827 48.6231 65.7827 44.7468 65.7827 40.833Z" fill="#009247"/>
</svg>
