<svg width="36" height="36" viewBox="0 0 36 36" fill="none" xmlns="http://www.w3.org/2000/svg">
<path fill-rule="evenodd" clip-rule="evenodd" d="M17.6552 35.3103C27.4059 35.3103 35.3103 27.4059 35.3103 17.6552C35.3103 7.90449 27.4059 0 17.6552 0C7.90449 0 0 7.90449 0 17.6552C0 27.4059 7.90449 35.3103 17.6552 35.3103Z" fill="#8BC53F" fill-opacity="0.33"/>
<path d="M21.3459 9H13.1153C10.8425 9 9 10.8425 9 13.1153V21.3459C9 23.6187 10.8425 25.4612 13.1153 25.4612H21.3459C23.6187 25.4612 25.4612 23.6187 25.4612 21.3459V13.1153C25.4612 10.8425 23.6187 9 21.3459 9Z" stroke="#009247" stroke-linecap="round" stroke-linejoin="round"/>
<path d="M20.5227 16.7121C20.6243 17.397 20.5073 18.0966 20.1884 18.7113C19.8694 19.3259 19.3648 19.8244 18.7463 20.1357C18.1277 20.447 17.4268 20.5554 16.7431 20.4454C16.0594 20.3354 15.4278 20.0126 14.9382 19.5229C14.4485 19.0333 14.1257 18.4017 14.0157 17.718C13.9057 17.0343 14.014 16.3334 14.3254 15.7148C14.6367 15.0963 15.1352 14.5916 15.7498 14.2727C16.3645 13.9538 17.064 13.8368 17.749 13.9384C18.4477 14.042 19.0946 14.3675 19.5941 14.867C20.0935 15.3665 20.4191 16.0133 20.5227 16.7121Z" stroke="#009247" stroke-linecap="round" stroke-linejoin="round"/>
<path d="M21.7573 12.7038H21.7661" stroke="#009247" stroke-linecap="round" stroke-linejoin="round"/>
</svg>
