<svg width="201" height="50" viewBox="0 0 201 50" fill="none" xmlns="http://www.w3.org/2000/svg">
<path d="M10.339 30.0571C10.2285 30.0571 10.118 30.0433 10.0094 30.0176C9.664 29.9308 9.36794 29.7097 9.18636 29.4038C9.00478 29.0979 8.94952 28.7328 9.03636 28.3874C9.56334 26.5223 10.3785 24.7499 11.4502 23.1354C13.8305 19.5749 17.0753 17.6072 20.8826 17.4414H20.9438C28.3728 17.4414 32.267 24.4025 33.2874 28.0834C33.3347 28.2532 33.3486 28.4328 33.3268 28.6065C33.3051 28.7821 33.2499 28.9519 33.1611 29.1058C33.0742 29.2597 32.9578 29.3959 32.8176 29.5045C32.6775 29.613 32.5196 29.694 32.3479 29.7413C32.1781 29.7887 31.9985 29.8025 31.8249 29.7808C31.6492 29.7591 31.4795 29.7038 31.3255 29.615C31.1716 29.5282 31.0373 29.4117 30.9268 29.2716C30.8183 29.1315 30.7373 28.9736 30.69 28.8019C30.1827 27.2032 29.4288 25.6953 28.4577 24.3275C26.4544 21.5407 23.932 20.1256 20.9556 20.1217C13.8739 20.4513 11.6456 28.9518 11.6239 29.0387C11.5528 29.3268 11.389 29.5834 11.1561 29.767C10.9232 29.9505 10.637 30.0532 10.339 30.0551V30.0571Z" fill="white"/>
<path d="M25.8777 49.3447H3.02214C2.84253 49.3447 2.6649 49.3072 2.50108 49.2381C2.33529 49.1671 2.18726 49.0664 2.06094 48.9361C1.9366 48.8079 1.83791 48.6559 1.77278 48.4881C1.70765 48.3204 1.67607 48.1427 1.68002 47.9631C1.81423 43.0171 3.62215 38.981 7.04852 35.9711C11.8545 31.7435 16.848 31.5284 17.0592 31.5225H32.4226C32.5982 31.5225 32.7739 31.558 32.9357 31.6251C33.0976 31.6922 33.2456 31.7909 33.3719 31.9152C33.4963 32.0396 33.595 32.1876 33.6621 32.3494C33.7292 32.5113 33.7647 32.6869 33.7647 32.8626C33.7647 35.2803 33.3325 37.2875 31.112 39.2099C28.7455 41.3296 26.5685 41.304 25.9942 41.2467H19.3783C19.023 41.2467 18.6816 41.1046 18.4289 40.854C18.1783 40.6033 18.0362 40.2619 18.0362 39.9046C18.0362 39.5474 18.1783 39.2079 18.4289 38.9573C18.6796 38.7066 19.0211 38.5645 19.3783 38.5645H26.0633C26.1284 38.5586 26.1935 38.5586 26.2587 38.5645C26.2942 38.5645 27.6561 38.6849 29.3357 37.1849C29.7995 36.8198 30.1883 36.3678 30.4745 35.8527C30.7627 35.3376 30.9443 34.7691 31.0094 34.183H17.1223C14.0236 34.5481 11.1163 35.8705 8.80315 37.9645C6.27877 40.1829 4.71361 43.2934 4.43729 46.6427H25.7968C26.312 46.5855 31.4476 45.9756 35.0121 42.2947C36.9996 40.3625 38.2292 37.779 38.474 35.0178V27.8929C38.474 27.5376 38.6161 27.1962 38.8667 26.9435C39.1174 26.6909 39.4589 26.5508 39.8161 26.5508C40.1733 26.5508 40.5128 26.6929 40.7635 26.9435C41.0141 27.1942 41.1563 27.5356 41.1563 27.8929V35.2645C40.8602 38.6533 39.3582 41.823 36.9246 44.1993C32.464 48.8079 26.2133 49.3388 25.9488 49.3605L25.8797 49.3427L25.8777 49.3447Z" fill="#8BC43A"/>
<path d="M14.634 15.682C11.3754 15.682 8.71875 12.3031 8.71875 8.15441C8.71875 4.00575 11.3773 0.638672 14.634 0.638672C17.8906 0.638672 20.5492 4.01365 20.5492 8.1623C20.5492 12.311 17.8965 15.682 14.634 15.682ZM14.634 3.313C12.8813 3.313 11.403 5.52745 11.403 8.15441C11.403 10.7814 12.8833 12.9998 14.634 12.9998C16.3847 12.9998 17.8649 10.7794 17.8649 8.15441C17.8649 5.52943 16.3847 3.313 14.634 3.313Z" fill="white"/>
<path d="M5.64296 22.7762C3.35346 22.7762 1.10934 20.9683 0.300121 18.2605C-0.651209 15.071 0.732365 11.8263 3.41464 11.0309C4.10544 10.8395 4.82979 10.8079 5.53244 10.9381C6.23705 11.0684 6.90219 11.3566 7.47654 11.7829C8.67656 12.6769 9.55684 13.9342 9.98513 15.3671C10.4134 16.7999 10.368 18.3335 9.85684 19.7387C9.60815 20.4098 9.20946 21.0157 8.69235 21.5131C8.17524 22.0085 7.55154 22.3795 6.87061 22.5986C6.47192 22.717 6.05744 22.7762 5.64099 22.7762H5.64296ZM4.65611 13.5315C4.49426 13.5315 4.33439 13.5552 4.18044 13.6006C2.95082 13.9677 2.35081 15.7638 2.88174 17.4947C3.41464 19.2256 4.88506 20.3979 6.11271 20.0308C6.40679 19.9223 6.67324 19.7506 6.89232 19.5256C7.11141 19.3006 7.2772 19.0302 7.37588 18.7322C7.66207 17.8894 7.67786 16.9776 7.42325 16.1249C7.16667 15.2723 6.65153 14.5203 5.94889 13.9736C5.57191 13.7013 5.11993 13.5473 4.65611 13.5315Z" fill="white"/>
<path d="M27.7146 15.682C24.4699 15.682 21.9297 12.3761 21.9297 8.15441C21.9297 3.93273 24.4817 0.638672 27.7146 0.638672C30.9476 0.638672 33.5035 3.94457 33.5035 8.1623C33.5035 12.38 30.9732 15.682 27.7146 15.682ZM27.7146 3.313C26.0311 3.313 24.612 5.52745 24.612 8.15441C24.612 10.7814 26.0311 12.9998 27.7146 12.9998C29.3982 12.9998 30.8213 10.7794 30.8213 8.15441C30.8213 5.52943 29.3982 3.313 27.7146 3.313Z" fill="white"/>
<path d="M36.5956 22.7743C36.1792 22.7763 35.7647 22.717 35.366 22.5966C34.6851 22.3776 34.0614 22.0065 33.5443 21.5111C33.0272 21.0157 32.6285 20.4098 32.3798 19.7368C31.8488 18.3335 31.8035 16.7941 32.2495 15.3631C33.2008 12.1737 36.1436 10.2277 38.822 11.0369C41.5003 11.8461 42.8878 15.077 41.9365 18.2664C41.1135 20.9703 38.8693 22.7743 36.5937 22.7743H36.5956ZM37.5864 13.5296C36.4713 13.5296 35.2811 14.6072 34.8213 16.125C34.5568 16.9737 34.5765 17.8855 34.8785 18.7204C34.9772 19.0184 35.141 19.2888 35.3581 19.5138C35.5752 19.7388 35.8417 19.9105 36.1358 20.019C37.3693 20.3861 38.8476 19.2276 39.3687 17.4829C39.8878 15.7401 39.2858 13.9579 38.07 13.5888C37.9081 13.5434 37.7404 13.5217 37.5726 13.5276H37.5864V13.5296Z" fill="white"/>
<path d="M63.4149 26.1445C68.7333 26.1445 72.5419 23.2192 72.5294 19.1664C72.5419 16.216 70.6689 14.1112 67.186 13.6728V13.4848C69.8358 13.0088 71.6649 11.1358 71.6524 8.47984C71.6649 4.74645 68.3887 1.80859 63.4838 1.80859C58.579 1.80859 54.9708 4.65248 54.9019 8.74919H59.7003C59.7566 6.94513 61.4104 5.78002 63.4588 5.78002C65.5072 5.78002 66.8352 7.00777 66.8227 8.78677C66.8352 10.6472 65.2504 11.9125 62.9702 11.9125H60.7589V15.5896H62.9702C65.6513 15.5896 67.3301 16.9301 67.3175 18.8406C67.3301 20.7261 65.7076 22.0228 63.4212 22.0228C61.1348 22.0228 59.5562 20.8639 59.4622 19.1288H54.4258C54.5072 23.2693 58.2094 26.1508 63.4149 26.1508V26.1445ZM84.2059 26.1696C89.5994 26.1696 92.9507 22.4801 92.9507 17.0115C92.9507 11.543 89.5931 7.82837 84.2059 7.82837C78.8187 7.82837 75.461 11.5054 75.461 17.0115C75.461 22.5177 78.8187 26.1696 84.2059 26.1696ZM84.2309 22.3548C81.744 22.3548 80.4724 20.0747 80.4724 16.9739C80.4724 13.8732 81.744 11.5806 84.2309 11.5806C86.7178 11.5806 87.9456 13.8732 87.9456 16.9739C87.9456 20.0747 86.674 22.3548 84.2309 22.3548ZM104.182 26.1696C109.57 26.1696 112.927 22.4801 112.927 17.0115C112.927 11.543 109.57 7.82837 104.182 7.82837C98.7953 7.82837 95.4376 11.5054 95.4376 17.0115C95.4376 22.5177 98.7953 26.1696 104.182 26.1696ZM104.208 22.3548C101.721 22.3548 100.449 20.0747 100.449 16.9739C100.449 13.8732 101.721 11.5806 104.208 11.5806C106.694 11.5806 107.922 13.8732 107.922 16.9739C107.922 20.0747 106.651 22.3548 104.208 22.3548Z" fill="#8BC43A"/>
<path d="M130.555 25.8177H136.769L127.097 13.1142L136.343 2.12695H130.11L122.243 11.5857H121.234V2.12695H116.223V25.8177H121.234V15.72H122.944L130.555 25.8177ZM138.154 25.8177H139.632C143.403 25.8177 145.401 23.3184 145.702 17.3487L145.978 11.924H150.363V25.8177H155.061V8.05279H141.549L141.261 15.9205C141.085 20.4181 140.396 21.9152 138.717 21.9152H138.129L138.154 25.824V25.8177ZM163.593 19.3156V8.04652H158.888V25.8114H163.781L170.151 14.5111V25.8114H174.85V8.04652H169.988L163.593 19.3156ZM178.796 25.8177H183.726V19.5161H185.568L189.953 25.8177H195.803L189.451 16.8663L195.734 8.05279H189.953L185.117 14.9495H183.726V8.05279H178.796V25.8177Z" fill="white"/>
<path d="M63.8781 43.3761V40.4034H64.567C64.8501 40.0636 65.0578 39.5981 65.1899 39.0067C65.3283 38.4153 65.3975 37.6917 65.3975 36.8361V35.0713H70.5691V40.4034H71.5412V43.3761H70.0501V41.7246H65.3692V43.3761H63.8781ZM66.2846 40.4034H68.8421V36.3925H66.983V37.0248C66.983 37.805 66.9232 38.475 66.8037 39.035C66.6904 39.5886 66.5174 40.0448 66.2846 40.4034ZM72.3597 41.7246V35.0713H77.1349V36.402H74.0301V37.676H76.9084V39.0161H74.0301V40.3845H77.1349V41.7246H72.3597ZM78.3952 41.9039L77.527 40.6771C77.7975 40.5261 78.0271 40.3499 78.2159 40.1486C78.4109 39.9472 78.5682 39.7113 78.6877 39.4408C78.8073 39.164 78.8954 38.8368 78.952 38.4593C79.0149 38.0818 79.0464 37.6414 79.0464 37.1381V35.0713H84.218V41.7246H82.491V36.468H80.6413V37.5628C80.6413 38.1353 80.5878 38.6512 80.4808 39.1105C80.3802 39.5698 80.2323 39.9787 80.0373 40.3373C79.8485 40.6959 79.6157 41.0042 79.3389 41.2622C79.0621 41.5201 78.7475 41.734 78.3952 41.9039ZM84.6255 41.7246L87.7398 35.0713H89.1554L92.2886 41.7246H90.5427L89.7405 39.8938L90.4106 40.3751H86.5035L87.1641 39.8938L86.3714 41.7246H84.6255ZM88.4382 36.8644L87.334 39.4974L87.0698 39.0538H89.8349L89.599 39.4974L88.4854 36.8644H88.4382ZM93.3896 41.7246V36.4775H91.37V35.0713H97.1551V36.4775H95.1355V41.7246H93.3896ZM97.8883 41.7246V35.0713H99.6154V37.6666H101.276C102.019 37.6666 102.601 37.8427 103.022 38.1951C103.45 38.5411 103.664 39.0381 103.664 39.6861C103.664 40.3405 103.45 40.8438 103.022 41.1961C102.601 41.5484 102.019 41.7246 101.276 41.7246H97.8883ZM99.6154 40.4317H101.04C101.386 40.4317 101.635 40.3719 101.786 40.2524C101.943 40.1266 102.022 39.9378 102.022 39.6861C102.022 39.4408 101.943 39.2615 101.786 39.1482C101.635 39.0287 101.386 38.9689 101.04 38.9689H99.6154V40.4317ZM106.752 43.3761V40.4034H107.44C107.724 40.0636 107.931 39.5981 108.063 39.0067C108.202 38.4153 108.271 37.6917 108.271 36.8361V35.0713H113.443V40.4034H114.415V43.3761H112.924V41.7246H108.243V43.3761H106.752ZM109.158 40.4034H111.716V36.3925H109.856V37.0248C109.856 37.805 109.797 38.475 109.677 39.035C109.564 39.5886 109.391 40.0448 109.158 40.4034ZM115.054 38.3932C115.054 37.7012 115.189 37.1003 115.46 36.5907C115.73 36.0748 116.117 35.6753 116.62 35.3922C117.124 35.1091 117.718 34.9675 118.404 34.9675C119.096 34.9675 119.694 35.1091 120.197 35.3922C120.7 35.6753 121.087 36.0748 121.358 36.5907C121.635 37.1003 121.773 37.7012 121.773 38.3932C121.773 39.079 121.635 39.6799 121.358 40.1958C121.087 40.7117 120.7 41.1143 120.197 41.4037C119.694 41.6869 119.096 41.8284 118.404 41.8284C117.718 41.8284 117.124 41.6869 116.62 41.4037C116.123 41.1143 115.736 40.7117 115.46 40.1958C115.189 39.6799 115.054 39.079 115.054 38.3932ZM116.875 38.3932C116.875 39.0161 117.001 39.5037 117.253 39.856C117.504 40.2021 117.888 40.3751 118.404 40.3751C118.92 40.3751 119.307 40.2021 119.565 39.856C119.823 39.5037 119.952 39.0161 119.952 38.3932C119.952 37.7704 119.823 37.2859 119.565 36.9399C119.307 36.5939 118.92 36.4208 118.404 36.4208C117.888 36.4208 117.504 36.5939 117.253 36.9399C117.001 37.2796 116.875 37.7641 116.875 38.3932ZM122.818 41.7246V35.0713H127.895V36.3925H124.479V37.6666H126.206C126.948 37.6666 127.53 37.8427 127.952 38.1951C128.38 38.5411 128.594 39.0381 128.594 39.6861C128.594 40.3405 128.38 40.8438 127.952 41.1961C127.53 41.5484 126.948 41.7246 126.206 41.7246H122.818ZM124.479 40.4317H125.97C126.316 40.4317 126.565 40.3719 126.716 40.2524C126.873 40.1266 126.951 39.9378 126.951 39.6861C126.951 39.4408 126.873 39.2615 126.716 39.1482C126.565 39.0287 126.316 38.9689 125.97 38.9689H124.479V40.4317ZM129.463 41.7246V35.0713H132.728C133.496 35.0713 134.074 35.26 134.465 35.6375C134.855 36.0087 135.05 36.5152 135.05 37.1569C135.05 37.7924 134.855 38.2989 134.465 38.6764C134.074 39.0538 133.496 39.2426 132.728 39.2426H131.209V41.7246H129.463ZM131.209 37.9025H132.502C132.797 37.9025 133.017 37.8396 133.162 37.7138C133.307 37.5816 133.379 37.396 133.379 37.1569C133.379 36.9179 133.307 36.7323 133.162 36.6001C133.017 36.468 132.797 36.402 132.502 36.402H131.209V37.9025ZM135.643 38.3932C135.643 37.7012 135.778 37.1003 136.048 36.5907C136.319 36.0748 136.706 35.6753 137.209 35.3922C137.713 35.1091 138.307 34.9675 138.993 34.9675C139.685 34.9675 140.283 35.1091 140.786 35.3922C141.289 35.6753 141.676 36.0748 141.947 36.5907C142.224 37.1003 142.362 37.7012 142.362 38.3932C142.362 39.079 142.224 39.6799 141.947 40.1958C141.676 40.7117 141.289 41.1143 140.786 41.4037C140.283 41.6869 139.685 41.8284 138.993 41.8284C138.307 41.8284 137.713 41.6869 137.209 41.4037C136.712 41.1143 136.325 40.7117 136.048 40.1958C135.778 39.6799 135.643 39.079 135.643 38.3932ZM137.464 38.3932C137.464 39.0161 137.59 39.5037 137.841 39.856C138.093 40.2021 138.477 40.3751 138.993 40.3751C139.509 40.3751 139.896 40.2021 140.154 39.856C140.412 39.5037 140.541 39.0161 140.541 38.3932C140.541 37.7704 140.412 37.2859 140.154 36.9399C139.896 36.5939 139.509 36.4208 138.993 36.4208C138.477 36.4208 138.093 36.5939 137.841 36.9399C137.59 37.2796 137.464 37.7641 137.464 38.3932ZM146.135 41.7246V35.0713H152.269V41.7246H150.551V36.468H147.862V41.7246H146.135ZM153.498 41.7246V35.0713H156.764C157.531 35.0713 158.11 35.26 158.5 35.6375C158.89 36.0087 159.085 36.5152 159.085 37.1569C159.085 37.7924 158.89 38.2989 158.5 38.6764C158.11 39.0538 157.531 39.2426 156.764 39.2426H155.244V41.7246H153.498ZM155.244 37.9025H156.537C156.833 37.9025 157.053 37.8396 157.198 37.7138C157.343 37.5816 157.415 37.396 157.415 37.1569C157.415 36.9179 157.343 36.7323 157.198 36.6001C157.053 36.468 156.833 36.402 156.537 36.402H155.244V37.9025ZM159.678 38.3932C159.678 37.7012 159.814 37.1003 160.084 36.5907C160.355 36.0748 160.742 35.6753 161.245 35.3922C161.748 35.1091 162.343 34.9675 163.028 34.9675C163.721 34.9675 164.318 35.1091 164.822 35.3922C165.325 35.6753 165.712 36.0748 165.982 36.5907C166.259 37.1003 166.398 37.7012 166.398 38.3932C166.398 39.079 166.259 39.6799 165.982 40.1958C165.712 40.7117 165.325 41.1143 164.822 41.4037C164.318 41.6869 163.721 41.8284 163.028 41.8284C162.343 41.8284 161.748 41.6869 161.245 41.4037C160.748 41.1143 160.361 40.7117 160.084 40.1958C159.814 39.6799 159.678 39.079 159.678 38.3932ZM161.5 38.3932C161.5 39.0161 161.625 39.5037 161.877 39.856C162.129 40.2021 162.513 40.3751 163.028 40.3751C163.544 40.3751 163.931 40.2021 164.189 39.856C164.447 39.5037 164.576 39.0161 164.576 38.3932C164.576 37.7704 164.447 37.2859 164.189 36.9399C163.931 36.5939 163.544 36.4208 163.028 36.4208C162.513 36.4208 162.129 36.5939 161.877 36.9399C161.625 37.2796 161.5 37.7641 161.5 38.3932ZM170.783 41.8284C170.06 41.8284 169.434 41.6869 168.905 41.4037C168.383 41.1206 167.977 40.7211 167.688 40.2052C167.405 39.6893 167.263 39.0853 167.263 38.3932C167.263 37.7012 167.405 37.1003 167.688 36.5907C167.977 36.0748 168.383 35.6753 168.905 35.3922C169.434 35.1091 170.06 34.9675 170.783 34.9675C171.243 34.9675 171.661 35.0304 172.038 35.1562C172.416 35.2758 172.734 35.4488 172.992 35.6753L172.473 37.0437C172.183 36.8361 171.916 36.6914 171.67 36.6096C171.431 36.5215 171.158 36.4775 170.849 36.4775C170.283 36.4775 169.846 36.6442 169.538 36.9776C169.236 37.3048 169.085 37.7767 169.085 38.3932C169.085 39.0161 169.236 39.4943 169.538 39.8277C169.846 40.1549 170.283 40.3184 170.849 40.3184C171.158 40.3184 171.431 40.2776 171.67 40.1958C171.916 40.1077 172.183 39.9598 172.473 39.7522L172.992 41.1206C172.734 41.3471 172.416 41.5233 172.038 41.6491C171.661 41.7687 171.243 41.8284 170.783 41.8284ZM175.33 41.7246V36.4775H173.311V35.0713H179.096V36.4775H177.076V41.7246H175.33ZM179.336 38.3932C179.336 37.7012 179.472 37.1003 179.742 36.5907C180.013 36.0748 180.4 35.6753 180.903 35.3922C181.406 35.1091 182.001 34.9675 182.686 34.9675C183.379 34.9675 183.976 35.1091 184.48 35.3922C184.983 35.6753 185.37 36.0748 185.64 36.5907C185.917 37.1003 186.056 37.7012 186.056 38.3932C186.056 39.079 185.917 39.6799 185.64 40.1958C185.37 40.7117 184.983 41.1143 184.48 41.4037C183.976 41.6869 183.379 41.8284 182.686 41.8284C182.001 41.8284 181.406 41.6869 180.903 41.4037C180.406 41.1143 180.019 40.7117 179.742 40.1958C179.472 39.6799 179.336 39.079 179.336 38.3932ZM181.158 38.3932C181.158 39.0161 181.283 39.5037 181.535 39.856C181.787 40.2021 182.171 40.3751 182.686 40.3751C183.202 40.3751 183.589 40.2021 183.847 39.856C184.105 39.5037 184.234 39.0161 184.234 38.3932C184.234 37.7704 184.105 37.2859 183.847 36.9399C183.589 36.5939 183.202 36.4208 182.686 36.4208C182.171 36.4208 181.787 36.5939 181.535 36.9399C181.283 37.2796 181.158 37.7641 181.158 38.3932Z" fill="#8BC43A"/>
</svg>
