<svg width="209" height="46" viewBox="0 0 209 46" fill="none" xmlns="http://www.w3.org/2000/svg">
<path d="M9.76396 27.7749C9.6596 27.7749 9.55525 27.7618 9.45277 27.7376C9.12667 27.6556 8.84716 27.4469 8.67573 27.1581C8.50429 26.8693 8.45212 26.5246 8.53411 26.1985C9.03164 24.4376 9.80122 22.7643 10.8131 21.2401C13.0603 17.8786 16.1238 16.0208 19.7183 15.8643H19.776C26.7899 15.8643 30.4664 22.4363 31.4298 25.9115C31.4745 26.0718 31.4875 26.2413 31.467 26.4053C31.4465 26.5711 31.3943 26.7314 31.3105 26.8767C31.2285 27.0221 31.1186 27.1506 30.9863 27.2531C30.854 27.3556 30.7049 27.432 30.5428 27.4767C30.3825 27.5215 30.213 27.5345 30.049 27.514C29.8831 27.4935 29.7229 27.4413 29.5775 27.3575C29.4322 27.2755 29.3055 27.1656 29.2011 27.0333C29.0986 26.901 29.0222 26.7519 28.9775 26.5898C28.4986 25.0805 27.7868 23.6568 26.87 22.3655C24.9786 19.7345 22.5972 18.3984 19.7872 18.3947C13.1013 18.7059 10.9975 26.7314 10.977 26.8134C10.9099 27.0854 10.7553 27.3277 10.5354 27.501C10.3155 27.6743 10.0453 27.7711 9.76396 27.773V27.7749Z" fill="#32333E"/>
<path d="M24.4316 45.9853H2.85336C2.68379 45.9853 2.51609 45.9499 2.36142 45.8847C2.2049 45.8176 2.06514 45.7226 1.94589 45.5996C1.82849 45.4785 1.73532 45.335 1.67383 45.1766C1.61234 45.0182 1.58252 44.8505 1.58625 44.681C1.71296 40.0114 3.41984 36.2008 6.65471 33.3592C11.1921 29.3678 15.9065 29.1647 16.1059 29.1591H30.6106C30.7765 29.1591 30.9423 29.1927 31.0951 29.256C31.2479 29.3194 31.3877 29.4126 31.5069 29.53C31.6243 29.6473 31.7175 29.7871 31.7808 29.9399C31.8442 30.0927 31.8777 30.2585 31.8777 30.4244C31.8777 32.707 31.4697 34.602 29.3733 36.4169C27.1391 38.4182 25.0838 38.394 24.5415 38.3399H18.2954C17.96 38.3399 17.6376 38.2058 17.3991 37.9691C17.1624 37.7325 17.0283 37.4101 17.0283 37.0728C17.0283 36.7356 17.1624 36.4151 17.3991 36.1784C17.6357 35.9418 17.9581 35.8076 18.2954 35.8076H24.6067C24.6682 35.802 24.7297 35.802 24.7912 35.8076C24.8248 35.8076 26.1105 35.9213 27.6963 34.5051C28.1342 34.1604 28.5013 33.7337 28.7714 33.2474C29.0435 32.761 29.2149 32.2244 29.2764 31.671H16.1655C13.24 32.0157 10.4952 33.2641 8.31127 35.2412C5.92798 37.3356 4.4503 40.2722 4.18942 43.4344H24.3552C24.8415 43.3803 29.6901 42.8046 33.0554 39.3294C34.9319 37.5051 36.0928 35.066 36.3238 32.4592V25.7324C36.3238 25.397 36.458 25.0747 36.6946 24.8361C36.9313 24.5976 37.2537 24.4653 37.5909 24.4653C37.9282 24.4653 38.2487 24.5995 38.4854 24.8361C38.722 25.0728 38.8562 25.3952 38.8562 25.7324V32.6921C38.5767 35.8915 37.1586 38.884 34.8611 41.1275C30.6498 45.4785 24.7484 45.9797 24.4987 46.0002L24.4334 45.9835L24.4316 45.9853Z" fill="#8BC43A"/>
<path d="M13.8151 14.2026C10.7386 14.2026 8.23047 11.0125 8.23047 7.09569C8.23047 3.1789 10.7405 0 13.8151 0C16.8897 0 19.3997 3.18635 19.3997 7.10314C19.3997 11.0199 16.8953 14.2026 13.8151 14.2026ZM13.8151 2.52486C12.1604 2.52486 10.7647 4.61555 10.7647 7.09569C10.7647 9.57582 12.1623 11.6702 13.8151 11.6702C15.4679 11.6702 16.8655 9.57396 16.8655 7.09569C16.8655 4.61741 15.4679 2.52486 13.8151 2.52486Z" fill="#32333E"/>
<path d="M5.32758 20.9017C3.16603 20.9017 1.04734 19.1949 0.283348 16.6383C-0.614813 13.6271 0.691433 10.5638 3.2238 9.81282C3.87599 9.63207 4.55986 9.60226 5.22323 9.72524C5.88847 9.84822 6.51643 10.1203 7.05868 10.5228C8.19163 11.3669 9.02271 12.5538 9.42707 13.9066C9.83143 15.2594 9.78857 16.7073 9.30595 18.034C9.07116 18.6675 8.69475 19.2396 8.20654 19.7091C7.71833 20.1768 7.12949 20.5272 6.48662 20.734C6.11021 20.8458 5.7189 20.9017 5.32572 20.9017H5.32758ZM4.39588 12.1737C4.24308 12.1737 4.09215 12.1961 3.9468 12.2389C2.7859 12.5855 2.21942 14.2812 2.72068 15.9153C3.2238 17.5495 4.61204 18.6563 5.77107 18.3098C6.04872 18.2073 6.30028 18.0452 6.50712 17.8327C6.71395 17.6203 6.87048 17.365 6.96365 17.0837C7.23384 16.288 7.24875 15.4271 7.00837 14.6222C6.76613 13.8172 6.27978 13.1072 5.61641 12.5911C5.2605 12.3339 4.83378 12.1886 4.39588 12.1737Z" fill="#32333E"/>
<path d="M26.1648 14.2026C23.1013 14.2026 20.7031 11.0814 20.7031 7.09569C20.7031 3.10995 23.1125 0 26.1648 0C29.217 0 31.6301 3.12113 31.6301 7.10314C31.6301 11.0851 29.2412 14.2026 26.1648 14.2026ZM26.1648 2.52486C24.5753 2.52486 23.2355 4.61555 23.2355 7.09569C23.2355 9.57582 24.5753 11.6702 26.1648 11.6702C27.7542 11.6702 29.0978 9.57396 29.0978 7.09569C29.0978 4.61741 27.7542 2.52486 26.1648 2.52486Z" fill="#32333E"/>
<path d="M34.5467 20.8991C34.1535 20.9009 33.7622 20.845 33.3858 20.7313C32.7429 20.5245 32.1541 20.1742 31.6658 19.7065C31.1776 19.2388 30.8012 18.6667 30.5664 18.0313C30.0652 16.7065 30.0223 15.2531 30.4434 13.9021C31.3416 10.8909 34.1199 9.05365 36.6486 9.81763C39.1772 10.5816 40.4872 13.6319 39.589 16.6431C38.812 19.1959 36.6933 20.8991 34.5448 20.8991H34.5467ZM35.4821 12.1711C34.4293 12.1711 33.3056 13.1885 32.8715 14.6214C32.6218 15.4226 32.6404 16.2835 32.9255 17.0717C33.0187 17.3531 33.1733 17.6084 33.3783 17.8208C33.5833 18.0332 33.8348 18.1953 34.1125 18.2978C35.2771 18.6444 36.6728 17.5506 37.1647 15.9034C37.6548 14.258 37.0865 12.5754 35.9386 12.227C35.7858 12.1841 35.6274 12.1636 35.469 12.1692H35.4821V12.1711Z" fill="#32333E"/>
<path d="M59.8618 25.4763C64.8828 25.4763 68.4786 22.7145 68.4668 18.8881C68.4786 16.1027 66.7103 14.1155 63.4221 13.7016V13.5242C65.9237 13.0747 67.6507 11.3064 67.6388 8.79888C67.6507 5.27415 64.5576 2.50049 59.9268 2.50049C55.2961 2.50049 51.8895 5.18543 51.8245 9.05318H56.3547C56.4079 7.34995 57.9692 6.24996 59.9032 6.24996C61.8371 6.24996 63.0909 7.40909 63.079 9.08866C63.0909 10.8451 61.5946 12.0397 59.4419 12.0397H57.3542V15.5113H59.4419C61.9731 15.5113 63.5581 16.7768 63.5463 18.5806C63.5581 20.3607 62.0263 21.5849 59.8677 21.5849C57.709 21.5849 56.2187 20.4908 56.13 18.8527H51.375C51.4519 22.7618 54.9471 25.4822 59.8618 25.4822V25.4763ZM79.4907 25.5C84.5828 25.5 87.7468 22.0166 87.7468 16.8537C87.7468 11.6908 84.5769 8.18382 79.4907 8.18382C74.4046 8.18382 71.2346 11.6553 71.2346 16.8537C71.2346 22.0521 74.4046 25.5 79.4907 25.5ZM79.5144 21.8984C77.1665 21.8984 75.9659 19.7457 75.9659 16.8183C75.9659 13.8908 77.1665 11.7263 79.5144 11.7263C81.8623 11.7263 83.0214 13.8908 83.0214 16.8183C83.0214 19.7457 81.8209 21.8984 79.5144 21.8984ZM98.3508 25.5C103.437 25.5 106.607 22.0166 106.607 16.8537C106.607 11.6908 103.437 8.18382 98.3508 8.18382C93.2647 8.18382 90.0947 11.6553 90.0947 16.8537C90.0947 22.0521 93.2647 25.5 98.3508 25.5ZM98.3745 21.8984C96.0266 21.8984 94.826 19.7457 94.826 16.8183C94.826 13.8908 96.0266 11.7263 98.3745 11.7263C100.722 11.7263 101.882 13.8908 101.882 16.8183C101.882 19.7457 100.681 21.8984 98.3745 21.8984Z" fill="#8BC43A"/>
<path d="M123.25 25.1685H129.117L119.986 13.1749L128.715 2.80176H122.83L115.402 11.7319H114.45V2.80176H109.719V25.1685H114.45V15.6351H116.065L123.25 25.1685ZM130.424 25.1685H131.82C135.38 25.1685 137.267 22.8088 137.551 17.1728L137.811 12.0512H141.951V25.1685H146.386V8.3964H133.63L133.357 15.8244C133.192 20.0706 132.541 21.484 130.956 21.484H130.4L130.424 25.1744V25.1685ZM154.441 19.0297V8.39048H150V25.1625H154.619L160.633 14.4937V25.1625H165.069V8.39048H160.48L154.441 19.0297ZM168.795 25.1685H173.449V19.219H175.188L179.328 25.1685H184.852L178.855 16.7174L184.787 8.3964H179.328L174.762 14.9077H173.449V8.3964H168.795V25.1685Z" fill="#32333E"/>
<path d="M51.9894 43.6V39.82H52.8654C53.2254 39.388 53.4894 38.796 53.6574 38.044C53.8334 37.292 53.9214 36.372 53.9214 35.284V33.04H60.4974V39.82H61.7334V43.6H59.8374V41.5H53.8854V43.6H51.9894ZM55.0494 39.82H58.3014V34.72H55.9374V35.524C55.9374 36.516 55.8614 37.368 55.7094 38.08C55.5654 38.784 55.3454 39.364 55.0494 39.82ZM62.7741 41.5V33.04H68.8461V34.732H64.8981V36.352H68.5581V38.056H64.8981V39.796H68.8461V41.5H62.7741ZM70.4486 41.728L69.3446 40.168C69.6886 39.976 69.9806 39.752 70.2206 39.496C70.4686 39.24 70.6686 38.94 70.8206 38.596C70.9726 38.244 71.0846 37.828 71.1566 37.348C71.2366 36.868 71.2766 36.308 71.2766 35.668V33.04H77.8526V41.5H75.6566V34.816H73.3046V36.208C73.3046 36.936 73.2366 37.592 73.1006 38.176C72.9726 38.76 72.7846 39.28 72.5366 39.736C72.2966 40.192 72.0006 40.584 71.6486 40.912C71.2966 41.24 70.8966 41.512 70.4486 41.728ZM78.3708 41.5L82.3308 33.04H84.1308L88.1148 41.5H85.8948L84.8748 39.172L85.7268 39.784H80.7588L81.5988 39.172L80.5908 41.5H78.3708ZM83.2188 35.32L81.8148 38.668L81.4788 38.104H84.9948L84.6948 38.668L83.2788 35.32H83.2188ZM89.5147 41.5V34.828H86.9467V33.04H94.3027V34.828H91.7347V41.5H89.5147ZM95.2351 41.5V33.04H97.4311V36.34H99.5431C100.487 36.34 101.227 36.564 101.763 37.012C102.307 37.452 102.579 38.084 102.579 38.908C102.579 39.74 102.307 40.38 101.763 40.828C101.227 41.276 100.487 41.5 99.5431 41.5H95.2351ZM97.4311 39.856H99.2431C99.6831 39.856 99.9991 39.78 100.191 39.628C100.391 39.468 100.491 39.228 100.491 38.908C100.491 38.596 100.391 38.368 100.191 38.224C99.9991 38.072 99.6831 37.996 99.2431 37.996H97.4311V39.856ZM106.505 43.6V39.82H107.381C107.741 39.388 108.005 38.796 108.173 38.044C108.349 37.292 108.437 36.372 108.437 35.284V33.04H115.013V39.82H116.249V43.6H114.353V41.5H108.401V43.6H106.505ZM109.565 39.82H112.817V34.72H110.453V35.524C110.453 36.516 110.377 37.368 110.225 38.08C110.081 38.784 109.861 39.364 109.565 39.82ZM117.062 37.264C117.062 36.384 117.234 35.62 117.578 34.972C117.922 34.316 118.414 33.808 119.054 33.448C119.694 33.088 120.45 32.908 121.322 32.908C122.202 32.908 122.962 33.088 123.602 33.448C124.242 33.808 124.734 34.316 125.078 34.972C125.43 35.62 125.606 36.384 125.606 37.264C125.606 38.136 125.43 38.9 125.078 39.556C124.734 40.212 124.242 40.724 123.602 41.092C122.962 41.452 122.202 41.632 121.322 41.632C120.45 41.632 119.694 41.452 119.054 41.092C118.422 40.724 117.93 40.212 117.578 39.556C117.234 38.9 117.062 38.136 117.062 37.264ZM119.378 37.264C119.378 38.056 119.538 38.676 119.858 39.124C120.178 39.564 120.666 39.784 121.322 39.784C121.978 39.784 122.47 39.564 122.798 39.124C123.126 38.676 123.29 38.056 123.29 37.264C123.29 36.472 123.126 35.856 122.798 35.416C122.47 34.976 121.978 34.756 121.322 34.756C120.666 34.756 120.178 34.976 119.858 35.416C119.538 35.848 119.378 36.464 119.378 37.264ZM126.934 41.5V33.04H133.39V34.72H129.046V36.34H131.242C132.186 36.34 132.926 36.564 133.462 37.012C134.006 37.452 134.278 38.084 134.278 38.908C134.278 39.74 134.006 40.38 133.462 40.828C132.926 41.276 132.186 41.5 131.242 41.5H126.934ZM129.046 39.856H130.942C131.382 39.856 131.698 39.78 131.89 39.628C132.09 39.468 132.19 39.228 132.19 38.908C132.19 38.596 132.09 38.368 131.89 38.224C131.698 38.072 131.382 37.996 130.942 37.996H129.046V39.856ZM135.384 41.5V33.04H139.536C140.512 33.04 141.248 33.28 141.744 33.76C142.24 34.232 142.488 34.876 142.488 35.692C142.488 36.5 142.24 37.144 141.744 37.624C141.248 38.104 140.512 38.344 139.536 38.344H137.604V41.5H135.384ZM137.604 36.64H139.248C139.624 36.64 139.904 36.56 140.088 36.4C140.272 36.232 140.364 35.996 140.364 35.692C140.364 35.388 140.272 35.152 140.088 34.984C139.904 34.816 139.624 34.732 139.248 34.732H137.604V36.64ZM143.241 37.264C143.241 36.384 143.413 35.62 143.757 34.972C144.101 34.316 144.593 33.808 145.233 33.448C145.873 33.088 146.629 32.908 147.501 32.908C148.381 32.908 149.141 33.088 149.781 33.448C150.421 33.808 150.913 34.316 151.257 34.972C151.609 35.62 151.785 36.384 151.785 37.264C151.785 38.136 151.609 38.9 151.257 39.556C150.913 40.212 150.421 40.724 149.781 41.092C149.141 41.452 148.381 41.632 147.501 41.632C146.629 41.632 145.873 41.452 145.233 41.092C144.601 40.724 144.109 40.212 143.757 39.556C143.413 38.9 143.241 38.136 143.241 37.264ZM145.557 37.264C145.557 38.056 145.717 38.676 146.037 39.124C146.357 39.564 146.845 39.784 147.501 39.784C148.157 39.784 148.649 39.564 148.977 39.124C149.305 38.676 149.469 38.056 149.469 37.264C149.469 36.472 149.305 35.856 148.977 35.416C148.649 34.976 148.157 34.756 147.501 34.756C146.845 34.756 146.357 34.976 146.037 35.416C145.717 35.848 145.557 36.464 145.557 37.264ZM156.583 41.5V33.04H164.383V41.5H162.199V34.816H158.779V41.5H156.583ZM165.946 41.5V33.04H170.098C171.074 33.04 171.81 33.28 172.306 33.76C172.802 34.232 173.05 34.876 173.05 35.692C173.05 36.5 172.802 37.144 172.306 37.624C171.81 38.104 171.074 38.344 170.098 38.344H168.166V41.5H165.946ZM168.166 36.64H169.81C170.186 36.64 170.466 36.56 170.65 36.4C170.834 36.232 170.926 35.996 170.926 35.692C170.926 35.388 170.834 35.152 170.65 34.984C170.466 34.816 170.186 34.732 169.81 34.732H168.166V36.64ZM173.804 37.264C173.804 36.384 173.976 35.62 174.32 34.972C174.664 34.316 175.156 33.808 175.796 33.448C176.436 33.088 177.192 32.908 178.064 32.908C178.944 32.908 179.704 33.088 180.344 33.448C180.984 33.808 181.476 34.316 181.82 34.972C182.172 35.62 182.348 36.384 182.348 37.264C182.348 38.136 182.172 38.9 181.82 39.556C181.476 40.212 180.984 40.724 180.344 41.092C179.704 41.452 178.944 41.632 178.064 41.632C177.192 41.632 176.436 41.452 175.796 41.092C175.164 40.724 174.672 40.212 174.32 39.556C173.976 38.9 173.804 38.136 173.804 37.264ZM176.12 37.264C176.12 38.056 176.28 38.676 176.6 39.124C176.92 39.564 177.408 39.784 178.064 39.784C178.72 39.784 179.212 39.564 179.54 39.124C179.868 38.676 180.032 38.056 180.032 37.264C180.032 36.472 179.868 35.856 179.54 35.416C179.212 34.976 178.72 34.756 178.064 34.756C177.408 34.756 176.92 34.976 176.6 35.416C176.28 35.848 176.12 36.464 176.12 37.264ZM187.924 41.632C187.004 41.632 186.208 41.452 185.536 41.092C184.872 40.732 184.356 40.224 183.988 39.568C183.628 38.912 183.448 38.144 183.448 37.264C183.448 36.384 183.628 35.62 183.988 34.972C184.356 34.316 184.872 33.808 185.536 33.448C186.208 33.088 187.004 32.908 187.924 32.908C188.508 32.908 189.04 32.988 189.52 33.148C190 33.3 190.404 33.52 190.732 33.808L190.072 35.548C189.704 35.284 189.364 35.1 189.052 34.996C188.748 34.884 188.4 34.828 188.008 34.828C187.288 34.828 186.732 35.04 186.34 35.464C185.956 35.88 185.764 36.48 185.764 37.264C185.764 38.056 185.956 38.664 186.34 39.088C186.732 39.504 187.288 39.712 188.008 39.712C188.4 39.712 188.748 39.66 189.052 39.556C189.364 39.444 189.704 39.256 190.072 38.992L190.732 40.732C190.404 41.02 190 41.244 189.52 41.404C189.04 41.556 188.508 41.632 187.924 41.632ZM193.706 41.5V34.828H191.138V33.04H198.494V34.828H195.926V41.5H193.706ZM198.8 37.264C198.8 36.384 198.972 35.62 199.316 34.972C199.66 34.316 200.152 33.808 200.792 33.448C201.432 33.088 202.188 32.908 203.06 32.908C203.94 32.908 204.7 33.088 205.34 33.448C205.98 33.808 206.472 34.316 206.816 34.972C207.168 35.62 207.344 36.384 207.344 37.264C207.344 38.136 207.168 38.9 206.816 39.556C206.472 40.212 205.98 40.724 205.34 41.092C204.7 41.452 203.94 41.632 203.06 41.632C202.188 41.632 201.432 41.452 200.792 41.092C200.16 40.724 199.668 40.212 199.316 39.556C198.972 38.9 198.8 38.136 198.8 37.264ZM201.116 37.264C201.116 38.056 201.276 38.676 201.596 39.124C201.916 39.564 202.404 39.784 203.06 39.784C203.716 39.784 204.208 39.564 204.536 39.124C204.864 38.676 205.028 38.056 205.028 37.264C205.028 36.472 204.864 35.856 204.536 35.416C204.208 34.976 203.716 34.756 203.06 34.756C202.404 34.756 201.916 34.976 201.596 35.416C201.276 35.848 201.116 36.464 201.116 37.264Z" fill="#8BC43A"/>
</svg>
