<svg width="24" height="25" viewBox="0 0 24 25" fill="none" xmlns="http://www.w3.org/2000/svg">
<path d="M22.6426 17.9031V21.1135C22.6438 21.4115 22.5827 21.7065 22.463 21.9796C22.3434 22.2527 22.1679 22.4978 21.9479 22.6993C21.7278 22.9007 21.468 23.0541 21.1852 23.1496C20.9023 23.2451 20.6025 23.2806 20.3051 23.2537C17.0056 22.8959 13.8361 21.7707 11.0515 19.9684C8.46072 18.3254 6.26421 16.1332 4.61793 13.5476C2.80578 10.7558 1.67805 7.57731 1.32609 4.26952C1.29929 3.9736 1.33453 3.67534 1.42956 3.39375C1.52459 3.11216 1.67733 2.8534 1.87805 2.63395C2.07877 2.4145 2.32308 2.23916 2.59542 2.11911C2.86776 1.99905 3.16216 1.93691 3.45988 1.93663H6.67667C7.19704 1.93152 7.70152 2.11542 8.09608 2.45407C8.49064 2.79272 8.74836 3.263 8.82119 3.77726C8.95696 4.80466 9.20876 5.81344 9.57177 6.78434C9.71604 7.16737 9.74726 7.58364 9.66174 7.98384C9.57622 8.38403 9.37754 8.75137 9.08925 9.04233L7.72748 10.4014C9.2539 13.0805 11.4766 15.2988 14.161 16.8222L15.5228 15.4631C15.8144 15.1754 16.1824 14.9771 16.5834 14.8918C16.9844 14.8064 17.4015 14.8376 17.7853 14.9816C18.7581 15.3439 19.7689 15.5952 20.7983 15.7307C21.3192 15.804 21.7949 16.0659 22.1349 16.4664C22.475 16.8669 22.6557 17.3782 22.6426 17.9031Z" stroke="#8BC53F" stroke-width="2" stroke-linecap="round" stroke-linejoin="round"/>
</svg>
