<svg width="58" height="58" viewBox="0 0 58 58" fill="none" xmlns="http://www.w3.org/2000/svg">
<circle cx="28.7701" cy="29.2169" r="28.7701" fill="#CBE5A9"/>
<path fill-rule="evenodd" clip-rule="evenodd" d="M12.0488 38.375C12.2489 38.0586 12.3989 37.6908 12.6599 37.437C13.13 36.9803 13.7373 36.9253 14.3337 37.1532C14.9504 37.3888 15.3253 37.8707 15.3743 38.5335C15.4192 39.1403 15.3793 39.7528 15.4061 40.3616C15.4119 40.4928 15.513 40.6615 15.6226 40.7384C15.9386 40.9598 16.2813 41.1431 16.6325 41.3528C16.557 40.7306 16.4695 40.1525 16.4191 39.5708C16.2112 37.1679 16.7225 34.9206 17.9583 32.8526C19.3669 30.4952 21.4296 28.9012 23.9426 27.8644C24.2292 27.7462 24.3246 27.6104 24.3219 27.3019C24.3061 25.527 24.3145 23.7519 24.314 21.977C24.3139 21.5221 24.2271 21.469 23.7921 21.4272C23.1067 21.3613 22.5119 21.5173 21.9875 21.972C21.7918 22.1417 21.5573 22.2671 21.339 22.4101C21.0551 22.5964 20.7852 22.5807 20.5408 22.3391C20.1923 21.9946 19.842 21.6517 19.5027 21.2982C19.2419 21.0265 19.2215 20.791 19.4438 20.4768C20.3366 19.2156 21.2286 17.9538 22.1457 16.7104C22.2617 16.553 22.5198 16.4275 22.7188 16.4174C23.4139 16.382 24.112 16.408 24.8089 16.4013C25.1081 16.3985 25.2983 16.5394 25.4255 16.7972C25.69 17.3333 25.9647 17.8645 26.2214 18.4043C26.3024 18.5747 26.4012 18.6396 26.594 18.6388C28.4234 18.6314 30.2528 18.6312 32.0822 18.6391C32.2781 18.6399 32.3709 18.5677 32.4509 18.3997C32.7032 17.8699 32.9767 17.3502 33.232 16.8218C33.3699 16.5365 33.5749 16.3926 33.8996 16.4C34.3894 16.4111 34.8797 16.4082 35.3696 16.4008C35.6444 16.3967 35.8428 16.4977 35.9969 16.7314C36.6972 17.7942 37.4044 18.8526 38.114 19.9094C38.2932 20.1762 38.299 20.4282 38.1176 20.6953C37.7816 21.1903 37.4572 21.6933 37.1202 22.1877C36.8494 22.5853 36.5805 22.6405 36.178 22.3817C35.7663 22.1169 35.3623 21.8402 34.9537 21.5704C34.5871 21.3283 34.1031 21.4047 33.77 21.6741C33.3415 22.0207 33.2183 22.4294 33.2276 22.9743C33.2604 24.912 33.2404 26.8507 33.2404 28.7891C33.2404 28.9187 33.2404 29.0486 33.2404 29.2854C33.4347 29.1981 33.6018 29.1669 33.7061 29.0687C34.1341 28.6657 34.5398 28.2394 34.9594 27.8275C35.3769 27.4176 35.7336 27.4652 36.0401 27.9713C36.5413 28.7993 37.0496 29.6233 37.5277 30.4645C37.6612 30.6993 37.6992 30.9884 37.788 31.2757C38.0254 31.1794 38.2936 31.0705 38.5986 30.9468C38.7445 31.2827 38.8851 31.6067 39.0428 31.9694C38.6703 32.1295 38.2996 32.2767 37.9416 32.4505C37.8456 32.4971 37.721 32.6275 37.725 32.714C37.76 33.4668 37.6857 34.1905 37.2095 34.8664C37.8286 35.048 38.3936 35.2137 38.9712 35.3831C38.8687 35.7437 38.7745 36.0749 38.6676 36.4515C38.2629 36.3401 37.8578 36.2644 37.481 36.1168C36.8584 35.8729 36.3071 35.8126 35.7867 36.361C35.5893 36.5692 35.2622 36.6541 34.9849 36.8C35.0455 37.0406 35.2377 37.019 35.4201 37.019C37.1733 37.0187 38.9267 37.0045 40.6797 37.0237C41.9553 37.0376 43.0404 37.5573 43.9677 38.408C44.7888 39.1612 45.2845 40.0978 45.4518 41.204C45.4577 41.2433 45.4895 41.2787 45.5092 41.3159C45.5092 41.708 45.5092 42.1002 45.5092 42.4923C45.489 42.5537 45.4664 42.6144 45.4488 42.6765C45.2902 43.2377 45.1591 43.809 44.9599 44.3555C44.8875 44.554 44.6806 44.7435 44.4872 44.8508C43.8891 45.1821 43.2745 45.486 42.6525 45.7705C42.4239 45.8751 42.157 45.947 41.9073 45.9472C33.698 45.9562 25.4886 45.9563 17.2794 45.9462C17.0454 45.9459 16.7825 45.8684 16.5822 45.7463C15.236 44.9256 13.9013 44.086 12.568 43.2442C12.3803 43.1257 12.2213 42.9619 12.0491 42.819C12.0488 41.3377 12.0488 39.8564 12.0488 38.375ZM32.1164 29.2267C32.1164 27.0851 32.1091 24.9945 32.1189 22.904C32.1253 21.5233 31.9748 21.9507 32.9259 20.9179C33.3629 20.4435 33.8266 20.2314 34.4702 20.2772C34.8753 20.3059 35.2353 20.362 35.5634 20.6151C35.8284 20.8195 36.1198 20.9896 36.4279 21.1937C36.6322 20.8871 36.8277 20.5937 37.0211 20.3032C36.5349 19.5738 36.0246 18.8903 35.6072 18.1543C35.3153 17.6397 34.9637 17.4309 34.3854 17.5132C34.195 17.5404 34.0996 17.597 34.0208 17.76C33.7655 18.2885 33.492 18.8082 33.2378 19.3373C33.0991 19.6262 32.8911 19.753 32.5678 19.7519C30.4115 19.7454 28.2551 19.7454 26.0988 19.7518C25.7744 19.7529 25.5689 19.6216 25.4312 19.3333C25.211 18.8724 24.9517 18.4291 24.7523 17.96C24.6105 17.6266 24.43 17.4708 24.0499 17.5159C23.6847 17.5593 23.253 17.4211 22.9582 17.5724C22.6642 17.7233 22.501 18.1325 22.2858 18.4322C21.7223 19.2169 21.1618 20.0038 20.6143 20.7699C20.7788 20.9345 20.9211 21.0771 21.0738 21.2301C21.4475 20.9822 21.8206 20.7179 22.2117 20.4833C22.373 20.3866 22.5701 20.3099 22.7549 20.3001C23.2326 20.2747 23.713 20.2823 24.1919 20.294C24.7353 20.3074 25.4387 21.023 25.4395 21.5593C25.4424 23.7047 25.4385 25.8502 25.4429 27.9957C25.4436 28.349 25.2741 28.5401 24.9602 28.687C24.0571 29.1092 23.1237 29.4901 22.2817 30.0146C20.2886 31.2562 18.8672 33.006 18.0802 35.225C17.2504 37.565 17.327 39.921 18.1086 42.2635C18.2048 42.5518 18.2413 42.8279 17.9781 43.0382C17.7182 43.246 17.4522 43.1656 17.1916 43.0076C16.3544 42.5005 15.5169 41.9937 14.6731 41.4977C14.3895 41.331 14.2631 41.1105 14.2703 40.7784C14.2849 40.1036 14.2799 39.428 14.2721 38.753C14.2678 38.3711 14.0325 38.1481 13.6824 38.1674C13.362 38.1852 13.1653 38.4415 13.1636 38.8702C13.1594 39.9156 13.1687 40.9611 13.1567 42.0065C13.1543 42.2196 13.2214 42.3371 13.4019 42.4479C14.5974 43.1824 15.782 43.9347 16.9793 44.6661C17.1441 44.7667 17.3594 44.8326 17.5515 44.8332C20.7968 44.8432 24.0422 44.8404 27.2875 44.8404C27.4032 44.8404 27.5189 44.8404 27.6369 44.8404C27.5893 44.1686 27.1671 43.7474 26.549 43.7325C26.1572 43.723 25.7649 43.7301 25.3728 43.73C24.3987 43.7299 24.3329 43.6665 24.3138 42.7076C24.2665 40.3494 22.6 38.7138 20.2347 38.704C20.1102 38.7035 19.9857 38.704 19.863 38.704C19.863 38.3046 19.863 37.9612 19.863 37.6092C21.0708 37.5113 22.1788 37.7497 23.1704 38.4188C24.6428 39.4125 25.3694 40.8332 25.4561 42.5982C26.2297 42.6461 26.997 42.492 27.6829 42.9214C28.3841 43.3603 28.7281 44.0004 28.791 44.8217C29.155 44.8217 29.508 44.8217 29.8695 44.8217C29.8695 43.7099 29.8695 42.6173 29.8695 41.5026C29.7292 41.5026 29.611 41.5029 29.4927 41.5025C28.6214 41.4999 27.7501 41.502 26.879 41.4878C26.7774 41.4861 26.5954 41.4019 26.5902 41.3434C26.5616 41.0236 26.5766 40.6998 26.5766 40.3427C27.7116 40.3427 28.7925 40.3427 29.8721 40.3427C29.8721 39.189 29.8721 38.0721 29.8721 37.0105C29.4374 36.8251 28.9847 36.7257 28.6541 36.4689C28.1744 36.0964 27.763 36.153 27.2655 36.3822C26.7395 36.6244 26.1804 36.7946 25.6223 37.0014C25.4859 36.6328 25.3632 36.3011 25.2339 35.9513C25.9088 35.6957 26.5529 35.4519 27.2355 35.1934C26.6777 34.4467 26.4581 33.6401 26.5365 32.7462C26.5446 32.654 26.4153 32.506 26.3141 32.4559C25.9587 32.2797 25.5877 32.135 25.2068 31.9716C25.3662 31.6022 25.5066 31.2768 25.6485 30.9479C25.9616 31.0735 26.2403 31.1855 26.482 31.2825C26.5586 30.9976 26.5787 30.7133 26.7054 30.4891C27.1869 29.6373 27.6997 28.8029 28.207 27.9659C28.5108 27.4646 28.8776 27.4195 29.2937 27.8285C29.7132 28.2407 30.1232 28.6624 30.5442 29.0727C30.6158 29.1427 30.7213 29.2163 30.8135 29.2198C31.2354 29.2355 31.6579 29.2267 32.1164 29.2267ZM28.9036 29.001C28.4935 29.6815 28.0919 30.2916 27.7563 30.9363C27.6421 31.1556 27.6512 31.468 27.6911 31.7244C27.7075 31.8296 27.9474 31.914 28.0975 31.9817C28.5786 32.1987 29.0654 32.4034 29.562 32.6182C29.4047 32.9772 29.2634 33.2998 29.1141 33.6407C28.6221 33.4341 28.1651 33.2422 27.6869 33.0413C27.5755 33.7676 27.9534 34.2672 28.3243 34.7846C28.7903 34.6136 29.2342 34.4507 29.7008 34.2795C29.8361 34.6385 29.9608 34.9695 30.0909 35.3151C29.8641 35.4106 29.6569 35.4977 29.4496 35.5848C29.7456 35.7317 30.034 35.8234 30.3289 35.8844C30.904 36.0035 31.0069 36.1188 31.007 36.7177C31.0076 39.2874 31.0073 41.8571 31.0073 44.4269C31.0073 44.554 31.0073 44.681 31.0073 44.8239C31.5763 44.8239 32.1049 44.8239 32.6826 44.8239C32.6826 43.5261 32.6826 42.2389 32.6826 40.9544C33.0841 40.9544 33.436 40.9544 33.8199 40.9544C33.8199 42.2594 33.8199 43.5385 33.8199 44.8193C34.4879 44.8193 35.1228 44.8193 35.7815 44.8193C35.7497 44.7013 35.7375 44.6029 35.6976 44.5174C35.3252 43.7188 35.4834 42.8706 35.4649 42.0396C35.4629 41.9478 35.5019 41.842 35.5538 41.7642C35.8736 41.2851 36.1722 40.7873 36.5358 40.3434C37.0052 39.7703 37.8699 39.6602 38.498 40.0347C39.1514 40.4242 39.4467 41.2151 39.1978 41.9252C39.1274 42.1261 39.039 42.3206 38.9264 42.5979C39.8508 42.5979 40.7203 42.5979 41.5814 42.5979C41.5814 43.0117 41.5814 43.3557 41.5814 43.723C40.6272 43.723 39.6933 43.7299 38.7599 43.7144C38.635 43.7124 38.496 43.6156 38.3916 43.5287C38.2165 43.3829 38.0634 43.2108 37.9025 43.0484C37.6854 42.8292 37.6433 42.581 37.7821 42.3036C37.8891 42.0897 38.0032 41.8788 38.0998 41.6603C38.2187 41.3913 38.1446 41.1151 37.9207 41.0068C37.6681 40.8847 37.4473 40.9629 37.2909 41.1806C37.0689 41.4896 36.8617 41.8095 36.656 42.1298C36.6176 42.1897 36.6026 42.2726 36.5997 42.3459C36.5689 43.1089 36.5798 43.8635 36.8969 44.5854C36.981 44.7771 37.0636 44.8473 37.271 44.845C38.2291 44.8345 39.1921 44.7807 40.1444 44.8549C41.4388 44.9557 42.6184 44.7083 43.7018 43.9971C43.7199 43.9851 43.7452 43.9815 43.7592 43.9666C43.8579 43.8607 43.994 43.7691 44.0452 43.6433C44.3236 42.9582 44.4189 42.2491 44.349 41.505C44.1834 39.7405 42.4825 38.1634 40.7076 38.1626C38.8674 38.1618 37.0272 38.1577 35.187 38.1667C34.8359 38.1684 34.5582 38.0666 34.3208 37.8038C34.0656 37.5215 33.7854 37.2614 33.5152 36.9928C33.3234 36.802 33.1608 36.6017 33.2667 36.304C33.3745 36.001 33.6268 35.9462 33.907 35.8852C34.3091 35.7973 34.6993 35.655 35.0944 35.5361C35.0856 35.5084 35.0768 35.4806 35.068 35.4529C34.9719 35.4098 34.8757 35.3667 34.7609 35.3153C34.8636 34.9589 34.9618 34.6178 35.0646 34.2612C35.3633 34.3472 35.6307 34.4335 35.9035 34.4964C35.9815 34.5144 36.12 34.494 36.1541 34.4414C36.4191 34.033 36.6771 33.6156 36.5296 33.0565C36.0591 33.2533 35.604 33.4435 35.1256 33.6436C34.975 33.2914 34.8363 32.9667 34.6864 32.6163C35.2555 32.3713 35.7933 32.144 36.3265 31.9066C36.4158 31.8668 36.5471 31.7902 36.5539 31.7204C36.5768 31.4846 36.6316 31.2025 36.5316 31.0133C36.175 30.3383 35.76 29.6944 35.3472 29.0057C34.9847 29.3762 34.6525 29.706 34.3319 30.0465C34.1412 30.249 33.9277 30.3464 33.6417 30.3431C32.6291 30.3311 31.6163 30.3307 30.6037 30.3434C30.3172 30.3468 30.1033 30.2486 29.9135 30.0468C29.594 29.707 29.2654 29.3747 28.9036 29.001Z" fill="#009247"/>
<path fill-rule="evenodd" clip-rule="evenodd" d="M45.5094 23.7363C45.3918 24.3977 45.3063 25.0669 45.1509 25.7194C44.7057 27.5887 43.8863 29.2995 42.8607 30.9144C42.0246 32.2309 41.0681 33.4558 39.9767 34.6189C39.7066 34.3739 39.444 34.1358 39.1624 33.8806C39.5883 33.3754 40.017 32.8877 40.4229 32.3818C41.9595 30.4662 43.2023 28.3882 43.9176 26.0198C44.9422 22.6274 44.2839 19.603 41.9518 16.9372C40.769 15.585 39.3765 14.5498 37.648 13.9886C35.5925 13.3214 33.6794 13.6098 31.9665 14.8999C31.0318 15.6038 30.1934 16.4369 29.3248 17.2262C28.8819 17.6287 28.6228 17.629 28.183 17.2241C27.3195 16.4291 26.4848 15.5931 25.5565 14.8808C24.4475 14.0298 23.1679 13.5368 21.7322 13.6327C19.973 13.7501 18.42 14.4124 17.0615 15.5191C15.4058 16.8679 14.1662 18.5244 13.5153 20.5756C12.9964 22.2103 13.0944 23.862 13.508 25.5027C14.1 27.8513 15.2706 29.9102 16.7121 31.8303C16.8034 31.9519 16.8944 32.074 17.0042 32.2207C16.8613 32.3381 16.7221 32.4545 16.5807 32.568C16.4382 32.6825 16.2934 32.7942 16.0956 32.9495C15.5269 32.1038 14.948 31.3015 14.4308 30.4612C13.4274 28.831 12.6745 27.091 12.2895 25.2063C12.1945 24.7412 12.1286 24.27 12.0493 23.8017C12.0493 23.2135 12.0493 22.6254 12.0493 22.0372C12.0717 21.9548 12.0962 21.8727 12.1163 21.7897C12.2868 21.086 12.3909 20.3579 12.6392 19.6828C13.2884 17.9179 14.3839 16.4387 15.757 15.1674C17.1217 13.9041 18.6948 13.0212 20.5349 12.6561C20.8418 12.5953 21.1516 12.5489 21.46 12.4958C21.8739 12.4958 22.2877 12.4958 22.7017 12.4958C23.3552 12.6842 24.0314 12.8172 24.6577 13.0725C26.0944 13.658 27.2374 14.6699 28.32 15.7523C28.4632 15.8953 28.596 16.0485 28.7869 16.2547C29.1624 15.8558 29.4772 15.4776 29.8364 15.1478C30.8925 14.1781 32.0311 13.3235 33.4159 12.8756C33.9273 12.7103 34.4631 12.6202 34.9878 12.4959C35.3363 12.4959 35.6848 12.4959 36.0334 12.4959C36.1145 12.5184 36.1945 12.5461 36.2768 12.5625C36.7873 12.6644 37.3084 12.7283 37.8073 12.8704C39.5902 13.3781 41.0781 14.3789 42.3414 15.7128C43.8166 17.2706 44.932 19.0366 45.3484 21.1812C45.4078 21.4873 45.456 21.7954 45.5094 22.1026C45.5093 22.6471 45.5094 23.1916 45.5094 23.7363Z" fill="#009247"/>
<path fill-rule="evenodd" clip-rule="evenodd" d="M29.873 25.3097C29.1285 25.3097 28.4158 25.3097 27.6836 25.3097C27.6836 24.9421 27.6836 24.5903 27.6836 24.2188C28.4133 24.2188 29.1334 24.2188 29.873 24.2188C29.873 24.5801 29.873 24.9316 29.873 25.3097Z" fill="#009247"/>
<path fill-rule="evenodd" clip-rule="evenodd" d="M27.6512 21.9916C27.6512 22.3559 27.6512 22.6995 27.6512 23.0675C27.2932 23.0675 26.9419 23.0675 26.5693 23.0675C26.5693 22.712 26.5693 22.3606 26.5693 21.9916C26.9255 21.9916 27.2695 21.9916 27.6512 21.9916Z" fill="#009247"/>
<path fill-rule="evenodd" clip-rule="evenodd" d="M29.9048 23.0632C29.9048 22.7052 29.9048 22.3615 29.9048 21.996C30.2657 21.996 30.6171 21.996 30.9881 21.996C30.9881 22.347 30.9881 22.6908 30.9881 23.0632C30.6439 23.0632 30.2921 23.0632 29.9048 23.0632Z" fill="#009247"/>
<path fill-rule="evenodd" clip-rule="evenodd" d="M30.9917 31.4761C30.9917 31.8443 30.9917 32.1889 30.9917 32.553C30.6329 32.553 30.2891 32.553 29.9185 32.553C29.9185 32.2059 29.9185 31.8535 29.9185 31.4761C30.2604 31.4761 30.612 31.4761 30.9917 31.4761Z" fill="#009247"/>
<path fill-rule="evenodd" clip-rule="evenodd" d="M33.2466 31.4696C33.6178 31.4696 33.9688 31.4696 34.3389 31.4696C34.3389 31.8299 34.3389 32.1724 34.3389 32.5442C33.9819 32.5442 33.6234 32.5442 33.2466 32.5442C33.2466 32.1932 33.2466 31.8506 33.2466 31.4696Z" fill="#009247"/>
<path fill-rule="evenodd" clip-rule="evenodd" d="M32.6747 33.1584C32.6747 33.5116 32.6747 33.8543 32.6747 34.2254C32.3174 34.2254 31.9586 34.2254 31.5796 34.2254C31.5796 33.8735 31.5796 33.5305 31.5796 33.1584C31.9381 33.1584 32.2971 33.1584 32.6747 33.1584Z" fill="#009247"/>
</svg>
