<svg width="58" height="58" viewBox="0 0 58 58" fill="none" xmlns="http://www.w3.org/2000/svg">
<circle cx="28.7701" cy="28.7701" r="28.7701" fill="#CBE5A9"/>
<path fill-rule="evenodd" clip-rule="evenodd" d="M13.6006 42.7358C14.4641 40.9401 15.3288 39.1448 16.1907 37.3484C16.7412 36.2012 17.2819 35.0493 17.8409 33.9062C17.9428 33.6978 17.9552 33.529 17.8635 33.3144C17.6553 32.8269 17.4186 32.3407 17.2972 31.8293C16.9766 30.4777 17.7102 29.1689 19.0421 28.6879C20.5864 28.1302 22.1505 27.6263 23.6898 27.0554C24.4098 26.7883 25.1275 26.6755 25.891 26.6941C27.1054 26.7236 28.321 26.7051 29.5362 26.7013C31.6762 26.6946 33.3227 27.5956 34.4765 29.3921C35.0641 30.3069 35.8704 30.9058 36.936 31.1304C37.2378 31.1941 37.5528 31.2174 37.862 31.2192C39.3884 31.2278 40.9148 31.2212 42.4413 31.2241C43.0081 31.2252 43.4309 31.6167 43.3669 32.1711C43.2177 33.4644 43.1207 34.7765 42.8176 36.0366C42.2152 38.5413 39.9092 40.2582 37.3294 40.2624C35.3812 40.2657 33.433 40.2626 31.4849 40.2634C30.6823 40.2637 30.2816 40.5709 30.0848 41.3445C29.9467 41.8879 29.8053 42.4311 29.6897 42.9795C29.597 43.4189 29.403 43.7639 28.9717 43.9414C28.811 43.9414 28.6502 43.9414 28.4895 43.9414C27.924 43.6249 27.7344 43.2928 27.8543 42.7921C28.0174 42.1103 28.183 41.4289 28.3632 40.7515C28.7404 39.3329 29.8783 38.4584 31.3364 38.4573C33.2853 38.4558 35.2342 38.4562 37.1831 38.4573C37.8456 38.4576 38.4798 38.3321 39.0716 38.0291C39.6868 37.7141 40.1904 37.274 40.5991 36.6462C40.4454 36.6462 40.348 36.6462 40.2506 36.6462C39.1957 36.6462 38.1409 36.6471 37.086 36.6459C36.478 36.6453 36.0797 36.2782 36.086 35.7282C36.0921 35.1962 36.4902 34.8408 37.0851 34.8404C38.3508 34.8393 39.6167 34.84 40.8824 34.84C40.9893 34.84 41.096 34.84 41.2162 34.84C41.2937 34.2225 41.3668 33.6392 41.4433 33.0294C40.2353 33.0294 39.0513 33.0311 37.8673 33.0281C37.6065 33.0274 37.343 33.0318 37.0856 32.9977C35.2732 32.7576 33.8785 31.8622 32.9084 30.3094C32.4573 29.5875 31.8349 29.0693 31.0415 28.7606C30.1154 28.4004 29.1531 28.5245 28.1871 28.5162C28.1871 28.677 28.1871 28.7972 28.1871 28.9174C28.1871 31.409 28.1918 33.9005 28.1852 36.392C28.1816 37.734 27.5473 38.6867 26.3326 39.236C25.484 39.6198 24.6216 39.9746 23.7581 40.3246C22.2798 40.9237 20.7802 40.3015 20.1462 38.8355C19.9673 38.4218 19.8015 38.0023 19.6284 37.586C19.3999 37.0367 19.1702 36.4881 18.9198 35.8883C18.8478 36.0261 18.8 36.1112 18.7579 36.199C18.4416 36.8588 18.1267 37.5192 17.811 38.1793C17.0018 39.8703 16.1933 41.5617 15.3823 43.2519C15.1499 43.7364 14.7757 43.9555 14.3316 43.8704C13.9601 43.7992 13.7571 43.5334 13.6008 43.2181C13.6006 43.0573 13.6006 42.8965 13.6006 42.7358ZM26.3807 28.4832C25.871 28.5112 25.3636 28.4398 24.9244 28.5807C23.1702 29.1437 21.4365 29.7701 19.6971 30.3786C19.1289 30.5774 18.902 31.0711 19.1321 31.6304C20.0238 33.7991 20.9211 35.9654 21.8226 38.1299C22.0485 38.6721 22.5361 38.8651 23.084 38.6385C23.9081 38.2977 24.7278 37.9463 25.5501 37.601C26.1134 37.3645 26.3822 36.9397 26.3814 36.3317C26.3792 34.5836 26.3807 32.8355 26.3807 31.0875C26.3807 30.2439 26.3807 29.4004 26.3807 28.4832Z" fill="#009247"/>
<path fill-rule="evenodd" clip-rule="evenodd" d="M44.4628 25.1336C44.2349 25.6501 43.8354 25.8184 43.2815 25.804C42.1776 25.7755 41.0724 25.7966 39.9677 25.7951C39.3403 25.7943 38.9812 25.4338 38.9787 24.8067C38.9778 24.547 38.9786 24.2872 38.9786 23.9872C38.8442 23.9872 38.7278 23.9872 38.6116 23.9872C35.4885 23.9872 32.3648 23.956 29.2422 24.0014C27.8552 24.0216 26.6623 23.2468 26.293 21.8114C26.1144 21.9032 25.9396 21.9901 25.7674 22.0822C24.3356 22.8482 22.9074 23.6209 21.4719 24.3798C20.4293 24.9311 19.3957 24.8954 18.4386 24.199C16.7538 22.9731 16.9374 20.5003 18.7809 19.4812C19.9652 18.8266 21.1642 18.1984 22.3569 17.5588C23.8502 16.758 25.3394 15.9496 26.8414 15.1655C27.087 15.0373 27.3889 14.9572 27.6651 14.9562C31.3005 14.9426 34.9359 14.9471 38.5711 14.9471C38.6911 14.9471 38.8111 14.9471 38.9786 14.9471C38.9786 14.7002 38.9968 14.4625 38.9749 14.2286C38.9234 13.6808 39.1412 13.3007 39.6405 13.0773C41.0269 13.0773 42.4133 13.0773 43.7997 13.0773C44.1066 13.2125 44.3241 13.4371 44.4628 13.7404C44.4628 17.5382 44.4628 21.3359 44.4628 25.1336ZM38.9674 16.7534C38.8762 16.7534 38.817 16.7534 38.7578 16.7534C35.1417 16.7534 31.5255 16.752 27.9093 16.7584C27.768 16.7587 27.6139 16.8094 27.4873 16.8769C25.2227 18.0847 22.9612 19.2987 20.6994 20.5117C20.3284 20.7107 19.9514 20.8999 19.5896 21.1145C19.2395 21.3221 19.0789 21.6471 19.122 22.0545C19.1652 22.4626 19.3919 22.7437 19.7782 22.8737C20.0898 22.9786 20.3836 22.905 20.6727 22.7495C22.6064 21.7088 24.5456 20.6784 26.479 19.637C26.7946 19.4669 27.0962 19.2682 27.3931 19.0663C27.8624 18.7473 28.3705 18.5638 28.9415 18.564C30.7396 18.5647 32.5376 18.5631 34.3357 18.5647C34.9014 18.5652 35.2953 18.934 35.299 19.4577C35.3028 19.9963 34.9073 20.3686 34.3238 20.3697C33.3093 20.3714 32.2948 20.3701 31.2802 20.3702C30.5168 20.3703 29.7533 20.3637 28.99 20.3735C28.5475 20.3791 28.2251 20.6416 28.1076 21.0563C28.0056 21.4163 28.1445 21.8315 28.4874 22.0155C28.6804 22.119 28.9235 22.1735 29.1443 22.1742C32.3184 22.184 35.4927 22.1811 38.6668 22.1803C38.7639 22.1803 38.8607 22.1715 38.9674 22.1663C38.9674 20.3594 38.9674 18.5751 38.9674 16.7534ZM40.8061 14.8982C40.8061 17.9396 40.8061 20.9563 40.8061 23.9649C41.4339 23.9649 42.04 23.9649 42.6394 23.9649C42.6394 20.9308 42.6394 17.9213 42.6394 14.8982C42.0247 14.8982 41.4259 14.8982 40.8061 14.8982Z" fill="#009247"/>
<path fill-rule="evenodd" clip-rule="evenodd" d="M32.3456 32.1195C32.3481 32.6314 31.9459 33.0327 31.4343 33.029C30.9379 33.0254 30.5426 32.6289 30.5401 32.132C30.5373 31.6207 30.9397 31.2197 31.4519 31.2234C31.9503 31.2269 32.3432 31.6209 32.3456 32.1195Z" fill="#009247"/>
</svg>
