<svg width="58" height="58" viewBox="0 0 58 58" fill="none" xmlns="http://www.w3.org/2000/svg">
<circle cx="28.7701" cy="28.7701" r="28.7701" fill="#CBE5A9"/>
<path fill-rule="evenodd" clip-rule="evenodd" d="M38.3471 45.6709C30.3851 45.6709 22.4229 45.6709 14.461 45.6709C14.2518 45.5096 14.1234 45.3251 14.1235 45.0333C14.1299 35.4954 14.1286 25.9574 14.1294 16.4195C14.1296 15.9618 14.3157 15.782 14.7802 15.7801C15.2655 15.7781 15.7508 15.7797 16.2638 15.7797C16.2638 15.3893 16.2638 15.0361 16.2638 14.6827C16.2638 13.6868 16.3054 13.6445 17.2837 13.6445C17.6469 13.6445 18.0099 13.6445 18.3988 13.6445C18.3988 13.1525 18.4143 12.6984 18.3935 12.2459C18.379 11.9299 18.4641 11.6836 18.7311 11.5081C26.693 11.5081 34.6551 11.5081 42.6171 11.5081C42.8474 11.6717 42.9568 11.8766 42.9566 12.1771C42.9499 21.7104 42.9512 31.2438 42.9505 40.7772C42.9504 41.2282 42.7785 41.3978 42.3295 41.399C41.8335 41.4005 41.3375 41.3994 40.8557 41.3994C40.8347 41.4601 40.8218 41.4801 40.8217 41.5002C40.819 41.9335 40.8174 42.3668 40.8162 42.8C40.8146 43.3799 40.6638 43.5339 40.0943 43.5344C39.6318 43.5348 39.169 43.5345 38.681 43.5345C38.681 44.0284 38.6661 44.4824 38.6861 44.9349C38.7002 45.2502 38.6176 45.4979 38.3471 45.6709ZM24.8157 26.912C24.6989 26.9383 24.6353 26.9558 24.5706 26.9669C23.6488 27.1257 22.7053 26.4751 22.6846 25.5785C22.6557 24.3248 22.6275 23.0603 22.754 21.8161C23.0011 19.3852 25.1907 17.1875 27.6155 16.9339C28.8114 16.8088 30.0277 16.8755 31.2347 16.8627C31.4887 16.86 31.748 16.9294 31.9959 16.8971C35.5826 16.4308 38.6776 19.1429 38.6794 22.7645C38.6799 23.6318 38.6812 24.499 38.6791 25.3664C38.6772 26.1505 38.1815 26.7946 37.418 26.948C37.1458 27.0028 36.8533 26.9568 36.5383 26.9568C36.6078 27.8301 36.4716 28.6704 35.943 29.4054C37.3341 31.0314 37.7617 32.9243 37.595 34.9688C39.0646 34.9688 40.4693 34.9688 41.8668 34.9688C41.8668 27.4957 41.8668 20.0498 41.8668 12.5959C34.3957 12.5959 26.9426 12.5959 19.4899 12.5959C19.4899 20.071 19.4899 27.5245 19.4899 34.9795C20.9109 34.9795 22.3075 34.9795 23.758 34.9795C23.5847 32.9052 24.0214 31.0149 25.4087 29.4001C24.8687 28.6646 24.7446 27.8315 24.8157 26.912ZM19.481 40.3103C26.9616 40.3103 34.4141 40.3103 41.8575 40.3103C41.8575 38.8816 41.8575 37.477 41.8575 36.0795C34.3856 36.0795 26.941 36.0795 19.481 36.0795C19.481 37.4939 19.481 38.8905 19.481 40.3103ZM31.2766 27.9607C31.5079 29.0842 32.5917 29.8206 33.6883 29.6149C34.7544 29.4148 35.4683 28.5809 35.476 27.4857C35.487 25.8744 35.4818 24.263 35.4744 22.6516C35.4731 22.3866 35.4454 22.1176 35.3953 21.857C34.9299 19.4362 32.8361 17.8007 30.4243 17.926C27.9293 18.0555 25.9625 20.0383 25.8837 22.5184C25.83 24.2059 25.8517 25.8967 25.8791 27.5854C25.8973 28.7017 26.7781 29.5717 27.8891 29.6525C28.9032 29.7262 29.8533 28.9966 30.0712 27.9626C29.9831 27.9093 29.8868 27.8577 29.7976 27.796C29.3501 27.4863 29.0902 27.0666 29.0757 26.5148C29.0651 26.1135 29.254 25.9242 29.6569 25.9223C30.2792 25.9196 30.9036 25.9531 31.5234 25.9134C32.2641 25.8659 32.3605 26.3413 32.23 26.843C32.0916 27.3749 31.744 27.7236 31.2766 27.9607ZM24.8224 34.9729C28.7396 34.9729 32.6337 34.9729 36.5257 34.9729C36.6931 33.0462 36.1659 31.1986 35.1837 30.2074C34.8299 30.3511 34.491 30.5199 34.1332 30.6223C33.9239 30.682 33.8329 30.7532 33.777 30.9716C33.4142 32.3884 32.1681 33.3761 30.7568 33.3915C29.2144 33.4083 27.9441 32.4345 27.5484 30.9413C27.5214 30.8396 27.4537 30.7047 27.3697 30.6698C26.975 30.5051 26.5681 30.3698 26.1389 30.2146C24.9917 31.5722 24.6913 33.2002 24.8224 34.9729ZM17.355 38.2134C17.355 39.6427 17.355 41.0473 17.355 42.4531C24.8252 42.4531 32.2708 42.4531 39.7296 42.4531C39.7296 42.0994 39.7296 41.7622 39.7296 41.3993C39.5788 41.3993 39.4476 41.3993 39.3163 41.3993C32.5668 41.3993 25.8174 41.3993 19.0681 41.3991C18.5532 41.3991 18.3992 41.243 18.3989 40.7228C18.3986 39.8919 18.3989 39.0608 18.3989 38.2134C18.0381 38.2134 17.7089 38.2134 17.355 38.2134ZM37.602 43.5345C37.435 43.5345 37.3027 43.5345 37.1704 43.5345C30.5132 43.5345 23.8561 43.5345 17.1988 43.5345C17.1098 43.5345 17.021 43.5348 16.932 43.5344C16.4447 43.5316 16.2658 43.3581 16.2644 42.8781C16.2622 42.1446 16.2644 41.4111 16.263 40.6775C16.2628 40.5707 16.2527 40.4638 16.2476 40.3638C15.8808 40.3638 15.5441 40.3638 15.2159 40.3638C15.2159 41.7879 15.2159 43.1837 15.2159 44.5842C22.6877 44.5842 30.1386 44.5842 37.6019 44.5842C37.602 44.2346 37.602 43.9053 37.602 43.5345ZM17.3544 14.7247C17.3544 22.2069 17.3544 29.6598 17.3544 37.1152C17.7077 37.1152 18.0368 37.1152 18.3814 37.1152C18.3814 29.646 18.3814 22.193 18.3814 14.7247C18.0348 14.7247 17.7057 14.7247 17.3544 14.7247ZM15.2182 16.8612C15.2182 24.34 15.2182 31.793 15.2182 39.2404C15.5786 39.2404 15.9159 39.2404 16.2474 39.2404C16.2474 31.7681 16.2474 24.3228 16.2474 16.8612C15.9023 16.8612 15.573 16.8612 15.2182 16.8612ZM26.7733 18.3146C26.6686 18.3226 26.6332 18.3162 26.6066 18.3287C25.0282 19.0755 24.0286 20.2967 23.8155 22.0338C23.6865 23.0848 23.7508 24.1601 23.7358 25.2247C23.7297 25.6606 23.9478 25.926 24.2801 25.9172C24.6008 25.9089 24.8017 25.6519 24.8031 25.2351C24.8058 24.4581 24.7818 23.6801 24.8115 22.9041C24.8325 22.3536 24.8744 21.795 24.9935 21.2592C25.2483 20.1133 25.8679 19.1628 26.7733 18.3146ZM34.6257 18.3511C34.6622 18.3914 34.6967 18.4337 34.7354 18.4717C35.9704 19.6871 36.5737 21.1588 36.5464 22.8934C36.534 23.6813 36.5418 24.4697 36.5455 25.2579C36.5474 25.6662 36.767 25.9256 37.0903 25.9173C37.4015 25.9093 37.6112 25.6577 37.6128 25.2687C37.6164 24.3917 37.6281 23.5144 37.6079 22.6378C37.586 21.6738 37.3051 20.7838 36.7503 19.9882C36.2185 19.2253 35.5281 18.6604 34.6257 18.3511ZM30.125 30.0191C29.6189 30.2639 29.1279 30.5017 28.6302 30.7426C28.8862 31.7077 29.7879 32.3847 30.7752 32.3224C31.7468 32.2612 32.6068 31.5289 32.6994 30.7365C32.1924 30.4883 31.7031 30.2487 31.2222 30.0133C31.1802 30.511 31.0322 30.7139 30.689 30.7225C30.3334 30.7316 30.1726 30.523 30.125 30.0191Z" fill="#009247"/>
<path fill-rule="evenodd" clip-rule="evenodd" d="M30.674 38.7302C29.1618 38.7302 27.6495 38.7302 26.1371 38.7302C26.0593 38.7302 25.9814 38.7324 25.9036 38.7296C25.561 38.7171 25.3431 38.5135 25.3394 38.2043C25.3356 37.8923 25.551 37.6781 25.8899 37.6667C26.0898 37.6599 26.2902 37.6651 26.4903 37.6651C29.3593 37.6651 32.2283 37.6651 35.0971 37.6651C35.1749 37.6651 35.2528 37.6649 35.3306 37.6652C35.7856 37.6671 36.0156 37.8507 36.0099 38.2072C36.0045 38.55 35.7785 38.7294 35.3445 38.7299C34.3103 38.731 33.2761 38.7303 32.242 38.7303C31.7194 38.7302 31.1967 38.7302 30.674 38.7302Z" fill="#009247"/>
<path fill-rule="evenodd" clip-rule="evenodd" d="M30.1389 23.738C30.1355 24.0669 29.953 24.2879 29.6623 24.3156C29.3518 24.3451 29.1334 24.1595 29.0743 23.8158C29.0123 23.4545 28.8114 23.2476 28.5292 23.2542C28.2561 23.2606 28.0628 23.4629 28.005 23.8026C27.9451 24.1557 27.7399 24.3386 27.4291 24.3161C27.1248 24.294 26.9387 24.0664 26.9399 23.7176C26.9427 22.8817 27.6771 22.1827 28.5496 22.1853C29.4192 22.1879 30.148 22.8998 30.1389 23.738Z" fill="#009247"/>
<path fill-rule="evenodd" clip-rule="evenodd" d="M32.7973 22.1852C33.6864 22.1822 34.4253 22.8993 34.4087 23.7491C34.4025 24.0743 34.2134 24.2939 33.9208 24.3161C33.6219 24.3388 33.4028 24.1566 33.3454 23.8378C33.2773 23.459 33.1002 23.2618 32.8209 23.2542C32.5294 23.2462 32.3467 23.4434 32.272 23.8469C32.214 24.1599 31.9857 24.3429 31.6876 24.3155C31.4087 24.2898 31.2214 24.0773 31.2095 23.773C31.1767 22.9289 31.9172 22.1882 32.7973 22.1852Z" fill="#009247"/>
</svg>
