<svg width="58" height="58" viewBox="0 0 58 58" fill="none" xmlns="http://www.w3.org/2000/svg">
<circle cx="28.7701" cy="28.7701" r="28.7701" fill="#CBE5A9"/>
<path fill-rule="evenodd" clip-rule="evenodd" d="M15.0259 20.0968C15.0259 19.8912 15.0238 19.7243 15.0263 19.5574C15.0387 18.7345 15.6942 18.0757 16.5206 18.0734C18.3238 18.0681 20.1269 18.0716 21.9301 18.0716C22.0451 18.0716 22.16 18.0716 22.2695 18.0716C23.1162 14.7547 26.0606 12.9402 28.8337 13.0015C31.4688 13.0597 34.28 14.8169 35.1139 18.0716C35.3493 18.0716 35.5908 18.0716 35.832 18.0716C37.4665 18.0716 39.1009 18.071 40.7354 18.0718C41.7473 18.0723 42.3594 18.6904 42.3613 19.7112C42.3617 19.8257 42.3614 19.9403 42.3614 20.0968C42.8396 20.0968 43.2995 20.0955 43.7593 20.0971C44.219 20.0987 44.3858 20.2644 44.386 20.7248C44.387 22.9815 44.3866 25.2382 44.3863 27.4949C44.3863 28.0468 44.2438 28.1926 43.7041 28.1949C43.6098 28.1953 43.5154 28.195 43.3975 28.195C43.3975 32.5777 43.3975 36.9475 43.3975 41.3612C43.5553 41.3612 43.7199 41.3549 43.8839 41.3627C44.1866 41.3769 44.3792 41.5586 44.3832 41.8606C44.392 42.5354 44.3917 43.2104 44.3836 43.8852C44.3798 44.2031 44.1859 44.3813 43.8631 44.3955C43.7894 44.3988 43.7155 44.3963 43.6417 44.3963C33.6769 44.3963 23.7121 44.3963 13.7474 44.3962C13.1205 44.3962 13.0008 44.274 13.0007 43.6347C13.0007 43.0863 12.9995 42.538 13.001 41.9896C13.0023 41.5278 13.1664 41.3642 13.6266 41.3611C13.7413 41.3602 13.8561 41.3609 13.992 41.3609C13.992 36.9733 13.992 32.6035 13.992 28.1951C13.8572 28.1951 13.7241 28.1965 13.5911 28.1948C13.1754 28.1894 13.0016 28.0158 13.0014 27.5936C12.9998 25.569 13.0007 23.5443 13.0007 21.5196C13.0007 21.2454 12.9989 20.9712 13.0011 20.697C13.0045 20.2746 13.1749 20.1002 13.5917 20.0975C14.0546 20.0946 14.5175 20.0968 15.0259 20.0968ZM16.0382 41.3457C16.0382 41.2076 16.0382 41.084 16.0382 40.9606C16.0382 37.2693 16.038 33.5779 16.0384 29.8866C16.0384 29.3595 16.1869 29.2102 16.7114 29.2102C20.9825 29.2099 25.2537 29.2099 29.5248 29.2101C30.0674 29.2102 30.2111 29.356 30.2112 29.9056C30.2113 33.5969 30.2112 37.2881 30.2112 40.9795C30.2112 41.1012 30.2112 41.2229 30.2112 41.3352C34.2888 41.3352 38.3209 41.3352 42.3463 41.3352C42.3463 36.9471 42.3463 32.5847 42.3463 28.215C33.2344 28.215 24.1401 28.215 15.0463 28.215C15.0463 32.605 15.0463 36.9748 15.0463 41.3457C15.3817 41.3457 15.6942 41.3457 16.0382 41.3457ZM14.0111 27.1642C23.8204 27.1642 33.5879 27.1642 43.3764 27.1642C43.3764 26.6709 43.3324 26.1929 43.3871 25.7265C43.4621 25.0871 43.2213 24.649 42.754 24.2305C41.9044 23.4693 40.7948 23.4397 39.9701 24.2252C38.6523 25.4805 36.9751 25.4783 35.6476 24.2407C35.4304 24.0382 35.1573 23.8686 34.8797 23.7638C34.3578 23.5665 33.925 23.582 33.4652 24.0809C31.9695 25.7036 30.0738 26.3736 27.8766 26.1139C26.1813 25.9135 24.7904 25.1258 23.6678 23.8442C23.5733 23.7365 23.3938 23.654 23.2499 23.6475C22.6538 23.6209 22.1392 23.8284 21.7122 24.2551C21.1018 24.8655 20.3666 25.1796 19.4964 25.1567C18.6869 25.1355 18.0124 24.8124 17.4406 24.249C16.9135 23.7297 16.2876 23.5341 15.5594 23.7049C14.8872 23.8627 14.497 24.3975 14.0457 24.8486C14.0153 24.8789 14.0126 24.9459 14.0125 24.996C14.0105 25.7114 14.0111 26.4269 14.0111 27.1642ZM17.0712 30.2343C17.0712 33.9552 17.0712 37.6496 17.0712 41.3352C18.9324 41.3352 20.7707 41.3352 22.6025 41.3352C22.6025 37.6223 22.6025 33.9352 22.6025 30.2343C20.7545 30.2343 18.9237 30.2343 17.0712 30.2343ZM23.6439 41.3383C25.5075 41.3383 27.3458 41.3383 29.1757 41.3383C29.1757 37.6211 29.1757 33.9266 29.1757 30.2374C27.3195 30.2374 25.4887 30.2374 23.6439 30.2374C23.6439 33.9414 23.6439 37.6285 23.6439 41.3383ZM28.7022 14.0196C25.692 13.9951 23.1534 16.5009 23.1251 19.5249C23.0964 22.59 25.5874 25.1351 28.6371 25.1566C31.7219 25.1785 34.2394 22.6933 34.2604 19.6056C34.2812 16.5548 31.7835 14.0448 28.7022 14.0196ZM14.025 43.3636C23.8207 43.3636 33.5899 43.3636 43.3504 43.3636C43.3504 43.0205 43.3504 42.7003 43.3504 42.3881C33.5627 42.3881 23.8008 42.3881 14.025 42.3881C14.025 42.7173 14.025 43.0297 14.025 43.3636ZM34.5886 22.579C34.9629 22.722 35.3663 22.8245 35.7145 23.0237C36.0658 23.2247 36.3526 23.535 36.6849 23.7734C37.1312 24.0938 37.628 24.2125 38.1791 24.1005C38.6213 24.0106 38.9647 23.7741 39.2842 23.4699C40.3831 22.424 41.9409 22.3365 43.1511 23.2406C43.213 23.2869 43.2801 23.3264 43.3531 23.3743C43.3531 22.6047 43.3531 21.8635 43.3531 21.1166C40.5924 21.1166 37.8551 21.1166 35.1279 21.1166C34.9429 21.6181 34.7623 22.1079 34.5886 22.579ZM14.0261 23.3631C14.066 23.3544 14.0896 23.3563 14.1021 23.3454C15.3131 22.2924 17.1186 22.4267 18.2399 23.5841C18.9937 24.3623 20.1422 24.3248 20.9416 23.5834C21.1413 23.3982 21.3436 23.1981 21.5813 23.0754C21.9687 22.8754 22.3861 22.7337 22.7937 22.5662C22.624 22.1069 22.4408 21.6109 22.2607 21.1229C19.5134 21.1229 16.7774 21.1229 14.0261 21.1229C14.0261 21.873 14.0261 22.6073 14.0261 23.3631ZM16.0359 20.079C18.0817 20.079 20.0874 20.079 22.0971 20.079C22.0971 19.7416 22.0971 19.4225 22.0971 19.0819C21.2791 19.0819 20.4805 19.0819 19.6821 19.0819C18.6924 19.0819 17.7027 19.0807 16.713 19.0825C16.2111 19.0833 16.0371 19.2633 16.0359 19.7729C16.0358 19.8665 16.0359 19.9603 16.0359 20.079ZM41.3272 20.0875C41.4135 19.2387 41.2736 19.0819 40.4589 19.0819C38.8481 19.0819 37.2373 19.0819 35.6264 19.0819C35.5143 19.0819 35.4022 19.0819 35.2916 19.0819C35.2916 19.4404 35.2916 19.7595 35.2916 20.0875C37.3108 20.0875 39.3086 20.0875 41.3272 20.0875Z" fill="#009247"/>
<path fill-rule="evenodd" clip-rule="evenodd" d="M36.2639 39.3334C34.7979 39.3334 33.3318 39.334 31.8658 39.3331C31.3867 39.3327 31.2265 39.1705 31.2265 38.6859C31.2259 35.7431 31.2259 32.8004 31.2265 29.8576C31.2265 29.3718 31.3854 29.2105 31.8652 29.2104C34.8183 29.2097 37.7715 29.2096 40.7247 29.2104C41.1827 29.2106 41.3486 29.3784 41.3487 29.8412C41.3495 32.7945 41.3495 35.7479 41.3487 38.7012C41.3486 39.1637 41.1821 39.3325 40.7254 39.3329C39.2382 39.3342 37.751 39.3334 36.2639 39.3334ZM32.2591 30.2342C32.2591 32.9423 32.2591 35.6244 32.2591 38.2976C34.964 38.2976 37.6459 38.2976 40.3216 38.2976C40.3216 35.5973 40.3216 32.9228 40.3216 30.2342C37.63 30.2342 34.9556 30.2342 32.2591 30.2342Z" fill="#009247"/>
<path fill-rule="evenodd" clip-rule="evenodd" d="M28.6902 23.6662C28.1874 23.6367 27.6697 23.674 27.1847 23.5653C25.8424 23.2646 25.2226 21.6988 25.9659 20.5412C26.2153 20.1528 26.4971 19.78 26.8021 19.4334C27.7987 18.3005 29.5382 18.2679 30.5413 19.3917C31.0188 19.9268 31.531 20.4636 31.6921 21.2112C31.9548 22.43 31.0127 23.6202 29.7659 23.6372C29.4078 23.6421 29.0498 23.6379 28.6917 23.6379C28.6912 23.6474 28.6907 23.6567 28.6902 23.6662ZM28.6866 22.627C29.0238 22.627 29.3615 22.6381 29.6981 22.6241C30.0926 22.6077 30.4077 22.4379 30.5955 22.0765C30.7899 21.7027 30.7445 21.3415 30.5062 21.0057C30.3052 20.7223 30.0997 20.4411 29.8786 20.1733C29.2316 19.3894 28.1414 19.3963 27.4973 20.1868C27.2846 20.448 27.0849 20.7201 26.8886 20.9941C26.6494 21.328 26.5943 21.6869 26.7857 22.0638C26.9762 22.4394 27.2988 22.611 27.7065 22.625C28.0328 22.6364 28.3598 22.6273 28.6866 22.627Z" fill="#009247"/>
<path fill-rule="evenodd" clip-rule="evenodd" d="M32.7422 17.6053C32.6835 18.2205 32.3649 18.814 31.7462 19.223C31.4511 19.4181 31.1197 19.4838 30.7962 19.2754C30.4843 19.0745 30.3586 18.7732 30.3947 18.4082C30.4671 17.6745 30.7797 17.0767 31.4303 16.6995C32.0971 16.3129 32.7573 16.715 32.7422 17.6053Z" fill="#009247"/>
<path fill-rule="evenodd" clip-rule="evenodd" d="M26.9938 18.3403C27.0129 19.1979 26.3776 19.6014 25.725 19.2746C25.0811 18.952 24.5699 18.017 24.6462 17.3015C24.7078 16.7255 25.2812 16.3843 25.8107 16.6293C26.5879 16.9888 26.9068 17.6572 26.9938 18.3403Z" fill="#009247"/>
<path fill-rule="evenodd" clip-rule="evenodd" d="M27.6798 16.5358C27.6825 16.0794 27.7898 15.6569 28.1064 15.3134C28.463 14.9264 28.9348 14.9347 29.2921 15.3224C29.8472 15.9252 29.8477 17.1765 29.2928 17.7794C28.9288 18.175 28.4421 18.175 28.0854 17.767C27.7789 17.4166 27.6751 16.9927 27.6798 16.5358Z" fill="#009247"/>
<path fill-rule="evenodd" clip-rule="evenodd" d="M36.2698 37.3346C35.9785 37.3049 35.6767 37.314 35.3978 37.2383C34.4796 36.9891 33.983 35.9594 34.4004 35.1054C34.7299 34.4313 35.259 33.9499 36.0341 33.7917C37.1498 33.5642 38.6432 34.9737 38.2599 36.1473C38.0355 36.8348 37.4691 37.2972 36.746 37.3079C36.5883 37.3102 36.4304 37.3082 36.2725 37.3082C36.2715 37.3169 36.2707 37.3258 36.2698 37.3346ZM36.2664 36.2937C36.4345 36.2937 36.6207 36.3396 36.766 36.2819C36.9446 36.2109 37.1638 36.0833 37.227 35.9251C37.2892 35.7688 37.208 35.5315 37.134 35.3529C37.0819 35.2271 36.9395 35.1369 36.8327 35.036C36.4742 34.6972 36.1052 34.6955 35.748 35.031C35.6408 35.1316 35.4993 35.2213 35.4455 35.3469C35.3693 35.5245 35.2835 35.7601 35.3433 35.9169C35.404 36.0763 35.6214 36.2048 35.7986 36.2816C35.9313 36.3391 36.1088 36.293 36.2664 36.2937Z" fill="#009247"/>
<path fill-rule="evenodd" clip-rule="evenodd" d="M37.3018 33.2738C37.3069 32.4722 38.1506 31.79 38.8946 31.986C39.3581 32.108 39.5967 32.4315 39.5762 32.9093C39.5499 33.5182 38.989 34.1565 38.3886 34.2609C37.7676 34.3688 37.2975 33.9418 37.3018 33.2738Z" fill="#009247"/>
<path fill-rule="evenodd" clip-rule="evenodd" d="M37.3723 31.952C37.3037 32.3805 37.1854 32.7309 36.8924 33.0082C36.5281 33.3526 36.0378 33.3471 35.6732 33.0007C35.1797 32.5321 35.1321 31.6257 35.573 31.0923C35.9821 30.5972 36.6266 30.5859 37.0001 31.1077C37.1756 31.3523 37.2514 31.6684 37.3723 31.952Z" fill="#009247"/>
<path fill-rule="evenodd" clip-rule="evenodd" d="M35.2154 33.3218C35.2044 34.1218 34.6062 34.496 33.8838 34.1534C33.4391 33.9427 33.1575 33.5945 33.0314 33.1214C32.8412 32.4082 33.3745 31.8722 34.1359 32.0083C34.784 32.1242 35.2243 32.6601 35.2154 33.3218Z" fill="#009247"/>
</svg>
