<svg width="36" height="36" viewBox="0 0 36 36" fill="none" xmlns="http://www.w3.org/2000/svg">
<path fill-rule="evenodd" clip-rule="evenodd" d="M17.6552 35.3103C27.4059 35.3103 35.3103 27.4059 35.3103 17.6552C35.3103 7.90449 27.4059 0 17.6552 0C7.90449 0 0 7.90449 0 17.6552C0 27.4059 7.90449 35.3103 17.6552 35.3103Z" fill="#8BC53F" fill-opacity="0.33"/>
<path d="M27 11.0078C26.2165 11.5349 25.349 11.938 24.4309 12.2016C23.9382 11.6613 23.2833 11.2783 22.5548 11.1045C21.8264 10.9307 21.0596 10.9744 20.3581 11.2298C19.6565 11.4851 19.0542 11.9397 18.6324 12.5322C18.2107 13.1246 17.9899 13.8263 18 14.5422V15.3225C16.5622 15.358 15.1374 15.0539 13.8526 14.4373C12.5679 13.8206 11.463 12.9105 10.6364 11.7881C10.6364 11.7881 7.36364 18.81 14.7273 21.9309C13.0422 23.0216 11.0349 23.5685 9 23.4913C16.3636 27.3924 25.3636 23.4913 25.3636 14.5188C25.3629 14.3015 25.341 14.0847 25.2982 13.8712C26.1332 13.086 26.7225 12.0945 27 11.0078V11.0078Z" stroke="#009247" stroke-linecap="round" stroke-linejoin="round"/>
</svg>
