<?xml version="1.0" standalone="no"?>
<svg xmlns:xlink="http://www.w3.org/1999/xlink" id="wave" style="transform:rotate(0deg); transition: 0.3s" viewBox="0 0 1440 490" version="1.1" xmlns="http://www.w3.org/2000/svg"><defs><linearGradient id="sw-gradient-0" x1="0" x2="0" y1="1" y2="0"><stop stop-color="rgba(139, 197, 63, 1)" offset="0%"/><stop stop-color="rgba(139, 197, 63, 1)" offset="100%"/></linearGradient></defs><path style="transform:translate(0, 0px); opacity:1" fill="url(#sw-gradient-0)" d="M0,98L80,81.7C160,65,320,33,480,65.3C640,98,800,196,960,228.7C1120,261,1280,229,1440,212.3C1600,196,1760,196,1920,220.5C2080,245,2240,294,2400,277.7C2560,261,2720,180,2880,171.5C3040,163,3200,229,3360,228.7C3520,229,3680,163,3840,122.5C4000,82,4160,65,4320,57.2C4480,49,4640,49,4800,81.7C4960,114,5120,180,5280,179.7C5440,180,5600,114,5760,122.5C5920,131,6080,212,6240,228.7C6400,245,6560,196,6720,179.7C6880,163,7040,180,7200,196C7360,212,7520,229,7680,228.7C7840,229,8000,212,8160,171.5C8320,131,8480,65,8640,49C8800,33,8960,65,9120,130.7C9280,196,9440,294,9600,343C9760,392,9920,392,10080,367.5C10240,343,10400,294,10560,302.2C10720,310,10880,376,11040,351.2C11200,327,11360,212,11440,155.2L11520,98L11520,490L11440,490C11360,490,11200,490,11040,490C10880,490,10720,490,10560,490C10400,490,10240,490,10080,490C9920,490,9760,490,9600,490C9440,490,9280,490,9120,490C8960,490,8800,490,8640,490C8480,490,8320,490,8160,490C8000,490,7840,490,7680,490C7520,490,7360,490,7200,490C7040,490,6880,490,6720,490C6560,490,6400,490,6240,490C6080,490,5920,490,5760,490C5600,490,5440,490,5280,490C5120,490,4960,490,4800,490C4640,490,4480,490,4320,490C4160,490,4000,490,3840,490C3680,490,3520,490,3360,490C3200,490,3040,490,2880,490C2720,490,2560,490,2400,490C2240,490,2080,490,1920,490C1760,490,1600,490,1440,490C1280,490,1120,490,960,490C800,490,640,490,480,490C320,490,160,490,80,490L0,490Z"/></svg>