<svg width="40" height="46" viewBox="0 0 40 46" fill="none" xmlns="http://www.w3.org/2000/svg">
<path d="M9.76396 27.7749C9.6596 27.7749 9.55525 27.7618 9.45277 27.7376C9.12667 27.6556 8.84716 27.4469 8.67573 27.1581C8.50429 26.8693 8.45212 26.5246 8.53411 26.1985C9.03164 24.4376 9.80122 22.7643 10.8131 21.2401C13.0603 17.8786 16.1238 16.0208 19.7183 15.8643H19.776C26.7899 15.8643 30.4664 22.4363 31.4298 25.9115C31.4745 26.0718 31.4875 26.2413 31.467 26.4053C31.4465 26.5711 31.3943 26.7314 31.3105 26.8767C31.2285 27.0221 31.1186 27.1506 30.9863 27.2531C30.854 27.3556 30.7049 27.432 30.5428 27.4767C30.3825 27.5215 30.213 27.5345 30.049 27.514C29.8831 27.4935 29.7229 27.4413 29.5775 27.3575C29.4322 27.2755 29.3055 27.1656 29.2011 27.0333C29.0986 26.901 29.0222 26.7519 28.9775 26.5898C28.4986 25.0805 27.7868 23.6568 26.87 22.3655C24.9786 19.7345 22.5972 18.3984 19.7872 18.3947C13.1013 18.7059 10.9975 26.7314 10.977 26.8134C10.9099 27.0854 10.7553 27.3277 10.5354 27.501C10.3155 27.6743 10.0453 27.7711 9.76396 27.773V27.7749Z" fill="#32333E"/>
<path d="M24.4316 45.9853H2.85336C2.68379 45.9853 2.51609 45.9499 2.36142 45.8847C2.2049 45.8176 2.06514 45.7226 1.94589 45.5996C1.82849 45.4785 1.73532 45.335 1.67383 45.1766C1.61234 45.0182 1.58252 44.8505 1.58625 44.681C1.71296 40.0114 3.41984 36.2008 6.65471 33.3592C11.1921 29.3678 15.9065 29.1647 16.1059 29.1591H30.6106C30.7765 29.1591 30.9423 29.1927 31.0951 29.256C31.2479 29.3194 31.3877 29.4126 31.5069 29.53C31.6243 29.6473 31.7175 29.7871 31.7808 29.9399C31.8442 30.0927 31.8777 30.2585 31.8777 30.4244C31.8777 32.707 31.4697 34.602 29.3733 36.4169C27.1391 38.4182 25.0838 38.394 24.5415 38.3399H18.2954C17.96 38.3399 17.6376 38.2058 17.3991 37.9691C17.1624 37.7325 17.0283 37.4101 17.0283 37.0728C17.0283 36.7356 17.1624 36.4151 17.3991 36.1784C17.6357 35.9418 17.9581 35.8076 18.2954 35.8076H24.6067C24.6682 35.802 24.7297 35.802 24.7912 35.8076C24.8248 35.8076 26.1105 35.9213 27.6963 34.5051C28.1342 34.1604 28.5013 33.7337 28.7714 33.2474C29.0435 32.761 29.2149 32.2244 29.2764 31.671H16.1655C13.24 32.0157 10.4952 33.2641 8.31127 35.2412C5.92798 37.3356 4.4503 40.2722 4.18942 43.4344H24.3552C24.8415 43.3803 29.6901 42.8046 33.0554 39.3294C34.9319 37.5051 36.0928 35.066 36.3238 32.4592V25.7324C36.3238 25.397 36.458 25.0747 36.6946 24.8361C36.9313 24.5976 37.2537 24.4653 37.5909 24.4653C37.9282 24.4653 38.2487 24.5995 38.4854 24.8361C38.722 25.0728 38.8562 25.3952 38.8562 25.7324V32.6921C38.5767 35.8915 37.1586 38.884 34.8611 41.1275C30.6498 45.4785 24.7484 45.9797 24.4987 46.0002L24.4334 45.9835L24.4316 45.9853Z" fill="#8BC43A"/>
<path d="M13.8151 14.2026C10.7386 14.2026 8.23047 11.0125 8.23047 7.09569C8.23047 3.1789 10.7405 0 13.8151 0C16.8897 0 19.3997 3.18635 19.3997 7.10314C19.3997 11.0199 16.8953 14.2026 13.8151 14.2026ZM13.8151 2.52486C12.1604 2.52486 10.7647 4.61555 10.7647 7.09569C10.7647 9.57582 12.1623 11.6702 13.8151 11.6702C15.4679 11.6702 16.8655 9.57396 16.8655 7.09569C16.8655 4.61741 15.4679 2.52486 13.8151 2.52486Z" fill="#32333E"/>
<path d="M5.32758 20.9017C3.16603 20.9017 1.04734 19.1949 0.283348 16.6383C-0.614813 13.6271 0.691433 10.5638 3.2238 9.81282C3.87599 9.63207 4.55986 9.60226 5.22323 9.72524C5.88847 9.84822 6.51643 10.1203 7.05868 10.5228C8.19163 11.3669 9.02271 12.5538 9.42707 13.9066C9.83143 15.2594 9.78857 16.7073 9.30595 18.034C9.07116 18.6675 8.69475 19.2396 8.20654 19.7091C7.71833 20.1768 7.12949 20.5272 6.48662 20.734C6.11021 20.8458 5.7189 20.9017 5.32572 20.9017H5.32758ZM4.39588 12.1737C4.24308 12.1737 4.09215 12.1961 3.9468 12.2389C2.7859 12.5855 2.21942 14.2812 2.72068 15.9153C3.2238 17.5495 4.61204 18.6563 5.77107 18.3098C6.04872 18.2073 6.30028 18.0452 6.50712 17.8327C6.71395 17.6203 6.87048 17.365 6.96365 17.0837C7.23384 16.288 7.24875 15.4271 7.00837 14.6222C6.76613 13.8172 6.27978 13.1072 5.61641 12.5911C5.2605 12.3339 4.83378 12.1886 4.39588 12.1737Z" fill="#32333E"/>
<path d="M26.1648 14.2026C23.1013 14.2026 20.7031 11.0814 20.7031 7.09569C20.7031 3.10995 23.1125 0 26.1648 0C29.217 0 31.6301 3.12113 31.6301 7.10314C31.6301 11.0851 29.2412 14.2026 26.1648 14.2026ZM26.1648 2.52486C24.5753 2.52486 23.2355 4.61555 23.2355 7.09569C23.2355 9.57582 24.5753 11.6702 26.1648 11.6702C27.7542 11.6702 29.0978 9.57396 29.0978 7.09569C29.0978 4.61741 27.7542 2.52486 26.1648 2.52486Z" fill="#32333E"/>
<path d="M34.5467 20.8991C34.1535 20.9009 33.7622 20.845 33.3858 20.7313C32.7429 20.5245 32.1541 20.1742 31.6658 19.7065C31.1776 19.2388 30.8012 18.6667 30.5664 18.0313C30.0652 16.7065 30.0223 15.2531 30.4434 13.9021C31.3416 10.8909 34.1199 9.05365 36.6486 9.81763C39.1772 10.5816 40.4872 13.6319 39.589 16.6431C38.812 19.1959 36.6933 20.8991 34.5448 20.8991H34.5467ZM35.4821 12.1711C34.4293 12.1711 33.3056 13.1885 32.8715 14.6214C32.6218 15.4226 32.6404 16.2835 32.9255 17.0717C33.0187 17.3531 33.1733 17.6084 33.3783 17.8208C33.5833 18.0332 33.8348 18.1953 34.1125 18.2978C35.2771 18.6444 36.6728 17.5506 37.1647 15.9034C37.6548 14.258 37.0865 12.5754 35.9386 12.227C35.7858 12.1841 35.6274 12.1636 35.469 12.1692H35.4821V12.1711Z" fill="#32333E"/>
</svg>
