<svg width="215" height="248" viewBox="0 0 215 248" fill="none" xmlns="http://www.w3.org/2000/svg">
<path d="M52.5967 149.632C52.0345 149.632 51.4723 149.562 50.9202 149.431C49.1634 148.989 47.6576 147.865 46.7341 146.309C45.8105 144.753 45.5294 142.896 45.9711 141.139C48.6515 131.653 52.7974 122.638 58.2484 114.427C70.3551 96.3176 86.8587 86.3092 106.223 85.466H106.535C144.32 85.466 164.126 120.872 169.316 139.593C169.557 140.457 169.628 141.37 169.517 142.254C169.407 143.147 169.126 144.01 168.674 144.793C168.232 145.576 167.64 146.269 166.927 146.821C166.215 147.373 165.411 147.785 164.538 148.026C163.675 148.267 162.761 148.337 161.878 148.226C160.984 148.116 160.121 147.835 159.338 147.383C158.555 146.942 157.872 146.349 157.31 145.637C156.758 144.924 156.346 144.121 156.106 143.247C153.526 135.116 149.691 127.447 144.752 120.49C134.563 106.316 121.733 99.1183 106.595 99.0982C70.5759 100.775 59.2423 144.01 59.1318 144.452C58.7705 145.918 57.9372 147.223 56.7527 148.156C55.5681 149.09 54.1125 149.612 52.5967 149.622V149.632Z" fill="white"/>
<path d="M131.627 247.735H15.3789C14.4654 247.735 13.5619 247.544 12.7287 247.193C11.8854 246.831 11.1325 246.319 10.49 245.657C9.85761 245.004 9.35567 244.231 9.0244 243.378C8.69312 242.525 8.5325 241.621 8.55258 240.708C9.23521 215.551 18.4306 195.023 35.8578 179.714C60.302 158.212 85.6999 157.117 86.774 157.087H164.915C165.809 157.087 166.702 157.268 167.525 157.609C168.348 157.951 169.101 158.453 169.744 159.085C170.376 159.717 170.878 160.47 171.219 161.293C171.561 162.117 171.741 163.01 171.741 163.904C171.741 176.201 169.543 186.41 158.249 196.187C146.213 206.969 135.14 206.838 132.219 206.547H98.5695C96.7625 206.547 95.0258 205.824 93.7409 204.549C92.466 203.274 91.7432 201.538 91.7432 199.721C91.7432 197.904 92.466 196.177 93.7409 194.902C95.0158 193.627 96.7525 192.905 98.5695 192.905H132.571C132.902 192.875 133.233 192.875 133.564 192.905C133.745 192.905 140.672 193.517 149.215 185.888C151.574 184.031 153.551 181.732 155.007 179.112C156.473 176.492 157.396 173.601 157.727 170.619H87.0953C71.3345 172.476 56.5475 179.202 44.7822 189.853C31.9427 201.136 23.982 216.957 22.5766 233.992H131.215C133.835 233.701 159.956 230.599 178.086 211.877C188.195 202.05 194.449 188.909 195.694 174.866V138.627C195.694 136.82 196.417 135.083 197.691 133.798C198.966 132.513 200.703 131.8 202.52 131.8C204.337 131.8 206.064 132.523 207.339 133.798C208.614 135.073 209.336 136.81 209.336 138.627V176.12C207.831 193.356 200.191 209.478 187.813 221.564C165.126 245.004 133.333 247.705 131.988 247.815L131.637 247.725L131.627 247.735Z" fill="#8BC43A"/>
<path d="M74.4285 76.5132C57.8547 76.5132 44.3426 59.3274 44.3426 38.2265C44.3426 17.1256 57.8647 0 74.4285 0C90.9924 0 104.514 17.1658 104.514 38.2666C104.514 59.3675 91.0225 76.5132 74.4285 76.5132ZM74.4285 13.6021C65.5142 13.6021 57.9952 24.8653 57.9952 38.2265C57.9952 51.5877 65.5242 62.8709 74.4285 62.8709C83.3328 62.8709 90.8619 51.5777 90.8619 38.2265C90.8619 24.8753 83.3328 13.6021 74.4285 13.6021Z" fill="white"/>
<path d="M28.7012 112.602C17.0563 112.602 5.64234 103.407 1.52648 89.6343C-3.31217 73.4122 3.72495 56.9089 17.3675 52.8634C20.8811 51.8897 24.5653 51.7291 28.139 52.3916C31.7228 53.0542 35.1059 54.5198 38.0271 56.6881C44.1307 61.2355 48.6079 67.63 50.7863 74.918C52.9647 82.2059 52.7338 90.0058 50.1338 97.1532C48.8689 100.566 46.8411 103.648 44.211 106.178C41.5808 108.697 38.4086 110.585 34.9453 111.699C32.9174 112.301 30.8093 112.602 28.6912 112.602H28.7012ZM23.6819 65.5822C22.8587 65.5822 22.0456 65.7026 21.2625 65.9335C15.0084 67.8007 11.9567 76.9357 14.6571 85.7394C17.3675 94.5432 24.8463 100.506 31.0904 98.6389C32.5862 98.0867 33.9414 97.2134 35.0557 96.069C36.17 94.9246 37.0132 93.5494 37.5152 92.0335C38.9708 87.7471 39.0511 83.1093 37.7561 78.7727C36.4511 74.4361 33.831 70.6115 30.2572 67.8308C28.3398 66.4455 26.0409 65.6625 23.6819 65.5822Z" fill="white"/>
<path d="M140.962 76.5132C124.458 76.5132 111.539 59.6988 111.539 38.2265C111.539 16.7542 124.519 0 140.962 0C157.405 0 170.405 16.8144 170.405 38.2666C170.405 59.7188 157.536 76.5132 140.962 76.5132ZM140.962 13.6021C132.399 13.6021 125.181 24.8653 125.181 38.2265C125.181 51.5877 132.399 62.8709 140.962 62.8709C149.525 62.8709 156.763 51.5777 156.763 38.2265C156.763 24.8753 149.525 13.6021 140.962 13.6021Z" fill="white"/>
<path d="M186.12 112.589C184.002 112.599 181.894 112.298 179.866 111.686C176.403 110.571 173.23 108.684 170.6 106.165C167.97 103.645 165.942 100.563 164.677 97.1399C161.977 90.0026 161.746 82.1726 164.015 74.8947C168.854 58.6725 183.821 48.7746 197.444 52.8904C211.066 57.0061 218.123 73.4391 213.285 89.6613C209.099 103.414 197.685 112.589 186.11 112.589H186.12ZM191.159 65.569C185.488 65.569 179.434 71.05 177.095 78.7695C175.75 83.0861 175.85 87.7238 177.386 91.9701C177.888 93.4859 178.722 94.8612 179.826 96.0056C180.93 97.15 182.285 98.0233 183.781 98.5754C190.055 100.443 197.574 94.55 200.224 85.676C202.865 76.812 199.803 67.7473 193.619 65.8701C192.796 65.6392 191.942 65.5288 191.089 65.5589H191.159V65.569Z" fill="white"/>
</svg>
